<?xml version="1.0" encoding="utf-8" ?>
<svg baseProfile="tiny" height="188" version="1.2" width="161" xmlns="http://www.w3.org/2000/svg" xmlns:ev="http://www.w3.org/2001/xml-events" xmlns:xlink="http://www.w3.org/1999/xlink"><defs /><polyline fill="none" points="146.281,121.36 146.1373,120.85 145.9665,120.3494 145.769,119.8583 145.5449,119.3767 145.2947,118.9045 145.0185,118.4419 144.7167,117.9888 144.3895,117.5453 144.0372,117.1115 143.6601,116.6872 143.2585,116.2726 142.8326,115.8677 142.3827,115.4725 141.9092,115.0871 141.4122,114.7114 140.8921,114.3455 140.3491,113.9894 139.7836,113.6432 139.1957,113.3069 138.5859,112.9804 137.9543,112.6639 137.3012,112.3574 136.627,112.0608 135.9318,111.7743 135.2161,111.4977 134.4799,111.2313 133.7238,110.9749 132.9478,110.7287 132.1524,110.4926 131.3377,110.2666 130.504,110.0509 129.6517,109.8454 128.7811,109.6501 127.8923,109.4652 126.9856,109.2905 126.0615,109.1262 125.12,108.9722 124.1616,108.8286 123.1864,108.6954 122.1949,108.5727 121.1871,108.4604 120.1635,108.3587 119.1243,108.2674 118.0698,108.1867 117.0003,108.1166 115.916,108.0571 114.8172,108.0082 113.7042,107.9699 112.5773,107.9424 111.4368,107.9255 110.2829,107.9194 109.1159,107.9241 107.9362,107.9395 106.7439,107.9658 105.5393,108.0029 104.3229,108.0509 103.0947,108.1098 101.8551,108.1796 100.6044,108.2603 99.3428,108.3521 98.0707,108.4548 96.7883,108.5686 95.4959,108.6934 94.1938,108.8293 92.8822,108.9764 91.5615,109.1346 90.2318,109.3039 88.8936,109.4844 87.547,109.6762 86.1924,109.8792 84.83,110.0935 83.4601,110.3191 82.083,110.556 80.875,112.924 80.3733,113.9452 79.8762,114.9608 79.3822,115.9713 78.8902,116.9771 78.3988,117.9786 77.9066,118.9762 77.4124,119.9704 76.9149,120.9616 76.4127,121.9503 75.9045,122.9368 75.3891,123.9216 74.8651,124.9051 74.3312,125.8878 73.7861,126.87 73.2285,127.8523 72.657,128.835 72.1009,129.774 71.538,130.7097 70.966,131.6402 70.3827,132.5632 69.7857,133.4768 69.1727,134.3787 68.5415,135.267 67.8897,136.1395 67.215,136.994 66.5152,137.8286 65.7878,138.6411 65.0307,139.4294 64.2415,140.1914 63.418,140.925 62.5329,141.6288 61.6347,142.2405 60.7255,142.7607 59.8072,143.19 58.8819,143.5289 57.9513,143.778 57.0177,143.9379 56.0829,144.0092 55.1488,143.9924 54.2176,143.888 53.2911,143.6967 52.3714,143.4191 51.4604,143.0556 50.56,142.6069 49.6724,142.0735 48.7994,141.456 47.943,140.755 47.1332,140.0182 46.3535,139.2568 45.601,138.4731 44.8729,137.6694 44.1664,136.8481 43.4785,136.0114 42.8064,135.1619 42.1472,134.3017 41.498,133.4332 40.8559,132.5589 40.2182,131.6809 39.5819,130.8017 38.9441,129.9236 38.302,129.049 37.7185,128.2253 36.9786,127.1352 36.1722,125.9218 35.389,124.728 34.1185,125.3112 32.8665,125.8999 31.6335,126.4937 30.4198,127.0925 29.2257,127.6961 28.0515,128.3042 26.8976,128.9165 25.7642,129.5331 24.6517,130.1534 23.5604,130.7775 22.4906,131.405 21.4428,132.0357 20.4171,132.6695 19.4139,133.306 18.4335,133.9452 17.4763,134.5867 16.5426,135.2303 15.6327,135.8759 14.7469,136.5232 13.8856,137.172 13.049,137.8221 12.2376,138.4733 11.4516,139.1253 10.6913,139.7779 9.9571,140.431 9.2493,141.0842 8.5682,141.7375 7.9142,142.3905 7.2875,143.043 6.6885,143.6949 6.1175,144.3459 5.5749,144.9958 5.0609,145.6444 4.576,146.2915 4.1203,146.9368 3.6943,147.5801 3.2982,148.2213 2.9324,148.8601 2.5973,149.4962 2.293,150.1295 2.02,150.7598 1.7786,151.3867 1.5691,152.0103 1.3918,152.6301 1.2471,153.2459 1.1353,153.8577 1.0566,154.4651 1.0115,155.0679 1.0002,155.666 1.0231,156.259 1.0805,156.8469 1.1727,157.4293 1.3,158.006 1.4325,158.4796 1.5882,158.945 1.7671,159.4023 1.9688,159.8515 2.1932,160.2925 2.4399,160.7253 2.7089,161.1499 2.9999,161.5662 3.3125,161.9743 3.6468,162.3741 4.0023,162.7656 4.3789,163.1488 4.7763,163.5237 5.1944,163.8901 5.6328,164.2482 6.0915,164.5979 6.5701,164.9392 7.0685,165.272 7.5864,165.5963 8.1235,165.9121 8.6797,166.2194 9.2548,166.5182 9.8485,166.8084 10.4606,167.0901 11.0909,167.3631 11.7391,167.6275 12.4051,167.8833 13.0885,168.1304 13.7892,168.3688 14.507,168.5985 15.2417,168.8194 15.9929,169.0317 16.7605,169.2351 17.5443,169.4297 18.3441,169.6156 19.1595,169.7926 19.9905,169.9607 20.8367,170.1199 21.698,170.2703 22.5741,170.4117 23.4648,170.5442 24.3698,170.6676 25.2891,170.7822 26.2222,170.8877 27.1691,170.9841 28.1295,171.0715 29.1031,171.1499 30.0898,171.2191 31.0893,171.2792 32.1013,171.3302 33.1258,171.372 34.1624,171.4046 35.2109,171.4281 36.2711,171.4423 37.3428,171.4472 38.4258,171.4429 39.5197,171.4293 40.6245,171.4064 41.7399,171.3741 42.8656,171.3325 44.0015,171.2815 45.1473,171.2211 46.3028,171.1513 47.4677,171.0721 48.6419,170.9834 49.8251,170.8852 51.0171,170.7775 52.2177,170.6602 53.4266,170.5335 54.6437,170.3971 55.8686,170.2512 57.1013,170.0956 58.3414,169.9304 59.5887,169.7556 60.8431,169.571 62.1042,169.3768 63.3719,169.1728 64.646,168.9592 65.9261,168.7357 67.2122,168.5024 68.5039,168.2594 69.8011,168.0065 71.1035,167.7438 72.411,167.4712 73.7232,167.1887 75.0399,166.8962 76.361,166.5939 77.6862,166.2816 79.0153,165.9593 80.348,165.627 81.6786,165.2861 83.0012,164.9381 84.3156,164.5832 85.6217,164.2215 86.9193,163.8531 88.2081,163.4782 89.488,163.0968 90.7588,162.7091 92.0204,162.3152 93.2725,161.9153 94.5149,161.5094 95.7475,161.0977 96.9701,160.6804 98.1825,160.2574 99.3844,159.8291 100.5758,159.3954 101.7564,158.9566 102.9261,158.5126 104.0846,158.0638 105.2318,157.6101 106.3675,157.1518 107.4914,156.6889 108.6035,156.2216 109.7036,155.7499 110.7913,155.2741 111.8666,154.7942 112.9293,154.3104 113.9792,153.8228 115.016,153.3315 116.0397,152.8366 117.05,152.3383 118.0467,151.8367 119.0297,151.3319 119.9988,150.824 120.9537,150.3132 121.8943,149.7996 122.8204,149.2834 123.7319,148.7645 124.6285,148.2432 125.51,147.7197 126.3763,147.1939 127.2272,146.6661 128.0624,146.1363 128.8819,145.6048 129.6854,145.0715 130.4727,144.5367 131.2436,144.0004 131.998,143.4629 132.7357,142.9242 133.4565,142.3844 134.1602,141.8436 134.8466,141.3021 135.5155,140.7599 136.1667,140.2171 136.8001,139.6739 137.4155,139.1304 138.0127,138.5867 138.5914,138.0429 139.1516,137.4992 139.693,136.9557 140.2154,136.4126 140.7187,135.8698 141.2026,135.3276 141.667,134.7862 142.1117,134.2455 142.5366,133.7058 142.9413,133.1671 143.3258,132.6296 143.6898,132.0935 144.0332,131.5588 144.3557,131.0257 144.6573,130.4942 144.9376,129.9646 145.1966,129.4369 145.434,128.9113 145.6496,128.3878 145.8433,127.8667 146.0149,127.348 146.1642,126.8319 146.2909,126.3185 146.395,125.8079 146.4762,125.3003 146.5343,124.7957 146.5692,124.2943 146.5807,123.7962 146.5685,123.3016 146.5326,122.8105 146.4726,122.3232 146.3885,121.8396 146.28,121.36 146.281,121.36" stroke="blue" stroke-width="2" /><polyline fill="none" points="100.572,37.631 100.3647,36.5825 100.1284,35.5446 99.8636,34.5174 99.5704,33.501 99.2495,32.4954 98.9011,31.5006 98.5256,30.5166 98.1235,29.5436 97.695,28.5815 97.2406,27.6304 96.7607,26.6904 96.2556,25.7614 95.7257,24.8436 95.1714,23.937 94.5931,23.0416 93.9912,22.1574 93.366,21.2845 92.718,20.423 92.0694,19.5975 91.4079,18.7885 90.7337,17.9959 90.0467,17.2198 89.3469,16.4602 88.6344,15.7173 87.9091,14.991 87.1711,14.2814 86.4204,13.5885 85.657,12.9125 84.8809,12.2533 84.0921,11.611 83.2906,10.9856 82.4765,10.3773 81.6498,9.7859 80.8104,9.2117 79.9584,8.6546 79.0938,8.1147 78.2167,7.592 77.3269,7.0866 76.4246,6.5986 75.5097,6.1279 74.5823,5.6746 73.6424,5.2389 72.6899,4.8207 71.725,4.42 70.7063,4.0215 69.683,3.6465 68.655,3.295 67.6223,2.9675 66.5848,2.6641 65.5424,2.3852 64.4952,2.131 63.443,1.9018 62.3858,1.6979 61.3236,1.5195 60.2564,1.3669 59.1839,1.2403 58.1063,1.1401 57.0235,1.0665 55.9354,1.0198 54.8419,1.0002 53.743,1.008 52.6388,1.0435 51.529,1.107 50.443,1.1951 49.3661,1.3074 48.2985,1.444 47.2404,1.6048 46.1916,1.7899 45.1524,1.9992 44.1228,2.2328 43.1028,2.4906 42.0926,2.7728 41.0923,3.0792 40.1019,3.4099 39.1215,3.7649 38.1512,4.1442 37.191,4.5478 36.2411,4.9758 35.3015,5.428 34.3723,5.9047 33.4536,6.4056 32.5455,6.9309 31.648,7.4806 30.7612,8.0546 29.8852,8.653 29.0201,9.2758 28.166,9.923 27.3501,10.5728 26.5546,11.2385 25.7793,11.9198 25.0241,12.6166 24.289,13.3288 23.5739,14.0561 22.8787,14.7986 22.2033,15.5559 21.5477,16.328 20.9118,17.1146 20.2955,17.9158 19.6986,18.7312 19.1213,19.5607 18.5632,20.4043 18.0245,21.2617 17.5049,22.1328 17.0045,23.0175 16.5231,23.9156 16.0607,24.8268 15.6171,25.7512 15.1924,26.6885 14.7864,27.6387 14.399,28.6014 14.0302,29.5767 13.6799,30.5642 13.348,31.564 13.0316,32.5954 12.7428,33.6288 12.4807,34.6641 12.2443,35.7012 12.0328,36.7402 11.8452,37.7809 11.6805,38.8233 11.5379,39.8673 11.4163,40.9128 11.3149,41.9598 11.2327,43.0083 11.1689,44.058 11.1223,45.1091 11.0922,46.1614 11.0775,47.2148 11.0774,48.2694 11.0909,49.3249 11.1171,50.3815 11.1551,51.4389 11.2038,52.4972 11.2624,53.5562 11.33,54.616 11.4107,55.708 11.5043,56.7993 11.6105,57.8898 11.7287,58.9794 11.8583,60.0678 11.999,61.155 12.1502,62.2408 12.3113,63.325 12.482,64.4074 12.6617,65.488 12.8498,66.5666 13.046,67.643 13.2559,68.7582 13.4705,69.8727 13.6903,70.9863 13.9157,72.099 14.1471,73.2105 14.3848,74.3208 14.6294,75.4299 14.8811,76.5375 15.1405,77.6436 15.4079,78.748 15.6838,79.8507 15.9685,80.9515 16.2624,82.0503 16.566,83.147 16.8515,84.1477 17.1433,85.1456 17.4417,86.1409 17.7464,87.1334 18.0575,88.1233 18.3751,89.1105 18.6991,90.0949 19.0295,91.0767 19.3664,92.0558 19.7097,93.0322 20.0594,94.0059 20.4155,94.9769 20.7781,95.9452 21.1472,96.9108 21.5226,97.8738 21.9046,98.834 22.2929,99.7916 22.6877,100.7465 23.089,101.6987 23.4966,102.6482 23.9108,103.595 24.3314,104.5391 24.7584,105.4806 25.1919,106.4194 25.6319,107.3555 26.0783,108.2889 26.5312,109.2196 26.9905,110.1476 27.4563,111.073 27.9286,111.9957 28.4074,112.9157 28.8926,113.833 29.3842,114.7477 29.8824,115.6597 30.387,116.569 30.9871,117.6245 31.6008,118.6726 32.226,119.7144 32.8606,120.7507 33.5023,121.7826 34.149,122.811 35.387,124.727 36.1704,125.9208 36.977,127.1342 37.7169,128.2243 38.3,129.048 38.9421,129.9228 39.5799,130.8011 40.2162,131.6803 40.8539,132.5583 41.496,133.4327 42.1452,134.3011 42.8044,135.1613 43.4765,136.0108 44.1644,136.8473 44.8709,137.6686 45.599,138.4722 46.3515,139.2559 47.1312,140.0173 47.941,140.754 48.7972,141.4548 49.6701,142.0722 50.5577,142.6055 51.458,143.0542 52.369,143.4176 53.2887,143.6953 54.2152,143.8866 55.1464,143.991 56.0805,144.0078 57.0154,143.9366 57.9491,143.7768 58.8797,143.5277 59.8051,143.1888 60.7234,142.7596 61.6327,142.2395 62.5309,141.6278 63.416,140.924 64.2394,140.1902 65.0284,139.4281 65.7854,138.6397 66.5127,137.8272 67.2126,136.9926 67.8873,136.138 68.5391,135.2656 69.1704,134.3774 69.7835,133.4755 70.3805,132.562 70.9639,131.6391 71.5359,130.7087 72.0989,129.7729 72.655,128.834 73.2265,127.8515 73.7841,126.8694 74.3292,125.8872 74.8631,124.9047 75.3871,123.9212 75.9025,122.9365 76.4107,121.95 76.9129,120.9614 77.4104,119.9701 77.9046,118.9759 78.3968,117.9782 78.8882,116.9766 79.3802,115.9708 79.8742,114.9602 80.3713,113.9444 80.873,112.923 82.081,110.555 82.7612,109.2465 83.4346,107.9566 84.0771,106.7237 84.6648,105.5864 85.1734,104.583 85.579,103.752 86.0225,102.8051 86.4591,101.8556 86.8891,100.9035 87.3126,99.949 87.7298,98.992 88.1409,98.0328 88.5461,97.0713 88.9457,96.1077 89.3397,95.1419 89.7285,94.1742 90.1121,93.2046 90.4908,92.2332 90.8649,91.26 91.2344,90.2851 91.5996,89.3087 91.9606,88.3307 92.3178,87.3513 92.6712,86.3706 93.021,85.3886 93.3675,84.4054 93.7109,83.4211 94.0514,82.4358 94.389,81.4496 94.7242,80.4625 95.0569,79.4746 95.3875,78.486 95.7161,77.4968 96.043,76.507 96.3791,75.4718 96.7065,74.4332 97.0249,73.3914 97.3343,72.3465 97.6344,71.2985 97.9249,70.2476 98.2056,69.1938 98.4764,68.1373 98.737,67.0781 98.9872,66.0164 99.2267,64.9522 99.4554,63.8857 99.6731,62.817 99.8795,61.7461 100.0744,60.6731 100.2576,59.5982 100.4289,58.5215 100.588,57.443 100.7369,56.346 100.8723,55.2473 100.9935,54.147 101.0996,53.0455 101.19,51.943 101.2638,50.8396 101.3202,49.7358 101.3584,48.6317 101.3777,47.5275 101.3773,46.4236 101.3564,45.3201 101.3142,44.2174 101.2499,43.1156 101.1628,42.015 101.052,40.916 100.9168,39.8186 100.7564,38.7232 100.57,37.63 100.572,37.631" stroke="red" stroke-width="2" /><polyline fill="none" points="46.825,25.11 47.7766,24.5338 48.7504,24.0137 49.7452,23.5481 50.7598,23.1356 51.7931,22.7746 52.844,22.4636 53.9112,22.2009 54.9938,21.9851 56.0904,21.8147 57.2,21.688 57.389,21.688 59.4051,21.6497 61.341,21.937 62.4704,22.2522 63.5425,22.6206 64.5579,23.0395 65.5174,23.5068 66.4215,24.0198 67.271,24.5762 68.0665,25.1735 68.8087,25.8093 69.4982,26.4812 70.1357,27.1866 70.7218,27.9233 71.2573,28.6888 71.7428,29.4806 72.179,30.2962 72.5664,31.1334 72.9058,31.9895 73.1979,32.8623 73.4433,33.7492 73.6426,34.6479 73.7966,35.5558 73.9059,36.4706 73.9711,37.3898 73.993,38.311 73.9714,39.401 73.9058,40.474 73.7963,41.5299 73.6431,42.5682 73.4465,43.5886 73.2064,44.5909 72.9232,45.5747 72.597,46.5397 72.2279,47.4856 71.8162,48.412 71.3619,49.3187 70.8653,50.2053 70.3266,51.0715 69.7458,51.917 69.1233,52.7415 68.459,53.5447 67.7533,54.3262 67.0062,55.0858 66.218,55.823 65.3798,56.5448 64.522,57.2201 63.644,57.846 62.7454,58.4197 61.8256,58.9381 60.8839,59.3984 59.9199,59.7977 58.933,60.133 57.9227,60.4013 56.8884,60.5999 55.8296,60.7257 54.7457,60.7758 53.6362,60.7474 52.5005,60.6374 51.338,60.443 50.3502,60.2163 49.3887,59.9412 48.4547,59.619 47.5492,59.2513 46.6733,58.8393 45.8281,58.3846 45.0146,57.8885 44.234,57.3524 43.4874,56.7777 42.7757,56.1658 42.1002,55.5182 41.4619,54.8362 40.8619,54.1213 40.3012,53.3747 39.781,52.5981 39.3023,51.7927 38.8663,50.96 38.4739,50.1013 38.1264,49.2181 37.8247,48.3118 37.57,47.3838 37.3634,46.4354 37.2059,45.4682 37.0986,44.4834 37.0426,43.4825 37.039,42.467 37.0878,41.3662 37.1839,40.2883 37.3272,39.2337 37.5175,38.2026 37.7547,37.1953 38.0386,36.212 38.369,35.253 38.7457,34.3184 39.1687,33.4087 39.6377,32.524 40.1527,31.6646 40.7133,30.8307 41.3195,30.0227 41.9711,29.2406 42.6679,28.4849 43.4098,27.7558 44.1967,27.0535 45.0282,26.3782 45.9044,25.7303 46.825,25.11 46.825,25.11" stroke="red" stroke-width="2" /></svg>