<?xml version="1.0" encoding="utf-8" ?>
<svg baseProfile="full" height="249px" version="1.1" width="238px" xmlns="http://www.w3.org/2000/svg" xmlns:ev="http://www.w3.org/2001/xml-events" xmlns:xlink="http://www.w3.org/1999/xlink"><defs /><polyline fill="none" points="39.202999114990234,67.87899780273438 39.734317779541016,68.48707580566406 40.27757263183594,69.0590591430664 40.83230209350586,69.5964126586914 41.39803695678711,70.10062408447266 41.97431564331055,70.57315826416016 42.5606689453125,71.01549530029297 43.156639099121094,71.4291000366211 43.761756896972656,71.81544494628906 44.37555694580078,72.17601013183594 44.99757385253906,72.51226043701172 45.627342224121094,72.82567596435547 46.264400482177734,73.11772918701172 46.90827941894531,73.38988494873047 47.55852127075195,73.64362335205078 48.21464920043945,73.88041687011719 48.8762092590332,74.10173797607422 49.54273223876953,74.3090591430664 50.21375274658203,74.50385284423828 50.8888053894043,74.68759155273438 51.56742477416992,74.86174774169922 52.249149322509766,75.02780151367188 52.933509826660156,75.18721008300781 53.62004470825195,75.34146118164062 54.30828857421875,75.49202728271484 54.99777603149414,75.64037322998047 55.68803787231445,75.78797149658203 56.37861251831055,75.9363021850586 57.06903839111328,76.08683776855469 57.758846282958984,76.24104309082031 58.44757080078125,76.40039825439453 59.13475036621094,76.56637573242188 59.819915771484375,76.74044799804688 60.50260543823242,76.92407989501953 61.18235397338867,77.11875915527344 61.85869598388672,77.3259506225586 62.53116226196289,77.54712677001953 63.19929504394531,77.78376007080078 63.86262512207031,78.03732299804688 64.52069091796875,78.30929565429688 65.17301940917969,78.60114288330078 65.81915283203125,78.91434478759766 66.45862579345703,79.2503662109375 67.09097290039062,79.61067962646484 67.71572875976562,79.99676513671875 68.3324203491211,80.41009521484375 68.94059753417969,80.85214233398438 69.53978729248047,81.32437133789062 70.12952423095703,81.82826232910156 70.70934295654297,82.36528778076172 71.27877807617188,82.93692779541016 71.83737182617188,83.54463958740234 72.38465118408203,84.18990325927734 72.92015075683594,84.87419128417969 73.44341278076172,85.59898376464844 73.95396423339844,86.3657455444336 74.45134735107422,87.17594909667969 74.93509674072266,88.03107452392578 75.40473937988281,88.93258666992188 75.85981750488281,89.88196563720703 76.29986572265625,90.88067626953125 76.72441101074219,91.9301986694336 77.13300323486328,93.03199768066406 77.40303039550781,93.84593963623047 77.64759063720703,94.6915054321289 77.8672866821289,95.56690216064453 78.06272888183594,96.4703140258789 78.23453521728516,97.39991760253906 78.3833236694336,98.35391235351562 78.50968933105469,99.33048248291016 78.61425018310547,100.32781219482422 78.6976318359375,101.34408569335938 78.76042938232422,102.37750244140625 78.80326080322266,103.42623901367188 78.82673645019531,104.48848724365234 78.83147430419922,105.56243133544922 78.81808471679688,106.6462631225586 78.78717041015625,107.73817443847656 78.7393569946289,108.83634185791016 78.67524719238281,109.93894958496094 78.595458984375,111.04420471191406 78.50060272216797,112.15027618408203 78.39128112792969,113.25536346435547 78.26811981201172,114.3576431274414 78.13172149658203,115.45530700683594 77.98271179199219,116.54654693603516 77.82168579101562,117.62954711914062 77.64926147460938,118.7024917602539 77.46604919433594,119.76358032226562 77.27267456054688,120.81098175048828 77.06973266601562,121.8428955078125 76.85784149169922,122.85750579833984 76.63761138916016,123.8530044555664 76.40966033935547,124.82757568359375 76.17459106445312,125.77940368652344 75.93302917480469,126.70668029785156 75.68557739257812,127.60758972167969 75.43284606933594,128.48031616210938 75.17544555664062,129.32305908203125 74.91400146484375,130.13400268554688 74.53195190429688,131.24058532714844 74.1364517211914,132.29673767089844 73.72777557373047,133.3037567138672 73.30620574951172,134.2629852294922 72.87201690673828,135.17572021484375 72.42549133300781,136.0432891845703 71.96691131591797,136.8669891357422 71.49655151367188,137.64816284179688 71.01469421386719,138.38812255859375 70.52161407470703,139.0881805419922 70.01758575439453,139.74964904785156 69.50289916992188,140.3738555908203 68.97782135009766,140.96209716796875 68.44264221191406,141.51571655273438 67.89763641357422,142.03602600097656 67.34308624267578,142.5243377685547 66.77925872802734,142.98194885253906 66.2064437866211,143.41021728515625 65.62491607666016,143.8104248046875 65.03495025634766,144.1839141845703 64.43683624267578,144.531982421875 63.830848693847656,144.85595703125 63.217262268066406,145.1571502685547 62.59635925292969,145.43687438964844 61.968414306640625,145.69647216796875 61.33371353149414,145.93722534179688 60.692527770996094,146.16049194335938 60.04513931274414,146.36753845214844 59.39183044433594,146.55972290039062 58.73287582397461,146.7383575439453 58.06855773925781,146.9047393798828 57.39915084838867,147.06021118164062 56.72493362426758,147.2060546875 56.04618835449219,147.3436279296875 55.36319351196289,147.47421264648438 54.67622756958008,147.59915161132812 53.98556900024414,147.71975708007812 53.29149627685547,147.8373260498047 52.59428787231445,147.9532012939453 51.894222259521484,148.06869506835938 51.19158172607422,148.18511962890625 50.48664093017578,148.3037872314453 49.77968215942383,148.42601013183594 49.07098388671875,148.55313110351562 48.36082077026367,148.6864471435547 47.64947509765625,148.8272705078125 46.937225341796875,148.9769287109375 46.22434997558594,149.13674926757812 45.511131286621094,149.3080291748047 44.7978401184082,149.49209594726562 44.08476257324219,149.6902618408203 43.37217712402344,149.9038543701172 42.66035842895508,150.13418579101562 41.9495849609375,150.382568359375 41.240142822265625,150.6503143310547 40.53230285644531,150.93875122070312 39.82634735107422,151.2491912841797 39.122554779052734,151.5829620361328 38.42120361328125,151.9413604736328 37.72257614135742,152.3257293701172 37.026947021484375,152.73736572265625 36.3345947265625,153.17759704589844 35.64580154418945,153.64773559570312 34.96084213256836,154.1490936279297 34.279998779296875,154.68299865722656 33.13000000000002,155.65600000000003 39.202999114990234,67.87899780273438" stroke="red" stroke-width="2" /><polyline fill="none" points="170.73899841308594,69.3479995727539 170.1128387451172,70.08820343017578 169.47776794433594,70.7878646850586 168.8339385986328,71.4481430053711 168.18154907226562,72.07019805908203 167.52076721191406,72.65519714355469 166.8517608642578,73.20429229736328 166.1747283935547,73.7186508178711 165.4898223876953,74.19943237304688 164.7972412109375,74.64779663085938 164.09715270996094,75.06491088867188 163.3897247314453,75.4519271850586 162.67515563964844,75.81001281738281 161.95359802246094,76.14032745361328 161.22523498535156,76.44403076171875 160.49026489257812,76.7222900390625 159.74884033203125,76.97625732421875 159.0011444091797,77.20710754394531 158.2473602294922,77.41598510742188 157.48765563964844,77.60405731201172 156.7222137451172,77.77249145507812 155.95120239257812,77.92243957519531 155.17481994628906,78.0550765991211 154.39321899414062,78.17154693603516 153.60658264160156,78.27302551269531 152.81509399414062,78.36065673828125 152.01893615722656,78.43562316894531 151.21826171875,78.49906921386719 150.41326904296875,78.55216979980469 149.6041259765625,78.59607696533203 148.791015625,78.63195037841797 147.97410583496094,78.66094970703125 147.15359497070312,78.68424987792969 146.32962036132812,78.7030029296875 145.5023956298828,78.7183609008789 144.67208862304688,78.73150634765625 143.83885192871094,78.74358367919922 143.00289916992188,78.75575256347656 142.1643829345703,78.7691879272461 141.323486328125,78.78504180908203 140.4803924560547,78.80448150634766 139.63526916503906,78.82865905761719 138.78829956054688,78.8587417602539 137.9396514892578,78.89588928222656 137.0895233154297,78.9412612915039 136.23806762695312,78.99601745605469 135.38546752929688,79.06133270263672 134.53189086914062,79.13835144042969 133.6775360107422,79.22824096679688 132.82257080078125,79.33216094970703 131.96717834472656,79.45127868652344 131.1115264892578,79.58675384521484 130.2557830810547,79.73973846435547 129.400146484375,79.9113998413086 128.54476928710938,80.1029052734375 127.68985748291016,80.3154067993164 126.83556365966797,80.5500717163086 125.9820785522461,80.80805206298828 125.12956237792969,81.09052276611328 124.27821350097656,81.39863586425781 123.4281997680664,81.73355102539062 122.5796890258789,82.096435546875 121.73287200927734,82.48844909667969 120.8879165649414,82.91075134277344 120.04499816894531,83.364501953125 119.20429992675781,83.85086059570312 118.36599731445312,84.37100219726562 117.52057647705078,84.92732238769531 116.69610595703125,85.49707794189453 115.89254760742188,86.07994842529297 115.10987854003906,86.67559814453125 114.3480453491211,87.2837142944336 113.60702514648438,87.90396118164062 112.88677978515625,88.53601837158203 112.18727111816406,89.17955780029297 111.50846099853516,89.83425903320312 110.8503189086914,90.49979400634766 110.21280670166016,91.17582702636719 109.59589385986328,91.86205291748047 108.9995346069336,92.5581283569336 108.42369842529297,93.26373291015625 107.86834716796875,93.97854614257812 107.33345031738281,94.70223236083984 106.81896209716797,95.43447875976562 106.32485961914062,96.1749496459961 105.8510971069336,96.92332458496094 105.39765167236328,97.67927551269531 104.96446990966797,98.44247436523438 104.55152893066406,99.21260833740234 104.15878295898438,99.98933410644531 103.78620147705078,100.7723388671875 103.43375396728516,101.56129455566406 103.10140228271484,102.35587310791016 102.78910064697266,103.15574645996094 102.496826171875,103.96060180664062 102.22453308105469,104.77009582519531 101.9721908569336,105.58391571044922 101.7397689819336,106.40172576904297 101.5272216796875,107.22321319580078 101.33451843261719,108.04804229736328 101.16161346435547,108.87589263916016 101.00849151611328,109.70643615722656 100.8750991821289,110.53935241699219 100.76140594482422,111.37430572509766 100.66737365722656,112.21098327636719 100.59297943115234,113.0490493774414 100.53816986083984,113.88817596435547 100.50291442871094,114.7280502319336 100.4871826171875,115.5683364868164 100.49093627929688,116.40872192382812 100.5141372680664,117.24886322021484 100.55675506591797,118.08843994140625 100.6187515258789,118.92713928222656 100.70008087158203,119.76461791992188 100.80072021484375,120.6005630493164 100.9206314086914,121.43464660644531 101.05977630615234,122.26654052734375 101.21812438964844,123.09591674804688 101.3956298828125,123.92245483398438 101.5922622680664,124.7458267211914 101.8079833984375,125.56571197509766 102.04276275634766,126.38177490234375 102.29656219482422,127.19369506835938 102.56934356689453,128.0011444091797 102.86107635498047,128.80381774902344 103.17171478271484,129.6013641357422 103.50123596191406,130.39346313476562 103.84959411621094,131.17979431152344 104.21675872802734,131.96002197265625 104.60269165039062,132.7338409423828 105.00736236572266,133.5009002685547 105.43072509765625,134.26089477539062 105.87274932861328,135.0135040283203 106.3333969116211,135.7583770751953 106.81263732910156,136.4951934814453 107.31043243408203,137.22364807128906 107.82675170898438,137.9434051513672 108.3615493774414,138.6541290283203 108.91478729248047,139.3555145263672 109.48644256591797,140.04721069335938 110.07647705078125,140.72891235351562 110.68484497070312,141.40028381347656 111.31151580810547,142.06100463867188 111.95645904541016,142.71075439453125 112.61962890625,143.3491973876953 113.3010025024414,143.9759979248047 114.00701904296875,144.5908660888672 114.72712707519531,145.17947387695312 115.46073913574219,145.74285888671875 116.20731353759766,146.2821044921875 116.96626281738281,146.79823303222656 117.73704528808594,147.2923126220703 118.51908111572266,147.765380859375 119.31180572509766,148.21849060058594 120.11466217041016,148.65269470214844 120.92707824707031,149.06906127929688 121.74849700927734,149.46861267089844 122.5783462524414,149.85240173339844 123.41606903076172,150.2215118408203 124.26109313964844,150.5769500732422 125.11286163330078,150.9197998046875 125.9708023071289,151.2510986328125 126.83435821533203,151.5718994140625 127.70295715332031,151.8832550048828 128.57603454589844,152.18621826171875 129.45303344726562,152.48182678222656 130.33338928222656,152.77114868164062 131.21652221679688,153.0552215576172 132.1018829345703,153.33509826660156 132.98890686035156,153.61183166503906 133.87701416015625,153.88645935058594 134.7656707763672,154.16006469726562 135.65426635742188,154.4336700439453 136.5422821044922,154.70834350585938 137.4291229248047,154.98512268066406 138.31423950195312,155.2650604248047 139.1970672607422,155.54922485351562 140.0770263671875,155.83863830566406 140.9535675048828,156.13436889648438 141.82611083984375,156.4374542236328 142.69410705566406,156.74896240234375 143.55699157714844,157.0699462890625 144.41419982910156,157.4014434814453 145.26515197753906,157.74449157714844 146.1092987060547,158.1001739501953 146.94606018066406,158.4695281982422 147.77488708496094,158.8535919189453 148.59521484375,159.25341796875 149.40646362304688,159.67007446289062 150.2080841064453,160.1046142578125 150.99951171875,160.5580596923828 151.78016662597656,161.031494140625 152.54949951171875,161.52593994140625 153.3069305419922,162.04246520996094 154.05191040039062,162.58212280273438 154.78387451171875,163.14593505859375 155.5022430419922,163.73500061035156 156.2064666748047,164.35032653808594 156.89596557617188,164.9929962158203 157.5701904296875,165.66403198242188 158.22857666015625,166.364501953125 158.87054443359375,167.095458984375 159.49554443359375,167.85794067382812 160.10299682617188,168.6529998779297 160.739,169.349 170.73899841308594,69.3479995727539" stroke="green" stroke-width="2" /><polyline fill="none" points="21.5,114.50000000000001 21.506174449190155,113.49373386057098 21.524696866911256,112.48761926112121 21.55556446375533,111.4818077188086 21.59877259117586,110.47645070515175 21.654314742187765,109.47169962321892 21.722182552347405,108.46770578482726 21.8023658010122,107.46462038775593 21.894852412879857,106.46259449297602 21.9996284598068,105.46177900190159 22.116678162905785,104.46232463366428 22.245983894922034,103.46438190241567 22.387526182887953,102.46810109466035 22.541283711055613,101.47363224662338 22.70723332410681,100.48112512165532 22.885350030640254,99.49072918767847 23.0756070069351,98.50259359467748 23.27797560099053,97.51686715223808 23.492425336840654,96.53369830713667 23.71892391914406,95.55323512098497 23.95743723804739,94.57562524793236 24.20792937432212,93.60101591242982 24.470362604773925,92.62955388705834 24.744697407923596,91.66138547042567 25.03089246995887,90.69665646513411 25.328904690956094,89.73551215582332 25.638689191370986,88.77809728729092 25.96019931879725,87.82455604269444 26.29338665499229,86.87503202183795 26.638201023168847,85.92966821954636 26.994590495551407,84.98860700413098 27.362501401196326,84.05199009594934 27.741878334074485,83.11995854606265 28.132664161415263,82.19265271499407 28.53480003231047,81.27021225159085 28.94822538657715,80.35277607199377 29.37287796387764,79.44048233871689 29.808693813095772,78.53346843984076 30.255607301967743,77.63187096832226 30.71355112696598,76.73582570142432 31.18245632343489,75.84546758026819 31.662252275976655,74.96093068951194 32.15286672908566,74.08234823715772 32.654225798029884,73.20985253449118 33.16625397997768,72.34357497615584 33.68887416536825,71.48364602036557 34.222007649524,70.63019516925806 34.76557414450329,69.78335094939217 35.31949179119127,68.94324089239264 35.88367717162792,68.10999151574372 36.45804532157014,67.28372830373668 37.042509743287226,66.46457568857201 37.63698241858711,65.65265703162046 38.24137382207154,64.84809460484531 38.85559293461829,64.05100957238861 39.47954725708824,63.26152197232433 40.113142824255554,62.479750698581086 40.756284218958356,61.70581348303712 41.40887458646827,60.939826877790296 42.070815649076316,60.18190623760594 42.742007720893355,59.43216570254449 43.42234972286214,58.690718180772855 44.11173919797971,57.95767533156052 44.81007232672687,57.23314754846423 45.51724394270309,56.51724394270311 46.23314754846421,55.810072326726875 46.9576753315605,55.11173919797972 47.69071818077283,54.422349722862165 48.43216570254447,53.74200772089337 49.18190623760592,53.07081564907633 49.93982687779028,52.408874586468286 50.7058134830371,51.75628421895836 51.47975069858104,51.1131428242556 52.26152197232431,50.47954725708826 53.051009572388566,49.855592934618315 53.84809460484529,49.24137382207155 54.652657031620485,48.63698241858711 55.464575688572,48.04250974328724 56.283728303736694,47.458045321570125 57.109991515743694,46.88367717162794 57.94324089239262,46.3194917911913 58.783350949392165,45.76557414450329 59.63019516925802,45.22200764952403 60.483646020365576,44.68887416536825 61.343574976155814,44.1662539799777 62.20985253449112,43.65422579802991 63.082348237157696,43.15286672908567 63.96093068951195,42.662252275976655 64.84546758026818,42.18245632343489 65.73582570142433,41.71355112696597 66.63187096832223,41.25560730196776 67.53346843984073,40.808693813095786 68.44048233871683,40.37287796387767 69.35277607199376,39.948225386577164 70.27021225159086,39.53480003231047 71.19265271499404,39.13266416141528 72.11995854606259,38.7418783340745 73.05199009594931,38.362501401196326 73.98860700413098,37.99459049555141 74.92966821954634,37.63820102316886 75.87503202183797,37.29338665499229 76.82455604269441,36.960199318797265 77.7780972872909,36.638689191370986 78.73551215582326,36.32890469095611 79.69665646513408,36.03089246995887 80.66138547042567,35.744697407923596 81.62955388705832,35.47036260477394 82.60101591242976,35.207929374322134 83.57562524793235,34.95743723804739 84.55323512098498,34.71892391914406 85.53369830713666,34.49242533684067 86.51686715223809,34.27797560099053 87.50259359467745,34.075607006935115 88.49072918767844,33.88535003064027 89.48112512165527,33.707233324106824 90.47363224662335,33.54128371105561 91.46810109466037,33.38752618288795 92.46438190241564,33.245983894922034 93.46232463366422,33.116678162905785 94.46177900190156,32.9996284598068 95.46259449297604,32.89485241287986 96.4646203877559,32.8023658010122 97.46770578482727,32.722182552347405 98.47169962321887,32.654314742187765 99.47645070515172,32.59877259117586 100.48180771880854,32.555564463755346 101.48761926112118,32.524696866911256 102.49373386057098,32.506174449190155 103.49999999999999,32.5 104.50626613942897,32.506174449190155 105.51238073887879,32.524696866911256 106.51819228119143,32.55556446375533 107.52354929484825,32.59877259117586 108.5283003767811,32.654314742187765 109.5322942151727,32.722182552347405 110.53537961224407,32.8023658010122 111.53740550702392,32.89485241287986 112.5382209980984,32.9996284598068 113.53767536633575,33.116678162905785 114.53561809758433,33.245983894922034 115.5318989053396,33.38752618288795 116.52636775337662,33.54128371105561 117.5188748783447,33.707233324106824 118.50927081232153,33.885350030640254 119.49740640532252,34.0756070069351 120.48313284776188,34.27797560099053 121.46630169286331,34.492425336840654 122.44676487901499,34.71892391914406 123.42437475206762,34.95743723804739 124.39898408757021,35.207929374322134 125.37044611294165,35.470362604773925 126.3386145295743,35.74469740792358 127.30334353486589,36.03089246995887 128.2644878441767,36.32890469095611 129.22190271270907,36.638689191370986 130.17544395730556,36.96019931879725 131.124967978162,37.29338665499229 132.0703317804536,37.63820102316885 133.011392995869,37.99459049555139 133.94800990405065,38.362501401196326 134.8800414539374,38.7418783340745 135.80734728500593,39.13266416141525 136.7297877484091,39.53480003231047 137.6472239280062,39.94822538657715 138.55951766128314,40.37287796387764 139.46653156015924,40.80869381309577 140.36812903167774,41.25560730196774 141.2641742985757,41.713551126965996 142.1545324197318,42.18245632343489 143.03906931048803,42.66225227597663 143.91765176284227,43.15286672908566 144.79014746550885,43.6542257980299 145.65642502384418,44.16625397997768 146.5163539796344,44.68887416536823 147.36980483074194,45.222007649524 148.21664905060783,45.76557414450329 149.05675910760735,46.31949179119127 149.89000848425627,46.88367717162792 150.71627169626333,47.458045321570154 151.535424311428,48.042509743287226 152.3473429683795,48.63698241858708 153.15190539515467,49.24137382207154 153.94899042761142,49.8555929346183 154.73847802767565,50.47954725708823 155.5202493014189,51.11314282425553 156.29418651696287,51.75628421895835 157.0601731222097,52.408874586468265 157.81809376239406,53.070815649076316 158.5678342974555,53.742007720893355 159.30928181922718,54.422349722862165 160.04232466843948,55.11173919797971 160.76685245153573,55.81007232672683 161.48275605729688,56.51724394270309 162.18992767327313,57.23314754846424 162.88826080202028,57.957675331560495 163.57765027713782,58.6907181807728 164.25799227910662,59.43216570254447 164.92918435092366,60.181906237605915 165.5911254135317,60.93982687779028 166.24371578104163,61.7058134830371 166.88685717574447,62.479750698581086 167.52045274291174,63.26152197232431 168.1444070653817,64.05100957238855 168.75862617792842,64.8480946048453 169.3630175814129,65.65265703162046 169.95749025671276,66.464575688572 170.54195467842982,67.28372830373664 171.11632282837206,68.10999151574369 171.6805082088087,68.94324089239262 172.23442585549668,69.78335094939217 172.77799235047598,70.63019516925803 173.31112583463175,71.48364602036557 173.83374602002232,72.34357497615581 174.34577420197007,73.20985253449112 174.84713327091433,74.08234823715769 175.33774772402336,74.96093068951194 175.8175436765651,75.84546758026816 176.28644887303398,76.73582570142426 176.74439269803224,77.63187096832223 177.19130618690423,78.53346843984073 177.62712203612233,79.44048233871683 178.05177461342282,80.35277607199374 178.46519996768953,81.27021225159086 178.86733583858472,82.19265271499404 179.2581216659255,83.11995854606259 179.6374985988037,84.0519900959493 180.0054095044486,84.98860700413098 180.36179897683115,85.92966821954634 180.70661334500767,86.8750320218379 181.03980068120273,87.82455604269441 181.361310808629,88.77809728729089 181.6710953090439,89.73551215582326 181.96910753004113,90.69665646513408 182.25530259207642,91.66138547042567 182.52963739522608,92.62955388705831 182.79207062567787,93.60101591242974 183.0425627619526,94.57562524793234 183.28107608085594,95.55323512098498 183.50757466315935,96.53369830713665 183.72202439900946,97.516867152238 183.92439299306488,98.50259359467745 184.11464996935973,99.49072918767844 184.29276667589318,100.48112512165525 184.4587162889444,101.47363224662335 184.61247381711206,102.46810109466035 184.75401610507797,103.46438190241564 184.88332183709423,104.46232463366421 185.0003715401932,105.46177900190156 185.10514758712014,106.46259449297604 185.1976341989878,107.4646203877559 185.27781744765258,108.4677057848272 185.34568525781225,109.47169962321892 185.40122740882413,110.47645070515172 185.44443553624467,111.48180771880853 185.47530313308874,112.48761926112118 185.49382555080985,113.49373386057098 185.5,114.49999999999999 185.49382555080985,115.50626613942903 185.47530313308874,116.5123807388788 185.44443553624467,117.51819228119142 185.40122740882413,118.52354929484828 185.34568525781225,119.5283003767811 185.27781744765258,120.53229421517273 185.1976341989878,121.53537961224407 185.10514758712014,122.53740550702398 185.0003715401932,123.53822099809841 184.88332183709423,124.53767536633573 184.75401610507797,125.53561809758435 184.61247381711206,126.53189890533966 184.4587162889444,127.52636775337663 184.29276667589318,128.5188748783447 184.11464996935973,129.50927081232155 183.92439299306488,130.49740640532252 183.72202439900946,131.4831328477619 183.50757466315935,132.4663016928633 183.28107608085594,133.44676487901503 183.0425627619526,134.42437475206765 182.79207062567787,135.3989840875702 182.52963739522608,136.37044611294166 182.2553025920764,137.33861452957436 181.96910753004113,138.30334353486592 181.6710953090439,139.2644878441767 181.361310808629,140.2219027127091 181.03980068120273,141.17544395730556 180.70661334500772,142.12496797816203 180.36179897683115,143.07033178045364 180.0054095044486,144.01139299586902 179.6374985988037,144.94800990405068 179.2581216659255,145.88004145393737 178.86733583858472,146.80734728500596 178.4651999676895,147.72978774840917 178.05177461342282,148.64722392800624 177.62712203612236,149.55951766128314 177.19130618690423,150.46653156015927 176.74439269803224,151.36812903167774 176.28644887303403,152.26417429857568 175.8175436765651,153.15453241973182 175.33774772402336,154.03906931048806 174.84713327091436,154.9176517628423 174.34577420197013,155.79014746550882 173.83374602002232,156.65642502384418 173.31112583463175,157.51635397963446 172.77799235047598,158.36980483074197 172.23442585549674,159.21664905060783 171.6805082088087,160.05675910760738 171.11632282837206,160.89000848425627 170.54195467842987,161.71627169626333 169.9574902567128,162.535424311428 169.3630175814129,163.34734296837954 168.75862617792845,164.1519053951547 168.1444070653817,164.9489904276114 167.52045274291174,165.73847802767568 166.88685717574444,166.52024930141891 166.24371578104163,167.2941865169629 165.59112541353173,168.0601731222097 164.92918435092366,168.81809376239408 164.25799227910665,169.5678342974555 163.57765027713785,170.30928181922715 162.88826080202028,171.04232466843948 162.18992767327313,171.76685245153578 161.4827560572969,172.48275605729688 160.76685245153578,173.18992767327313 160.0423246684395,173.88826080202028 159.30928181922715,174.57765027713785 158.5678342974555,175.25799227910665 157.81809376239408,175.92918435092366 157.0601731222097,176.59112541353173 156.2941865169629,177.24371578104163 155.52024930141891,177.88685717574444 154.73847802767568,178.52045274291174 153.9489904276114,179.1444070653817 153.1519053951547,179.75862617792845 152.34734296837954,180.36301758141286 151.535424311428,180.9574902567128 150.71627169626333,181.54195467842987 149.89000848425627,182.11632282837206 149.05675910760738,182.6805082088087 148.21664905060783,183.2344258554967 147.36980483074197,183.77799235047598 146.51635397963446,184.31112583463175 145.65642502384418,184.83374602002232 144.79014746550882,185.34577420197013 143.9176517628423,185.84713327091433 143.03906931048806,186.33774772402336 142.15453241973182,186.8175436765651 141.26417429857568,187.28644887303403 140.36812903167774,187.74439269803224 139.46653156015927,188.19130618690423 138.55951766128314,188.62712203612236 137.64722392800627,189.05177461342282 136.72978774840917,189.4651999676895 135.80734728500596,189.86733583858472 134.88004145393737,190.2581216659255 133.94800990405068,190.6374985988037 133.01139299586904,191.00540950444858 132.0703317804536,191.36179897683115 131.12496797816203,191.70661334500772 130.17544395730556,192.03980068120273 129.2219027127091,192.361310808629 128.2644878441767,192.6710953090439 127.30334353486592,192.96910753004113 126.33861452957436,193.2553025920764 125.37044611294166,193.52963739522608 124.3989840875702,193.79207062567787 123.42437475206765,194.0425627619526 122.44676487901505,194.28107608085594 121.46630169286333,194.50757466315935 120.48313284776192,194.72202439900946 119.49740640532252,194.92439299306488 118.50927081232157,195.11464996935973 117.51887487834472,195.29276667589318 116.52636775337663,195.4587162889444 115.53189890533966,195.61247381711206 114.53561809758435,195.75401610507797 113.53767536633573,195.88332183709423 112.53822099809842,196.0003715401932 111.53740550702398,196.10514758712014 110.53537961224407,196.1976341989878 109.53229421517273,196.27781744765258 108.5283003767811,196.34568525781225 107.52354929484828,196.40122740882413 106.51819228119143,196.44443553624467 105.5123807388788,196.47530313308874 104.50626613942903,196.49382555080985 103.5,196.5 102.49373386057097,196.49382555080985 101.48761926112121,196.47530313308874 100.48180771880857,196.44443553624467 99.47645070515172,196.40122740882413 98.4716996232189,196.34568525781225 97.46770578482727,196.27781744765258 96.46462038775594,196.1976341989878 95.46259449297602,196.10514758712014 94.46177900190159,196.0003715401932 93.46232463366428,195.88332183709423 92.46438190241565,195.75401610507797 91.46810109466034,195.61247381711206 90.47363224662337,195.4587162889444 89.4811251216553,195.29276667589318 88.49072918767844,195.11464996935973 87.50259359467749,194.92439299306488 86.51686715223809,194.72202439900946 85.53369830713669,194.50757466315935 84.55323512098497,194.28107608085594 83.57562524793236,194.0425627619526 82.6010159124298,193.79207062567787 81.62955388705834,193.52963739522608 80.66138547042566,193.25530259207642 79.6966564651341,192.96910753004113 78.7355121558233,192.6710953090439 77.7780972872909,192.361310808629 76.82455604269444,192.03980068120273 75.87503202183797,191.70661334500772 74.92966821954639,191.36179897683115 73.98860700413097,191.00540950444858 73.05199009594932,190.6374985988037 72.11995854606263,190.2581216659255 71.19265271499407,189.86733583858472 70.27021225159083,189.4651999676895 69.35277607199376,189.05177461342285 68.44048233871689,188.62712203612236 67.53346843984076,188.19130618690423 66.63187096832225,187.74439269803224 65.73582570142432,187.28644887303403 64.84546758026819,186.8175436765651 63.96093068951193,186.33774772402336 63.08234823715771,185.84713327091436 62.20985253449117,185.34577420197013 61.34357497615582,184.83374602002232 60.48364602036556,184.31112583463175 59.630195169258045,183.77799235047598 58.78335094939221,183.23442585549674 57.94324089239264,182.6805082088087 57.10999151574371,182.11632282837206 56.28372830373668,181.54195467842987 55.46457568857201,180.9574902567128 54.652657031620464,180.3630175814129 53.848094604845315,179.75862617792845 53.0510095723886,179.1444070653817 52.26152197232433,178.52045274291174 51.47975069858108,177.88685717574444 50.70581348303712,177.24371578104166 49.939826877790324,176.59112541353176 49.18190623760591,175.92918435092366 48.43216570254449,175.25799227910665 47.69071818077284,174.57765027713785 46.95767533156051,173.88826080202028 46.23314754846423,173.18992767327313 45.51724394270311,172.4827560572969 44.810072326726875,171.76685245153578 44.11173919797972,171.0423246684395 43.42234972286216,170.30928181922718 42.74200772089337,169.56783429745553 42.07081564907635,168.8180937623941 41.408874586468265,168.0601731222097 40.75628421895836,167.2941865169629 40.11314282425557,166.52024930141891 39.47954725708826,165.73847802767568 38.85559293461829,164.94899042761142 38.24137382207155,164.1519053951547 37.636982418587124,163.34734296837954 37.04250974328724,162.535424311428 36.45804532157014,161.71627169626333 35.88367717162794,160.8900084842563 35.31949179119128,160.05675910760738 34.765574144503276,159.2166490506078 34.222007649524016,158.36980483074197 33.68887416536826,157.51635397963446 33.1662539799777,156.65642502384418 32.654225798029884,155.79014746550885 32.15286672908567,154.9176517628423 31.66225227597667,154.03906931048806 31.18245632343489,153.15453241973182 30.71355112696598,152.2641742985757 30.255607301967757,151.36812903167777 29.808693813095772,150.46653156015927 29.37287796387764,149.5595176612831 28.948225386577164,148.64722392800624 28.534800032310486,147.72978774840917 28.132664161415278,146.80734728500596 27.741878334074485,145.88004145393737 27.362501401196326,144.9480099040507 26.99459049555142,144.01139299586904 26.63820102316886,143.07033178045364 26.293386654992304,142.12496797816206 25.96019931879725,141.1754439573056 25.638689191370986,140.2219027127091 25.328904690956108,139.2644878441767 25.03089246995887,138.30334353486592 24.74469740792361,137.33861452957436 24.47036260477394,136.37044611294166 24.207929374322134,135.3989840875702 23.95743723804739,134.42437475206765 23.718923919144075,133.44676487901506 23.492425336840668,132.46630169286334 23.277975600990544,131.48313284776194 23.0756070069351,130.49740640532255 22.885350030640268,129.50927081232155 22.707233324106824,128.5188748783447 22.541283711055613,127.52636775337665 22.387526182887953,126.53189890533967 22.245983894922034,125.53561809758435 22.116678162905785,124.53767536633575 21.9996284598068,123.53822099809842 21.894852412879857,122.53740550702399 21.8023658010122,121.5353796122441 21.722182552347405,120.53229421517275 21.654314742187765,119.52830037678109 21.59877259117586,118.52354929484827 21.55556446375533,117.51819228119142 21.524696866911256,116.51238073887882 21.506174449190155,115.50626613942904 21.5,114.50000000000001" stroke="blue" stroke-width="2" /><polyline fill="none" points="1.5,1.5 216.5,1.5 216.5,226.5 1.5,226.5 1.5,1.5" stroke="orange" stroke-width="2" /></svg>