<?xml version="1.0" encoding="utf-8" ?>
<svg baseProfile="full" height="163px" version="1.1" width="183px" xmlns="http://www.w3.org/2000/svg" xmlns:ev="http://www.w3.org/2001/xml-events" xmlns:xlink="http://www.w3.org/1999/xlink"><defs /><polyline fill="none" points="41.06,11.335 95.524,113.778 114.298,148.839 41.06,11.335" stroke="red" stroke-width="2" /><polyline fill="none" points="11.597,22.261 30.594,55.23 30.657,55.224 60.8,107.631 11.597,22.261" stroke="green" stroke-width="2" /><polyline fill="none" points="2.0,62.389 30.594,55.23 30.657,55.224 125.622,31.266 125.558,31.236 138.894,28.022 2.0,62.389" stroke="blue" stroke-width="2" /><polyline fill="none" points="73.391,2.362 137.439,126.071 73.391,2.362" stroke="orange" stroke-width="2" /><polyline fill="none" points="149.902,73.735 149.894,73.738 149.902,73.735" stroke="purple" stroke-width="2" /><polyline fill="none" points="150.458,47.358 19.852,83.008 150.458,47.358" stroke="cyan" stroke-width="2" /><polyline fill="none" points="67.583,119.758 150.231,101.685 67.583,119.758" stroke="red" stroke-width="2" /><polyline fill="none" points="13.098,109.894 166.379,69.423 13.098,109.894" stroke="green" stroke-width="2" /><polyline fill="none" points="122.227,2.0 6.123,38.973 122.227,2.0" stroke="blue" stroke-width="2" /><polyline fill="none" points="30.594,55.23 30.657,55.224 30.594,55.23" stroke="orange" stroke-width="2" /><polyline fill="none" points="116.752,15.713 157.5,87.041 116.752,15.713" stroke="purple" stroke-width="2" /><polyline fill="none" points="125.558,31.236 125.622,31.266 125.558,31.236" stroke="cyan" stroke-width="2" /></svg>