<?xml version="1.0" encoding="utf-8" ?>
<svg baseProfile="full" height="168px" version="1.1" width="185px" xmlns="http://www.w3.org/2000/svg" xmlns:ev="http://www.w3.org/2001/xml-events" xmlns:xlink="http://www.w3.org/1999/xlink"><defs /><polyline fill="none" points="123.55999755859375,4.519999980926514 121.64199829101562,4.886000156402588 120.64627075195312,5.209438323974609 119.6502685546875,5.531996250152588 118.65399932861328,5.853728771209717 117.6574935913086,6.174689292907715 116.6607666015625,6.494933128356934 115.66382598876953,6.814513683319092 114.66670227050781,7.133486270904541 113.66939544677734,7.451904773712158 112.67194366455078,7.7698235511779785 111.6743392944336,8.087296485900879 110.67662048339844,8.404379844665527 109.67879486083984,8.721125602722168 108.68087768554688,9.037589073181152 107.68289184570312,9.353825569152832 106.68484497070312,9.669888496398926 105.686767578125,9.985831260681152 104.68866729736328,10.30171012878418 103.69055938720703,10.617578506469727 102.69246673583984,10.933491706848145 101.69440460205078,11.249502182006836 100.69639587402344,11.565666198730469 99.69844055175781,11.882037162780762 98.70056915283203,12.19866943359375 97.70279693603516,12.515617370605469 96.70513916015625,12.83293628692627 95.7076187133789,13.150679588317871 94.71023559570312,13.468901634216309 93.71302795410156,13.787656784057617 92.71600341796875,14.107000350952148 91.56450653076172,14.477023124694824 90.41303253173828,14.847562789916992 89.26123046875,15.217445373535156 88.10874938964844,15.58549976348877 86.95523834228516,15.950554847717285 85.80034637451172,16.311437606811523 84.64371490478516,16.666976928710938 83.48500061035156,17.016000747680664 81.08000183105469,18.079999923706055 123.55999755859375,4.519999980926514" stroke="red" stroke-width="2" /><polyline fill="none" points="55.63999938964844,100.04000091552734 54.554481506347656,100.65898132324219 53.42085266113281,101.14085388183594 52.252498626708984,101.52149963378906 51.06281661987305,101.8368148803711 49.86518478393555,102.12268829345703 48.67300033569336,102.41500091552734 47.634315490722656,102.68472290039062 46.595821380615234,102.95515441894531 45.5574951171875,103.2262191772461 44.519317626953125,103.49786376953125 43.48127746582031,103.77002716064453 42.443359375,104.0426254272461 41.40553665161133,104.31561279296875 40.3677978515625,104.58890533447266 39.33012771606445,104.86245727539062 38.292503356933594,105.13619232177734 37.254913330078125,105.41004943847656 36.21733856201172,105.6839599609375 35.17975616455078,105.95785522460938 34.14215850830078,106.23168182373047 33.10451889038086,106.50537109375 32.066829681396484,106.77884674072266 31.029064178466797,107.05206298828125 29.9912109375,107.32493591308594 28.953250885009766,107.597412109375 27.9151668548584,107.86941528320312 26.876941680908203,108.14089965820312 25.838558197021484,108.41178131103516 24.799999237060547,108.68199920654297 23.626798629760742,108.98883056640625 22.454313278198242,109.29849243164062 21.282222747802734,109.6097412109375 20.110206604003906,109.92133331298828 18.937942504882812,110.2320327758789 17.765111923217773,110.54059600830078 16.59139060974121,110.84577178955078 15.416460990905762,111.14631652832031 14.239999771118164,111.44100189208984 55.63999938964844,100.04000091552734" stroke="green" stroke-width="2" /><polyline fill="none" points="41.720001220703125,12.4399995803833 41.82962417602539,13.897000312805176 42.45899963378906,15.189000129699707 43.007049560546875,16.168161392211914 43.543975830078125,17.153182983398438 44.07296371459961,18.142370223999023 44.59718322753906,19.13402557373047 45.119815826416016,20.126455307006836 45.64403533935547,21.117963790893555 46.17302322387695,22.106853485107422 46.70995330810547,23.0914306640625 47.257999420166016,24.06999969482422 48.07324981689453,25.844999313354492 48.72800064086914,27.697999954223633 49.676998138427734,28.05500030517578 50.0948486328125,29.0223445892334 50.5277214050293,29.980670928955078 50.97410583496094,30.93079948425293 51.43247985839844,31.87355613708496 51.90131759643555,32.80976867675781 52.37910842895508,33.740257263183594 52.86433029174805,34.66584777832031 53.3554573059082,35.587364196777344 53.850975036621094,36.50563049316406 54.349361419677734,37.42147445678711 54.84910202026367,38.33572006225586 55.34866714477539,39.24918746948242 55.8465461730957,40.1627082824707 56.34121322631836,41.07709884643555 56.83115005493164,41.99319076538086 57.31483840942383,42.91180419921875 57.79075622558594,43.83376693725586 58.25738525390625,44.7598991394043 58.71320724487305,45.6910285949707 59.15669631958008,46.62797927856445 59.586341857910156,47.57157516479492 60.000614166259766,48.522640228271484 60.39799880981445,49.481998443603516 61.4630012512207,50.09600067138672 61.870487213134766,51.060386657714844 62.29539108276367,52.01560592651367 62.735904693603516,52.96257781982422 63.19023132324219,53.9022102355957 63.65656280517578,54.83542251586914 64.13310241699219,55.763126373291016 64.61805725097656,56.68623352050781 65.10960388183594,57.60566329956055 65.60595703125,58.52232360839844 66.10531616210938,59.437129974365234 66.60587310791016,60.35100173950195 67.10582733154297,61.26484298706055 67.60338592529297,62.1795768737793 68.09673309326172,63.09611511230469 68.58407592773438,64.01536560058594 69.06361389160156,64.9382553100586 69.53353881835938,65.86568450927734 69.99205780029297,66.79857635498047 70.43736267089844,67.73783874511719 70.86766052246094,68.68438720703125 71.28113555908203,69.6391372680664 71.6760025024414,70.60299682617188 72.68099975585938,71.17500305175781 73.10945892333984,72.14222717285156 73.55084991455078,73.1016845703125 74.00389099121094,74.0540542602539 74.4673080444336,75.00005340576172 74.93981170654297,75.94036865234375 75.42013549804688,76.87570190429688 75.90699005126953,77.80674743652344 76.39909362792969,78.73420715332031 76.89517974853516,79.65877532958984 77.39395904541016,80.58114624023438 77.89414978027344,81.50202941894531 78.39447784423828,82.42211151123047 78.89366149902344,83.34209442138672 79.39041900634766,84.26268005371094 79.88346862792969,85.18455505371094 80.37154388427734,86.10842895507812 80.85334777832031,87.03499603271484 81.3276138305664,87.96495056152344 81.79305267333984,88.89899444580078 82.2483901977539,89.83782196044922 82.69235229492188,90.78213500976562 83.12364959716797,91.73262786865234 83.54100036621094,92.69000244140625 84.74099731445312,93.36799621582031 85.08696746826172,94.58521270751953 85.54292297363281,95.75792694091797 86.08197021484375,96.89759826660156 86.67720794677734,98.01568603515625 87.30172729492188,99.12364196777344 87.92862701416016,100.23292541503906 88.53099822998047,101.3550033569336 89.06410217285156,102.38685607910156 89.60150909423828,103.41647338867188 90.142578125,104.4441909790039 90.68665313720703,105.47034454345703 91.23309326171875,106.49526977539062 91.78125,107.51930236816406 92.3304672241211,108.54279327392578 92.8801040649414,109.5660629272461 93.42950439453125,110.58946990966797 93.97801971435547,111.61333465576172 94.5250015258789,112.63800048828125 95.24500274658203,115.0459976196289 96.58399963378906,115.66400146484375 96.9553451538086,116.7815170288086 97.38301849365234,117.87358093261719 97.85804748535156,118.94426727294922 98.37149047851562,119.99763488769531 98.91437530517578,121.03775024414062 99.47775268554688,122.06868743896484 100.05265808105469,123.09451293945312 100.63014221191406,124.11929321289062 101.20124053955078,125.14710235595703 101.75700378417969,126.18199920654297 102.27091217041016,127.16033935546875 102.78621673583984,128.13800048828125 103.30278015136719,129.1150360107422 103.82047271728516,130.0915069580078 104.33917999267578,131.06748962402344 104.8587646484375,132.04302978515625 105.37910461425781,133.0181884765625 105.90007019042969,133.9930419921875 106.42153930664062,134.9676513671875 106.94337463378906,135.9420623779297 107.46546173095703,136.91636657714844 107.98766326904297,137.89059448242188 108.50984954833984,138.8648223876953 109.03191375732422,139.83912658691406 109.55370330810547,140.81353759765625 110.07511138916016,141.78814697265625 110.59600067138672,142.76300048828125 111.15786743164062,143.822265625 111.71696472167969,144.88340759277344 112.2770004272461,145.94400024414062 112.84170532226562,147.0015869140625 113.414794921875,148.05374145507812 114.0,149.09800720214844 114.57962799072266,150.34774780273438 114.88770294189453,151.6212615966797 114.91999816894531,152.96099853515625 41.720001220703125,12.4399995803833" stroke="blue" stroke-width="2" /><polyline fill="none" points="157.8800048828125,89.95999908447266 157.5240020751953,88.63800048828125 156.95921325683594,87.6854019165039 156.3984832763672,86.73043823242188 155.84124755859375,85.7734375 155.2869415283203,84.8147201538086 154.73500061035156,83.85462188720703 154.1848602294922,82.89347839355469 153.6359405517578,81.9316177368164 153.08770751953125,80.9693603515625 152.53958129882812,80.00704193115234 151.99099731445312,79.04499816894531 151.27362060546875,77.6468734741211 150.76699829101562,76.26599884033203 149.5240020751953,75.57599639892578 148.44216918945312,75.97754669189453 147.35357666015625,76.35100555419922 146.25914001464844,76.69992065429688 145.1597900390625,77.0278549194336 144.05642700195312,77.33834075927734 142.94998168945312,77.63493347167969 141.84133911132812,77.92117309570312 140.7314453125,78.20062255859375 139.62120056152344,78.476806640625 138.51150512695312,78.7532958984375 137.40330505371094,79.03362274169922 136.29750061035156,79.32134246826172 135.19500732421875,79.62000274658203 134.1480255126953,79.9083023071289 133.10009765625,80.19302368164062 132.05130004882812,80.47464752197266 131.00180053710938,80.7536392211914 129.95169067382812,81.03048706054688 128.90113830566406,81.30565643310547 127.85023498535156,81.57962799072266 126.79912567138672,81.85287475585938 125.74793243408203,82.1258773803711 124.69678497314453,82.39910888671875 123.64581298828125,82.67304992675781 122.59513854980469,82.94817352294922 121.5448989868164,83.2249526977539 120.49520874023438,83.50386810302734 119.44619750976562,83.78539276123047 118.39800262451172,84.06999969482422 116.0009994506836,85.04100036621094 157.8800048828125,89.95999908447266" stroke="orange" stroke-width="2" /><polyline fill="none" points="136.52000427246094,53.0 135.5167236328125,53.5357666015625 134.4835205078125,53.979000091552734 133.426513671875,54.34873580932617 132.35186767578125,54.66400146484375 131.2657470703125,54.94382858276367 130.17430114746094,55.20724868774414 129.0836639404297,55.473297119140625 128.0,55.76100158691406 126.9648208618164,56.05316162109375 125.9292984008789,56.34408187866211 124.89344024658203,56.63379669189453 123.85725402832031,56.922359466552734 122.82076263427734,57.20981216430664 121.78398132324219,57.49620056152344 120.74691009521484,57.78156661987305 119.70956420898438,58.06595993041992 118.67196655273438,58.349422454833984 117.63412475585938,58.63199996948242 116.5960464477539,58.91373825073242 115.55775451660156,59.194679260253906 114.51924896240234,59.47487258911133 113.48055267333984,59.75436019897461 112.4416732788086,60.03318786621094 111.40262603759766,60.3114013671875 110.36341857910156,60.58904266357422 109.3240737915039,60.86616134643555 108.28459167480469,61.142799377441406 107.24500274658203,61.41899871826172 105.75712585449219,61.95024871826172 104.36000061035156,62.720001220703125 136.52000427246094,53.0" stroke="purple" stroke-width="2" /><polyline fill="none" points="125.0,33.439998626708984 123.87275695800781,34.05074691772461 122.69737243652344,34.511295318603516 121.48787689208984,34.8641242980957 120.25829315185547,35.151702880859375 119.02265930175781,35.41650390625 117.79499816894531,35.70100021362305 116.77933502197266,35.95822525024414 115.76374816894531,36.215816497802734 114.74821472167969,36.47364807128906 113.73269653320312,36.731597900390625 112.71717071533203,36.98954391479492 111.70159912109375,37.24736022949219 110.68596649169922,37.50492477416992 109.67022705078125,37.762115478515625 108.65435791015625,38.018802642822266 107.6383285522461,38.274864196777344 106.62211608886719,38.530181884765625 105.60568237304688,38.78462600708008 104.58899688720703,39.03807830810547 103.57203674316406,39.290409088134766 102.55476379394531,39.54149627685547 101.53715515136719,39.79121780395508 100.51918029785156,40.03944778442383 99.50080871582031,40.286067962646484 98.48200225830078,40.530948638916016 97.4627456665039,40.77396774291992 96.44300079345703,41.01499938964844 93.79900360107422,42.31999969482422 125.0,33.439998626708984" stroke="cyan" stroke-width="2" /><polyline fill="none" points="92.4800033569336,41.720001220703125 91.34111022949219,42.21479415893555 90.1769027709961,42.62299728393555 88.99366760253906,42.96577835083008 87.79767608642578,43.26430130004883 86.59522247314453,43.539737701416016 85.39256286621094,43.81324768066406 84.19599914550781,44.10599899291992 83.16832733154297,44.37186050415039 82.14019012451172,44.6358757019043 81.11162567138672,44.89823913574219 80.08268737792969,45.15913391113281 79.05342102050781,45.41874694824219 78.02386474609375,45.67726135253906 76.99407958984375,45.93486785888672 75.96410369873047,46.191749572753906 74.93397521972656,46.448097229003906 73.90375518798828,46.7040901184082 72.87348175048828,46.95991897583008 71.84320068359375,47.21577072143555 70.8129653930664,47.471832275390625 69.7828140258789,47.72828674316406 68.75279998779297,47.985321044921875 67.72296142578125,48.243125915527344 66.69335174560547,48.50188064575195 65.66401672363281,48.761775970458984 64.63500213623047,49.02299880981445 63.098751068115234,49.55125045776367 61.638999938964844,50.2400016784668 92.4800033569336,41.720001220703125" stroke="red" stroke-width="2" /><polyline fill="none" points="127.04000091552734,108.19999694824219 125.95267486572266,108.71066284179688 124.82970428466797,109.0986328125 123.68162536621094,109.3968734741211 122.51896667480469,109.63836669921875 121.35224914550781,109.85608673095703 120.19200134277344,110.08300018310547 119.12430572509766,110.3092041015625 118.05715942382812,110.53787994384766 116.990478515625,110.7686767578125 115.9241943359375,111.00121307373047 114.85821533203125,111.23513793945312 113.79247283935547,111.47007751464844 112.72687530517578,111.70567321777344 111.66134643554688,111.94155883789062 110.5958023071289,112.17736053466797 109.53016662597656,112.41272735595703 108.46435546875,112.64729309082031 107.3982925415039,112.88068389892578 106.33190155029297,113.11253356933594 105.26509094238281,113.34249114990234 104.19778442382812,113.57018280029297 103.1299057006836,113.79524230957031 102.06136322021484,114.0173110961914 100.9920883178711,114.23601531982422 99.9219970703125,114.45099639892578 98.2406234741211,114.94312286376953 96.68000030517578,115.76000213623047 127.04000091552734,108.19999694824219" stroke="green" stroke-width="2" /><polyline fill="none" points="114.91999816894531,84.55999755859375 114.54925537109375,83.43780517578125 114.11184692382812,82.34674072265625 113.6222915649414,81.28011322021484 113.0951156616211,80.23123168945312 112.5448226928711,79.1933822631836 111.98594665527344,78.15987396240234 111.43299865722656,77.1240005493164 110.89424133300781,76.09324645996094 110.35800170898438,75.06121826171875 109.82359313964844,74.02826690673828 109.29033660888672,72.99474334716797 108.75753021240234,71.96099090576172 108.22450256347656,70.92737579345703 107.6905517578125,69.89423370361328 107.15499877929688,68.86192321777344 106.61715698242188,67.83079528808594 106.07633209228516,66.80120086669922 105.53184509277344,65.77348327636719 104.98300170898438,64.74800109863281 104.4271240234375,63.1505012512207 103.22100067138672,62.08100128173828 102.8317642211914,60.89375686645508 102.37681579589844,59.745750427246094 101.8700180053711,58.62942886352539 101.32524871826172,57.53725051879883 100.75639343261719,56.46166229248047 100.17731475830078,55.39512634277344 99.60189056396484,54.33008575439453 99.04399871826172,53.25899887084961 98.50782012939453,52.2000617980957 97.96961212158203,51.14168930053711 97.42837524414062,50.084529876708984 96.88312530517578,49.02925109863281 96.33285522460938,47.97650146484375 95.77658081054688,46.926937103271484 95.21328735351562,45.88121795654297 94.64199829101562,44.84000015258789 93.80599975585938,42.43899917602539 92.56099700927734,41.68199920654297 92.20735168457031,40.52657699584961 91.78031921386719,39.40223693847656 91.29377746582031,38.30289077758789 90.76161193847656,37.22242736816406 90.19768524169922,36.15475845336914 89.61589050292969,35.09377670288086 89.03009033203125,34.033390045166016 88.45417022705078,32.967498779296875 87.9020004272461,31.889999389648438 87.40400695800781,30.890151977539062 86.89923858642578,29.89365005493164 86.38892364501953,28.899869918823242 85.87432861328125,27.908191680908203 85.356689453125,26.91798973083496 84.83726501464844,25.928646087646484 84.31729888916016,24.939537048339844 83.79804229736328,23.95003890991211 83.2807388305664,22.959531784057617 82.76663970947266,21.96739387512207 82.25700378417969,20.972999572753906 81.5792465209961,19.480125427246094 80.9749984741211,17.988000869750977 79.5260009765625,17.968000411987305 78.01762390136719,18.75749969482422 76.4020004272461,19.285999298095703 75.3849868774414,19.610502243041992 74.36795043945312,19.934959411621094 73.35088348388672,20.25935935974121 72.33378601074219,20.583688735961914 71.31665802001953,20.907936096191406 70.29948425292969,21.232091903686523 69.28227233886719,21.556142807006836 68.26502227783203,21.880075454711914 67.24771881103516,22.203880310058594 66.2303695678711,22.527544021606445 65.21297454833984,22.851055145263672 64.19551086425781,23.174402236938477 63.178001403808594,23.497573852539062 62.160423278808594,23.820556640625 61.142784118652344,24.143341064453125 60.12507629394531,24.465913772583008 59.1072998046875,24.78826141357422 58.08945083618164,25.110374450683594 57.0715217590332,25.432241439819336 56.05351638793945,25.753849029541016 55.035430908203125,26.075185775756836 54.01725769042969,26.396240234375 52.999000549316406,26.716999053955078 51.404624938964844,27.36662483215332 49.880001068115234,28.160999298095703 114.91999816894531,84.55999755859375" stroke="blue" stroke-width="2" /><polyline fill="none" points="103.04000091552734,62.119998931884766 102.0245132446289,62.623172760009766 100.98796844482422,63.05945587158203 99.9338607788086,63.439903259277344 98.86566162109375,63.77556610107422 97.78687286376953,64.07749938964844 96.70097351074219,64.35675048828125 95.6114501953125,64.62437438964844 94.52178955078125,64.89142608642578 93.43547821044922,65.1689453125 92.35600280761719,65.46800231933594 91.29499053955078,65.77467346191406 90.2326889038086,66.07670593261719 89.16925811767578,66.37468719482422 88.1048583984375,66.66920471191406 87.03965759277344,66.96084594726562 85.97382354736328,67.25019073486328 84.90750885009766,67.537841796875 83.84087371826172,67.82437133789062 82.77409362792969,68.11038208007812 81.70732116699219,68.39644622802734 80.64071655273438,68.68315887451172 79.57445526123047,68.97110748291016 78.5086898803711,69.26087951660156 77.4435806274414,69.55306243896484 76.3792953491211,69.84823608398438 75.31600189208984,70.14700317382812 72.91999816894531,71.36000061035156 103.04000091552734,62.119998931884766" stroke="orange" stroke-width="2" /><polyline fill="none" points="137.83999633789062,127.87999725341797 137.33743286132812,126.92001342773438 136.83673095703125,125.95905303955078 136.33749389648438,124.99732971191406 135.83934020996094,124.03504943847656 135.34188842773438,123.07240295410156 134.8447265625,122.10961151123047 134.34747314453125,121.14686584472656 133.84974670410156,120.18437194824219 133.3511505126953,119.22234344482422 132.85130310058594,118.2609634399414 132.3498077392578,117.30046081542969 131.84628295898438,116.34101867675781 131.34031677246094,115.38284301757812 130.83155822753906,114.4261474609375 130.319580078125,113.47113037109375 129.8040008544922,112.51799774169922 128.95562744140625,110.77112579345703 128.3990020751953,108.90499877929688 127.13300323486328,108.17400360107422 126.76709747314453,107.01924896240234 126.33583068847656,105.89286041259766 125.85089111328125,104.78966522216797 125.32394409179688,103.7044677734375 124.76668548583984,102.63208770751953 124.19078063964844,101.56733703613281 123.60791015625,100.5050277709961 123.02975463867188,99.43997192382812 122.46800231933594,98.36699676513672 121.94509887695312,97.33839416503906 121.42302703857422,96.30928039550781 120.90032958984375,95.28040313720703 120.37554931640625,94.25251770019531 119.84725189208984,93.22637176513672 119.31396484375,92.20272064208984 118.77425384521484,91.18230438232422 118.22665405273438,90.16587829589844 117.66972351074219,89.1541976928711 117.10199737548828,88.14800262451172 116.47799682617188,86.68937683105469 116.0009994506836,85.13700103759766 114.43800354003906,84.7959976196289 113.34380340576172,85.23684692382812 112.2359390258789,85.63046264648438 111.11669158935547,85.98475646972656 109.98836517333984,86.30763244628906 108.8532485961914,86.60700225830078 107.71363067626953,86.8907699584961 106.57180786132812,87.1668472290039 105.43006134033203,87.4431381225586 104.29069519042969,87.72755432128906 103.15599822998047,88.02799987792969 102.11933898925781,88.31206512451172 101.08216094970703,88.59432220458984 100.04450225830078,88.87484741210938 99.00637817382812,89.15372467041016 97.96781158447266,89.43103790283203 96.9288330078125,89.70686340332031 95.88945770263672,89.98128509521484 94.8497085571289,90.25439453125 93.80960845947266,90.52625274658203 92.7691879272461,90.79696655273438 91.72846221923828,91.06659698486328 90.68745422363281,91.33523559570312 89.64619445800781,91.60295867919922 88.60470581054688,91.8698501586914 87.56300354003906,92.13600158691406 86.1551284790039,92.65237426757812 84.79900360107422,93.32099914550781 137.83999633789062,127.87999725341797" stroke="purple" stroke-width="2" /><polyline fill="none" points="71.5999984741211,70.76000213623047 70.4901123046875,71.26456451416016 69.3580322265625,71.6982650756836 68.2083740234375,72.07573699951172 67.0457534790039,72.41162872314453 65.87478637695312,72.7205581665039 64.7000961303711,73.01717376708984 63.52629470825195,73.31610870361328 62.358001708984375,73.63200378417969 61.263004302978516,73.93986511230469 60.167232513427734,74.244873046875 59.07080078125,74.54745483398438 57.97382354736328,74.84803771972656 56.87641525268555,75.14703369140625 55.7786865234375,75.44488525390625 54.68075180053711,75.74199676513672 53.58272171020508,76.03881072998047 52.484718322753906,76.33573913574219 51.38684844970703,76.63320922851562 50.28922653198242,76.93164825439453 49.19197082519531,77.23147583007812 48.095191955566406,77.53311920166016 46.999000549316406,77.83699798583984 44.46799850463867,78.93900299072266 42.93899917602539,78.32499694824219 42.59463882446289,77.04302215576172 42.089481353759766,75.83775329589844 41.47560119628906,74.686767578125 40.80508041381836,73.56765747070312 40.130001068115234,72.45800018310547 39.57501220703125,71.51697540283203 39.0240592956543,70.57362365722656 38.476253509521484,69.62847900390625 37.930694580078125,68.68204498291016 37.3864860534668,67.73484802246094 36.842735290527344,66.78739929199219 36.29854202270508,65.8402328491211 35.75301742553711,64.89385223388672 35.205257415771484,63.94878387451172 34.65437316894531,63.00554656982422 34.09946823120117,62.064659118652344 33.53963851928711,61.12663650512695 32.9739990234375,60.19200134277344 32.20500183105469,57.875999450683594 30.683000564575195,57.07400131225586 29.641855239868164,57.52375411987305 28.58717155456543,57.92585754394531 27.520828247070312,58.286827087402344 26.444704055786133,58.61318588256836 25.360675811767578,58.91144561767578 24.2706241607666,59.18812561035156 23.176427841186523,59.44974136352539 22.07996368408203,59.702816009521484 20.983108520507812,59.953861236572266 19.887744903564453,60.20939254760742 18.79574966430664,60.47593307495117 17.708999633789062,60.7599983215332 16.625648498535156,61.052162170410156 15.540860176086426,61.33937454223633 14.45482063293457,61.622276306152344 13.367716789245605,61.90151596069336 12.27973461151123,62.1777458190918 11.191058158874512,62.45160675048828 10.101875305175781,62.723751068115234 9.012370109558105,62.99482345581055 7.922729969024658,63.26546859741211 6.833139896392822,63.53634262084961 5.743785858154297,63.808082580566406 4.6548542976379395,64.08134460449219 3.566530227661133,64.35676574707031 2.4790000915527344,64.63500213623047 2.0,64.63999938964844 71.5999984741211,70.76000213623047" stroke="cyan" stroke-width="2" /><polyline fill="none" points="48.560001373291016,27.799999237060547 47.56300735473633,28.27338409423828 46.55178451538086,28.705875396728516 45.528411865234375,29.103445053100586 44.49497604370117,29.47205924987793 43.45355224609375,29.817689895629883 42.40623092651367,30.14630126953125 41.3550910949707,30.463865280151367 40.302215576171875,30.776348114013672 39.24968719482422,31.089719772338867 38.1995849609375,31.409948348999023 37.15399932861328,31.743000030517578 36.06932830810547,32.09812545776367 34.984474182128906,32.45292663574219 33.89931869506836,32.807010650634766 32.81374740600586,33.15998840332031 31.727645874023438,33.5114631652832 30.640899658203125,33.86104202270508 29.553396224975586,34.208335876464844 28.465017318725586,34.55294418334961 27.37565040588379,34.89447784423828 26.285179138183594,35.2325439453125 25.193490982055664,35.566749572753906 24.1004695892334,35.896697998046875 23.006000518798828,36.22200012207031 20.358999252319336,37.52000045776367 48.560001373291016,27.799999237060547" stroke="red" stroke-width="2" /><polyline fill="none" points="60.31999969482422,49.63999938964844 59.29052734375,50.13096618652344 58.238807678222656,50.547428131103516 57.168888092041016,50.902740478515625 56.08482360839844,51.21025085449219 54.990657806396484,51.483306884765625 53.890445709228516,51.735260009765625 52.788230895996094,51.97945785522461 51.68806457519531,52.22925567626953 50.59400177001953,52.49800109863281 49.55731201171875,52.76670455932617 48.520423889160156,53.03470993041992 47.48329544067383,53.301849365234375 46.445884704589844,53.56795120239258 45.40814971923828,53.83285140991211 44.37004852294922,54.09638214111328 43.33154296875,54.35837936401367 42.2925910949707,54.61867141723633 41.253150939941406,54.87709426879883 40.21318435668945,55.133480072021484 39.17264938354492,55.38766098022461 38.13150405883789,55.63947296142578 37.08970642089844,55.88874435424805 36.047218322753906,56.13530731201172 35.00400161743164,56.37900161743164 33.52000045776367,56.91362380981445 32.119998931884766,57.68000030517578 60.31999969482422,49.63999938964844" stroke="green" stroke-width="2" /><polyline fill="none" points="95.12000274658203,115.16000366210938 93.99088287353516,115.66887664794922 92.82740783691406,116.052001953125 91.63987731933594,116.34612274169922 90.43859100341797,116.58799743652344 89.2338638305664,116.81437683105469 88.03600311279297,117.06199645996094 86.99794006347656,117.29702758789062 85.95945739746094,117.53022003173828 84.92058563232422,117.76174926757812 83.8813705444336,117.99177551269531 82.84184265136719,118.22047424316406 81.80204010009766,118.447998046875 80.76200103759766,118.67453002929688 79.72176361083984,118.90022277832031 78.6813735961914,119.12525177001953 77.64086151123047,119.34977722167969 76.60026550292969,119.573974609375 75.55963134765625,119.7979965209961 74.51898193359375,120.02202606201172 73.4783706665039,120.24622344970703 72.43782806396484,120.47074890136719 71.39739227294922,120.6957778930664 70.35710144042969,120.92147064208984 69.31700134277344,121.14800262451172 68.23999786376953,121.4000015258789 95.12000274658203,115.16000366210938" stroke="blue" stroke-width="2" /><polyline fill="none" points="83.36000061035156,92.83999633789062 82.17561340332031,93.4124526977539 80.95588684082031,93.87629699707031 79.71050262451172,94.26074981689453 78.44911193847656,94.59503936767578 77.18138885498047,94.90837860107422 75.91699981689453,95.2300033569336 74.82184600830078,95.52088928222656 73.7264175415039,95.81086730957031 72.6307601928711,96.1000747680664 71.534912109375,96.38865661621094 70.43892669677734,96.6767807006836 69.34284210205078,96.9645767211914 68.2467041015625,97.25220489501953 67.15055084228516,97.53981018066406 66.054443359375,97.82754516601562 64.95840454101562,98.11555480957031 63.86249923706055,98.40399169921875 62.766761779785156,98.69300842285156 61.671234130859375,98.98274993896484 60.575965881347656,99.27336120605469 59.48099899291992,99.56500244140625 57.08000183105469,100.63999938964844 83.36000061035156,92.83999633789062" stroke="orange" stroke-width="2" /><polyline fill="none" points="42.79999923706055,78.44000244140625 41.68717575073242,79.11074829101562 40.51540756225586,79.61563110351562 39.302249908447266,80.00212860107422 38.06525802612305,80.31770324707031 36.821990966796875,80.6098403930664 35.59000015258789,80.9260025024414 34.50349426269531,81.2306900024414 33.416080474853516,81.53221893310547 32.327919006347656,81.8311538696289 31.239168167114258,82.1280517578125 30.149986267089844,82.4234848022461 29.060531616210938,82.718017578125 27.97096061706543,83.01221466064453 26.881433486938477,83.306640625 25.7921085357666,83.60186004638672 24.70314598083496,83.89844512939453 23.614700317382812,84.19695281982422 22.526931762695312,84.4979476928711 21.440000534057617,84.802001953125 19.038999557495117,85.03900146484375 42.79999923706055,78.44000244140625" stroke="purple" stroke-width="2" /><polyline fill="none" points="152.1199951171875,103.33999633789062 150.96737670898438,103.44316864013672 149.82691955566406,103.61077880859375 148.69564819335938,103.82670593261719 147.57052612304688,104.07482147216797 146.44854736328125,104.33899688720703 145.3267059326172,104.60309600830078 144.20199584960938,104.85099792480469 143.1000518798828,105.08165740966797 141.9986572265625,105.31491088867188 140.8977508544922,105.5504379272461 139.79725646972656,105.78792572021484 138.69711303710938,106.02705383300781 137.5972442626953,106.26750183105469 136.49758911132812,106.50894927978516 135.3980712890625,106.7510757446289 134.2986297607422,106.99356079101562 133.1991729736328,107.23609161376953 132.0996551513672,107.47834777832031 131.0,107.72000122070312 128.36000061035156,108.80000305175781 152.1199951171875,103.33999633789062" stroke="cyan" stroke-width="2" /><polyline fill="none" points="117.08000183105469,16.399999618530273 117.11592864990234,17.757518768310547 117.48540496826172,19.02414894104004 118.12200164794922,20.26300048828125 118.68305206298828,21.202543258666992 119.2392578125,22.145048141479492 119.79137420654297,23.090055465698242 120.34016418457031,24.0371036529541 120.8863754272461,24.985734939575195 121.43077087402344,25.935487747192383 121.97410583496094,26.88590431213379 122.51713562011719,27.836523056030273 123.06062316894531,28.78688621520996 123.60533142089844,29.736530303955078 124.1520004272461,30.684999465942383 125.14399719238281,33.31800079345703 126.7239990234375,34.066001892089844 127.0130615234375,35.20476531982422 127.42753601074219,36.28715515136719 127.93632507324219,37.32743835449219 128.5083465576172,38.33988952636719 129.11253356933594,39.338783264160156 129.7177734375,40.33839797973633 130.29299926757812,41.35300064086914 130.87364196777344,42.41699981689453 131.46826171875,43.47315979003906 132.0729217529297,44.523704528808594 132.68368530273438,45.570865631103516 133.29660034179688,46.61687469482422 133.90774536132812,47.663963317871094 134.5131378173828,48.714359283447266 135.10888671875,49.770294189453125 135.6909942626953,50.83399963378906 136.48599243164062,52.84700012207031 138.0229949951172,53.80400085449219 138.30404663085938,54.93291091918945 138.73300170898438,56.00529479980469 139.2676239013672,57.03862380981445 139.86566162109375,58.05036926269531 140.48487854003906,59.058006286621094 141.08299255371094,60.07899856567383 141.63674926757812,61.07199478149414 142.19491577148438,62.06247329711914 142.75680541992188,63.05083465576172 143.3217315673828,64.0374755859375 143.8889923095703,65.02278137207031 144.45790100097656,66.00716400146484 145.0277557373047,66.99100494384766 145.59786987304688,67.9747085571289 146.16754150390625,68.95867156982422 146.736083984375,69.94328308105469 147.3028106689453,70.92894744873047 147.86700439453125,71.91605377197266 148.42799377441406,72.90499877929688 149.36000061035156,75.44100189208984 117.08000183105469,16.399999618530273" stroke="red" stroke-width="2" /><polyline fill="none" points="44.47999954223633,79.04000091552734 44.823875427246094,80.45023345947266 45.423500061035156,81.74187469482422 46.15512466430664,82.97032928466797 46.89500045776367,84.19100189208984 47.43351745605469,85.13599395751953 47.97359085083008,86.08011627197266 48.51506805419922,87.0234375 49.05780029296875,87.96604919433594 49.60163497924805,88.90803527832031 50.146419525146484,89.8494644165039 50.692012786865234,90.7904281616211 51.23825454711914,91.73101043701172 51.78499984741211,92.6712875366211 52.332096099853516,93.61134338378906 52.87939453125,94.55125427246094 53.4267463684082,95.49111938476562 53.9739990234375,96.43099975585938 54.888248443603516,98.12750244140625 55.57899856567383,99.85399627685547 57.15700149536133,100.85900115966797 57.45966339111328,102.14574432373047 57.97295379638672,103.35967254638672 58.6178092956543,104.53092956542969 59.3151741027832,105.68965911865234 59.986000061035156,106.86599731445312 61.41299819946289,109.2699966430664 61.7599983215332,110.72000122070312 44.47999954223633,79.04000091552734" stroke="green" stroke-width="2" /><polyline fill="none" points="12.680000305175781,24.920000076293945 13.219096183776855,25.952869415283203 13.776989936828613,26.97503089904785 14.349592208862305,27.988815307617188 14.932811737060547,28.996549606323242 15.522558212280273,30.00056266784668 16.1147403717041,31.003185272216797 16.70526885986328,32.006744384765625 17.29005241394043,33.01357650756836 17.864999771118164,34.0260009765625 18.60587501525879,35.502376556396484 19.198999404907227,37.04999923706055 20.21500015258789,37.43000030517578 20.6436767578125,38.48394775390625 21.114816665649414,39.509254455566406 21.621078491210938,40.510528564453125 22.155128479003906,41.492366790771484 22.709625244140625,42.459373474121094 23.277231216430664,43.41615295410156 23.850610733032227,44.36730194091797 24.42242431640625,45.31742477416992 24.985332489013672,46.271121978759766 25.531999588012695,47.233001708984375 26.11857795715332,48.28605270385742 26.709964752197266,49.336605072021484 27.306076049804688,50.38460159301758 27.906822204589844,51.42999267578125 28.512117385864258,52.47272491455078 29.121871948242188,53.51274490356445 29.736000061035156,54.54999923706055 30.56100082397461,56.95899963378906 12.680000305175781,24.920000076293945" stroke="blue" stroke-width="2" /><polyline fill="none" points="168.67999267578125,71.36000061035156 167.31259155273438,71.34095764160156 165.9821014404297,71.52543640136719 164.67550659179688,71.84024047851562 163.3798065185547,72.212158203125 162.08200073242188,72.56800079345703 160.91305541992188,72.86432647705078 159.74639892578125,73.17005920410156 158.58102416992188,73.48078155517578 157.41590881347656,73.79206085205078 156.2500457763672,74.09947204589844 155.08241271972656,74.39859771728516 153.91200256347656,74.68499755859375 152.25250244140625,75.28937530517578 150.67999267578125,76.04000091552734 168.67999267578125,71.36000061035156" stroke="orange" stroke-width="2" /><polyline fill="none" points="73.5199966430664,2.0 73.53459167480469,3.5180740356445312 73.92874145507812,4.943259239196777 74.5739974975586,6.334000110626221 75.10991668701172,7.347497940063477 75.65312194824219,8.357439994812012 76.19979858398438,9.365721702575684 76.74613189697266,10.37424373626709 77.28829956054688,11.384902000427246 77.82247924804688,12.3995943069458 78.34485626220703,13.420219421386719 78.85162353515625,14.448675155639648 79.33894348144531,15.486858367919922 79.80300903320312,16.536666870117188 80.23999786376953,17.600000381469727 73.5199966430664,2.0" stroke="purple" stroke-width="2" /><polyline fill="none" points="151.63999938964844,49.63999938964844 149.7445068359375,49.83250045776367 147.927001953125,50.38800048828125 146.70384216308594,50.7147331237793 145.48069763183594,51.042850494384766 144.25811767578125,51.373748779296875 143.03663635253906,51.70881652832031 141.81674194335938,52.049434661865234 140.5989990234375,52.39699935913086 137.9600067138672,53.60100173950195 151.63999938964844,49.63999938964844" stroke="cyan" stroke-width="2" /><polyline fill="none" points="140.72000122070312,30.31999969482422 139.544677734375,30.3571720123291 138.3964385986328,30.53437042236328 137.265869140625,30.803125381469727 136.1435546875,31.11496353149414 135.0200653076172,31.421411514282227 133.88600158691406,31.673999786376953 131.96437072753906,32.12412643432617 130.04200744628906,32.611000061035156 128.3471221923828,33.14962387084961 126.80000305175781,34.040000915527344 140.72000122070312,30.31999969482422" stroke="red" stroke-width="2" /><polyline fill="none" points="19.040000915527344,37.15999984741211 18.01148223876953,37.64811706542969 16.968002319335938,38.09306716918945 15.911853790283203,38.5014533996582 14.84533405303955,38.8798942565918 13.770736694335938,39.23500442504883 12.690354347229004,39.573394775390625 11.606483459472656,39.901676177978516 10.521418571472168,40.226463317871094 9.437453269958496,40.55437088012695 8.356882095336914,40.89201354980469 7.2820000648498535,41.24599838256836 5.599999904632568,41.36000061035156 19.040000915527344,37.15999984741211" stroke="green" stroke-width="2" /></svg>