<?xml version="1.0" encoding="utf-8" ?>
<svg baseProfile="full" height="285px" version="1.1" width="285px" xmlns="http://www.w3.org/2000/svg" xmlns:ev="http://www.w3.org/2001/xml-events" xmlns:xlink="http://www.w3.org/1999/xlink"><defs /><polyline fill="none" points="201.413,140.935 177.406,94.055 126.635,102.589 162.567,65.086 138.556,18.206 184.772,41.906 220.704,4.398 213.334,56.552 259.55,80.252 208.783,88.785 201.413,140.935 201.413,140.935" stroke="red" stroke-width="2" /><polyline fill="none" points="68.13699999999999,190.273 68.14436775011089,189.26457003239366 68.1664694273666,188.25635537312175 68.20330031287187,187.24857128454863 68.25485254292096,186.2414329371081 68.3211151106763,185.23515536336282 68.40207386851878,184.22995341209287 68.4977115310683,183.226041702424 68.6080076788743,182.22363457800427 68.73293876277558,181.22294606124018 68.87247810892818,180.2241898076009 69.0265959245005,179.2275790600011 69.1952593040343,178.23332660327168 69.3784322364703,177.2416447187285 69.57607561283687,176.2527451388486 69.78814723460012,175.26683900206325 70.01460182267358,174.28413680767846 70.25539102708578,173.30484837093127 70.51046343730327,172.32918277819257 70.7797645932073,171.35734834232554 71.06323699672144,170.38955255820875 71.36082012408792,169.42600205843462 71.67245043879002,168.4669025691912 71.99806140511758,167.51245886633836 72.33758350237301,166.56287473168595 72.69094423971445,165.61835290948503 73.0580681716333,164.67909506313998 73.43887691406238,163.7453017321519 73.8332891611116,162.81717228930148 74.24122070242754,161.8949048980814 74.66258444117298,160.97869647038675 75.09729041262283,160.06874262447252 75.54524580337238,159.1652376431876 76.0063549711538,158.26837443249366 76.4805194652564,157.3783444802782 76.96763804754696,156.49533781547012 77.46760671408462,155.619542967467 77.98031871732687,154.75114692588255 78.5056645889209,153.89033510062256 79.04353216307604,153.03729128229864 79.59380660051218,152.1921976029869 80.15637041297879,151.3552344973417 80.73110348833984,150.526580664071 81.31788311621861,149.70641302778267 81.91658401419744,148.8949067012099 82.52707835456658,148.09223494782282 83.14923579161653,147.29856914483543 83.78292348946792,146.51407874661496 84.42800615043305,145.73893124850224 85.0843460439032,144.97329215104975 85.75180303575513,144.21732492468593 86.4302346182711,143.47119097481288 87.11949594056529,142.73504960734496 87.81943983951074,142.00905799469558 88.52991687116005,141.29337114221954 89.2507753426527,140.58814185511815 89.981861344603,139.893520705814 90.72301878396084,139.2096560018025 91.47408941733903,138.53669375398678 92.23491288479951,137.87477764550346 93.00532674409152,137.22404900104485 93.78516650533466,136.5846467566849 94.57426566613847,135.95670743021535 95.37245574715234,135.340365091998 96.17956632803738,134.7357513363393 96.99542508385231,134.14299525339422 97.81985782184651,133.56222340160414 98.65268851865153,132.9935597806757 99.49373935786375,132.4371258051056 100.34283076800946,131.893040278258 101.19978146088496,131.36141936699852 102.06440847026332,130.84237657689184 102.93652719095891,130.3360227279674 103.81595141824234,129.84246593105823 104.70249338759669,129.3618115647185 105.59596381480705,128.89416225272407 106.49617193637387,128.43961784216177 107.40292555024287,127.998275382111 108.31603105684192,127.57022910292291 109.23529350041585,127.15557039610152 110.16051661065138,126.75438779479089 111.09150284458245,126.36676695487235 112.02805342876724,125.99279063667652 112.9699684017282,125.63253868731297 113.91704665664518,125.28608802362248 114.86908598429383,124.95351261575443 115.8258831162186,124.63488347137367 116.78723376813254,124.33026862049974 117.75293268353359,124.03973310098185 118.72277367752861,123.76333894461284 119.69654968085575,123.50114516388473 120.67405278409517,123.25320773938923 121.65507428205987,123.01957960786521 122.63940471835559,122.80031065089646 123.62683393010181,122.59544768426139 124.61715109280323,122.40503444793755 125.61014476536248,122.22911159676276 126.60560293522488,122.06771669175492 127.60331306364452,121.92088419209247 128.60306213106333,121.78864544775702 129.6046366825926,121.67102869283988 130.60782287358717,121.56805903951388 131.6124065153033,121.47975847267162 132.61817312062956,121.4061458452316 133.62490794988207,121.34723687411291 134.63239605665262,121.30304413687955 135.64042233370196,121.27357706905501 136.64877155888715,121.25884196210771 137.6572284411128,121.25884196210771 138.665577666298,121.27357706905501 139.67360394334733,121.30304413687955 140.68109205011788,121.34723687411291 141.6878268793704,121.4061458452316 142.69359348469666,121.47975847267162 143.6981771264128,121.56805903951387 144.70136331740736,121.67102869283988 145.70293786893663,121.788645447757 146.70268693635543,121.92088419209246 147.70039706477507,122.06771669175492 148.6958552346375,122.22911159676276 149.68884890719673,122.40503444793755 150.67916606989814,122.59544768426139 151.66659528164436,122.80031065089645 152.65092571794008,123.01957960786521 153.63194721590472,123.25320773938921 154.6094503191442,123.50114516388473 155.58322632247138,123.76333894461283 156.55306731646638,124.03973310098185 157.51876623186743,124.33026862049974 158.48011688378136,124.63488347137367 159.43691401570612,124.95351261575443 160.38895334335479,125.28608802362247 161.33603159827175,125.63253868731296 162.27794657123272,125.9927906366765 163.21449715541752,126.36676695487233 164.14548338934856,126.75438779479086 165.0707064995841,127.15557039610152 165.98996894315803,127.5702291029229 166.9030744497571,127.99827538211099 167.8098280636261,128.43961784216177 168.7100361851929,128.89416225272407 169.6035066124032,129.36181156471847 170.49004858175763,129.84246593105823 171.36947280904104,130.3360227279674 172.24159152973664,130.8423765768918 173.106218539115,131.3614193669985 173.9631692319905,131.89304027825798 174.8122606421362,132.4371258051056 175.6533114813484,132.99355978067564 176.48614217815344,133.56222340160411 177.31057491614766,134.1429952533942 178.1264336719626,134.7357513363393 178.9335442528476,135.34036509199797 179.73173433386154,135.95670743021537 180.5208334946653,136.58464675668486 181.30067325590838,137.2240490010448 182.07108711520047,137.87477764550343 182.83191058266092,138.53669375398675 183.58298121603912,139.20965600180247 184.32413865539698,139.893520705814 185.05522465734728,140.58814185511815 185.77608312883993,141.2933711422195 186.48656016048923,142.00905799469555 187.18650405943467,142.73504960734493 187.87576538172885,143.47119097481286 188.55419696424485,144.2173249246859 189.2216539560968,144.97329215104975 189.87799384956693,145.73893124850224 190.52307651053206,146.51407874661493 191.15676420838344,147.29856914483537 191.77892164543337,148.0922349478228 192.38941598580251,148.8949067012099 192.98811688378134,149.70641302778265 193.57489651166014,150.52658066407096 194.1496295870212,151.3552344973417 194.7121933994878,152.19219760298688 195.26246783692392,153.0372912822986 195.80033541107906,153.89033510062254 196.3256812826731,154.7511469258825 196.83839328591534,155.619542967467 197.33836195245303,156.49533781547012 197.82548053474358,157.37834448027823 198.2996450288462,158.26837443249366 198.7607541966276,159.16523764318757 199.20870958737714,160.06874262447246 199.64341555882697,160.9786964703867 200.06477929757244,161.8949048980814 200.47271083888836,162.81717228930145 200.8671230859376,163.74530173215192 201.24793182836666,164.67909506313995 201.61505576028554,165.618352909485 201.96841649762695,166.5628747316859 202.3079385948824,167.5124588663383 202.63354956120995,168.46690256919118 202.94517987591206,169.4260020584346 203.24276300327853,170.38955255820878 203.5262354067927,171.35734834232554 203.7955365626967,172.32918277819255 204.05060897291418,173.30484837093118 204.29139817732639,174.2841368076784 204.51785276539988,175.26683900206322 204.72992438716312,176.25274513884858 204.92756776352968,177.2416447187285 205.1107406959657,178.23332660327168 205.27940407549949,179.22757906000106 205.4335218910718,180.22418980760082 205.5730612372244,181.22294606124012 205.6979923211257,182.22363457800424 205.80828846893166,183.22604170242397 205.9039261314812,184.22995341209287 205.98488488932367,185.23515536336282 206.05114745707903,186.24143293710807 206.1026996871281,187.2485712845486 206.1395305726334,188.2563553731217 206.1616322498891,189.2645700323936 206.16899999999998,190.27299999999997 206.16163224988907,191.28142996760636 206.13953057263336,192.28964462687824 206.10269968712805,193.29742871545136 206.051147457079,194.3045670628919 205.98488488932367,195.3108446366372 205.90392613148117,196.31604658790712 205.80828846893166,197.31995829757602 205.69799232112564,198.32236542199573 205.57306123722438,199.3230539387598 205.4335218910718,200.32181019239908 205.27940407549946,201.31842093999893 205.11074069596566,202.31267339672834 204.92756776352965,203.30435528127148 204.72992438716307,204.2932548611514 204.51785276539982,205.27916099793674 204.29139817732636,206.26186319232156 204.05060897291418,207.24115162906875 203.79553656269667,208.21681722180742 203.52623540679264,209.18865165767448 203.24276300327853,210.15644744179124 202.94517987591203,211.1199979415654 202.63354956120992,212.0790974308088 202.3079385948824,213.03354113366166 201.96841649762695,213.98312526831404 201.6150557602855,214.92764709051497 201.24793182836666,215.86690493686 200.86712308593758,216.8006982678481 200.47271083888836,217.7288277106985 200.06477929757241,218.6510951019186 199.64341555882697,219.56730352961324 199.20870958737714,220.47725737552747 198.76075419662757,221.3807623568124 198.29964502884616,222.27762556750633 197.82548053474355,223.1676555197218 197.338361952453,224.05066218452987 196.83839328591532,224.926457032533 196.3256812826731,225.79485307411744 195.80033541107906,226.65566489937743 195.26246783692392,227.50870871770138 194.71219339948777,228.35380239701308 194.14962958702117,229.1907655026583 193.5748965116601,230.01941933592903 192.98811688378134,230.83958697221732 192.38941598580251,231.65109329879007 191.77892164543337,232.45376505217718 191.1567642083834,233.2474308551646 190.52307651053204,234.03192125338504 189.8779938495669,234.80706875149775 189.22165395609676,235.57270784895024 188.55419696424482,236.32867507531407 187.87576538172885,237.0748090251871 187.18650405943467,237.81095039265503 186.4865601604892,238.53694200530444 185.7760831288399,239.25262885778045 185.05522465734725,239.95785814488184 184.32413865539695,240.65247929418598 183.58298121603912,241.3363439981975 182.83191058266092,242.0093062460132 182.07108711520047,242.6712223544965 181.3006732559084,243.32195099895517 180.52083349466528,243.9613532433151 179.73173433386148,244.58929256978462 178.93354425284758,245.20563490800203 178.12643367196256,245.8102486636607 177.31057491614763,246.40300474660577 176.48614217815344,246.98377659839585 175.6533114813484,247.55244021932432 174.8122606421362,248.10887419489438 173.9631692319905,248.65295972174198 173.10621853911496,249.1845806330015 172.2415915297366,249.70362342310818 171.36947280904104,250.2099772720326 170.49004858175763,250.70353406894174 169.60350661240324,251.1841884352815 168.7100361851929,251.65183774727592 167.8098280636261,252.1063821578382 166.90307444975704,252.547724617889 165.989968943158,252.9757708970771 165.0707064995841,253.39042960389847 164.14548338934856,253.7916122052091 163.21449715541752,254.17923304512763 162.27794657123272,254.5532093633235 161.33603159827175,254.91346131268702 160.38895334335473,255.2599119763775 159.4369140157061,255.59248738424554 158.48011688378133,255.91111652862634 157.51876623186743,256.21573137950026 156.55306731646638,256.5062668990181 155.58322632247132,256.78266105538717 154.6094503191442,257.0448548361153 153.63194721590475,257.2927922606108 152.65092571794005,257.5264203921348 151.66659528164436,257.74568934910354 150.67916606989814,257.9505523157386 149.68884890719676,258.1409655520624 148.69585523463746,258.3168884032372 147.70039706477507,258.47828330824507 146.70268693635543,258.6251158079075 145.7029378689366,258.757354552243 144.70136331740736,258.8749713071601 143.6981771264128,258.9779409604861 142.6935934846967,259.0662415273284 141.68782687937036,259.1398541547684 140.68109205011788,259.19876312588707 139.67360394334736,259.2429558631204 138.66557766629793,259.27242293094497 137.6572284411128,259.28715803789225 136.64877155888715,259.28715803789225 135.640422333702,259.27242293094497 134.6323960566526,259.2429558631204 133.62490794988204,259.19876312588707 132.6181731206296,259.1398541547684 131.61240651530326,259.0662415273284 130.60782287358714,258.9779409604861 129.60463668259257,258.8749713071601 128.60306213106335,258.757354552243 127.6033130636445,258.6251158079075 126.60560293522487,258.47828330824507 125.61014476536248,258.3168884032372 124.61715109280318,258.1409655520624 123.62683393010178,257.9505523157386 122.63940471835558,257.74568934910354 121.65507428205987,257.5264203921348 120.67405278409521,257.2927922606108 119.69654968085574,257.0448548361153 118.72277367752861,256.78266105538717 117.75293268353354,256.50626689901816 116.78723376813251,256.21573137950026 115.82588311621859,255.91111652862634 114.86908598429383,255.59248738424557 113.9170466566452,255.2599119763775 112.96996840172818,254.91346131268705 112.02805342876724,254.5532093633235 111.09150284458241,254.17923304512763 110.16051661065137,253.7916122052091 109.23529350041585,253.39042960389847 108.31603105684194,252.9757708970771 107.40292555024288,252.547724617889 106.49617193637386,252.10638215783823 105.59596381480704,251.65183774727592 104.70249338759672,251.18418843528153 103.81595141824229,250.70353406894174 102.93652719095888,250.2099772720326 102.0644084702633,249.70362342310818 101.19978146088496,249.1845806330015 100.34283076800943,248.652959721742 99.49373935786373,248.10887419489438 98.65268851865153,247.55244021932435 97.81985782184647,246.98377659839585 96.9954250838523,246.4030047466058 96.17956632803737,245.8102486636607 95.37245574715234,245.20563490800203 94.57426566613843,244.58929256978462 93.78516650533464,243.9613532433151 93.00532674409153,243.32195099895517 92.23491288479947,242.67122235449654 91.47408941733902,242.0093062460132 90.72301878396082,241.33634399819752 89.981861344603,240.65247929418598 89.25077534265269,239.95785814488184 88.52991687116003,239.25262885778048 87.81943983951072,238.5369420053044 87.11949594056526,237.81095039265503 86.43023461827109,237.07480902518714 85.7518030357551,236.3286750753141 85.08434604390317,235.57270784895027 84.42800615043303,234.80706875149775 83.7829234894679,234.03192125338506 83.14923579161652,233.2474308551646 82.52707835456656,232.45376505217718 81.91658401419743,231.6510932987901 81.3178831162186,230.83958697221732 80.73110348833984,230.01941933592906 80.15637041297877,229.1907655026583 79.59380660051215,228.3538023970131 79.04353216307601,227.50870871770138 78.50566458892088,226.65566489937743 77.98031871732685,225.79485307411747 77.46760671408461,224.926457032533 76.96763804754696,224.0506621845299 76.48051946525639,223.1676555197218 76.00635497115377,222.27762556750633 75.54524580337237,221.3807623568124 75.09729041262281,220.4772573755275 74.66258444117295,219.56730352961324 74.24122070242753,218.6510951019186 73.83328916111157,217.7288277106985 73.43887691406235,216.8006982678481 73.05806817163328,215.86690493686004 72.69094423971443,214.927647090515 72.33758350237298,213.98312526831407 71.99806140511755,213.03354113366166 71.67245043879,212.07909743080882 71.3608201240879,211.1199979415654 71.06323699672141,210.15644744179124 70.77976459320729,209.18865165767448 70.51046343730326,208.21681722180745 70.25539102708576,207.24115162906878 70.01460182267355,206.26186319232156 69.78814723460009,205.27916099793674 69.57607561283685,204.2932548611514 69.37843223647027,203.3043552812715 69.19525930403427,202.31267339672834 69.02659592450047,201.31842093999893 68.87247810892816,200.3218101923991 68.73293876277555,199.3230539387598 68.60800767887427,198.32236542199576 68.49771153106828,197.31995829757602 68.40207386851877,196.31604658790712 68.32111511067627,195.3108446366372 68.25485254292093,194.30456706289192 68.20330031287186,193.29742871545136 68.16646942736656,192.28964462687827 68.14436775011086,191.28142996760639 68.13699999999996,190.273 68.13699999999999,190.273" stroke="green" stroke-width="2" /><polyline fill="none" points="1.0,7.482 108.214,7.482 108.214,122.075 1.0,122.075 1.0,7.482" stroke="blue" stroke-width="2" /></svg>