<?xml version="1.0" encoding="utf-8" ?>
<svg baseProfile="full" height="188px" version="1.1" width="160px" xmlns="http://www.w3.org/2000/svg" xmlns:ev="http://www.w3.org/2001/xml-events" xmlns:xlink="http://www.w3.org/1999/xlink"><defs /><polyline fill="none" points="145.62399291992188,120.87000274658203 145.7562713623047,121.34076690673828 145.86366271972656,121.8158950805664 145.9463653564453,122.2952651977539 146.0045623779297,122.77873992919922 146.0384521484375,123.26619720458984 146.04820251464844,123.75749969482422 146.0340118408203,124.25252532958984 145.99607849121094,124.75113677978516 145.9345703125,125.25320434570312 145.84970092773438,125.75861358642578 145.7416229248047,126.2672119140625 145.61056518554688,126.77889251708984 145.45668029785156,127.29351043701172 145.28016662597656,127.81095123291016 145.0812225341797,128.33106994628906 144.8600311279297,128.85374450683594 144.6167755126953,129.37884521484375 144.3516387939453,129.90623474121094 144.0648193359375,130.435791015625 143.7565155029297,130.96739196777344 143.4268798828125,131.5009002685547 143.07614135742188,132.0361785888672 142.70445251464844,132.5731201171875 142.31202697753906,133.111572265625 141.89903259277344,133.6514129638672 141.46568298339844,134.19252014160156 141.0121307373047,134.73475646972656 140.53860473632812,135.27798461914062 140.04525756835938,135.8220977783203 139.53228759765625,136.36695861816406 138.99989318847656,136.91241455078125 138.4482421875,137.4583740234375 137.87754821777344,138.0046844482422 137.28797912597656,138.55120849609375 136.6797332763672,139.09783935546875 136.05299377441406,139.64443969726562 135.407958984375,140.1908721923828 134.7447967529297,140.7370147705078 134.06370544433594,141.28273010253906 133.36488342285156,141.82789611816406 132.64849853515625,142.3723907470703 131.9147491455078,142.9160614013672 131.163818359375,143.45880126953125 130.39588928222656,144.00047302246094 129.61117553710938,144.54095458984375 128.80984497070312,145.08010864257812 127.99208068847656,145.6177978515625 127.1580810546875,146.15390014648438 126.30803680419922,146.68829345703125 125.44212341308594,147.22084045410156 124.56053161621094,147.75140380859375 123.66345977783203,148.27987670898438 122.75108337402344,148.8061065673828 121.82360076904297,149.32998657226562 120.88119506835938,149.8513641357422 119.9240493774414,150.37013244628906 118.95235443115234,150.88613891601562 117.96630859375,151.39927673339844 116.96607971191406,151.90939331054688 115.95187377929688,152.4163818359375 114.92386627197266,152.9200897216797 113.88225555419922,153.42041015625 112.82721710205078,153.91720581054688 111.75894927978516,154.41033935546875 110.6776351928711,154.89968872070312 109.58346557617188,155.38511657714844 108.47663116455078,155.8665008544922 107.35730743408203,156.34371948242188 106.22569274902344,156.81663513183594 105.08197021484375,157.28512573242188 103.92633056640625,157.74903869628906 102.75896453857422,158.20826721191406 101.5800552368164,158.6626739501953 100.38978576660156,159.1121368408203 99.1883544921875,159.55650329589844 97.97594451904297,159.9956817626953 96.75273895263672,160.42950439453125 95.51893615722656,160.85787963867188 94.27471923828125,161.2806396484375 93.02027130126953,161.6976776123047 91.75578308105469,162.10885620117188 90.4814453125,162.51406860351562 89.19744110107422,162.91314697265625 87.90396118164062,163.3059844970703 86.6011962890625,163.6924591064453 85.2893295288086,164.07241821289062 83.96854400634766,164.4457550048828 82.6390380859375,164.81231689453125 81.3010025024414,165.1719970703125 79.97520446777344,165.51931762695312 78.65264892578125,165.85682678222656 77.33354187011719,166.18453979492188 76.01811981201172,166.5024871826172 74.70660400390625,166.81065368652344 73.39923095703125,167.10910034179688 72.09620666503906,167.39779663085938 70.79777526855469,167.6768035888672 69.504150390625,167.94610595703125 68.21556091308594,168.2057342529297 66.93223571777344,168.45570373535156 65.6543960571289,168.69602966308594 64.38227081298828,168.92672729492188 63.116085052490234,169.1478271484375 61.85606002807617,169.3593292236328 60.6024284362793,169.56126403808594 59.35540771484375,169.75364685058594 58.115230560302734,169.9364776611328 56.88212203979492,170.10980224609375 55.65630340576172,170.2736053466797 54.43800354003906,170.4279327392578 53.22744369506836,170.57278442382812 52.02485656738281,170.7081756591797 50.83046340942383,170.83413696289062 49.64448928833008,170.95066833496094 48.467159271240234,171.0578155517578 47.298702239990234,171.1555633544922 46.13934326171875,171.2439422607422 44.98930358886719,171.32296752929688 43.84881591796875,171.39266967773438 42.71809768676758,171.4530487060547 41.597381591796875,171.50411987304688 40.48688888549805,171.54591369628906 39.38684844970703,171.5784454345703 38.297481536865234,171.60171508789062 37.219017028808594,171.61575317382812 36.15167999267578,171.62059020996094 35.09569549560547,171.6162109375 34.05128860473633,171.6026611328125 33.01868438720703,171.5799560546875 31.998111724853516,171.54808044433594 30.98979377746582,171.50709533691406 29.993955612182617,171.4569854736328 29.01082420349121,171.3977813720703 28.040624618530273,171.32949829101562 27.08358383178711,171.2521514892578 26.139923095703125,171.165771484375 25.20987319946289,171.07034301757812 24.293657302856445,170.96591186523438 23.39150047302246,170.8524932861328 22.503629684448242,170.73008728027344 21.63027000427246,170.59873962402344 20.77164649963379,170.45843505859375 19.9279842376709,170.3092041015625 19.099510192871094,170.15106201171875 18.286449432373047,169.98402404785156 17.48902702331543,169.80812072753906 16.707469940185547,169.6233673095703 15.94200325012207,169.4297637939453 15.192852020263672,169.2273406982422 14.460241317749023,169.01609802246094 13.74439811706543,168.79608154296875 13.045546531677246,168.56727600097656 12.363913536071777,168.32972717285156 11.699724197387695,168.08343505859375 11.053204536437988,167.82843017578125 10.424578666687012,167.56471252441406 9.81407356262207,167.2923126220703 9.221914291381836,167.01123046875 8.648326873779297,166.7215118408203 8.093535423278809,166.4231414794922 7.557767868041992,166.1161651611328 7.041248321533203,165.80056762695312 6.54420280456543,165.47640991210938 6.066856384277344,165.14366149902344 5.609435081481934,164.80238342285156 5.1721649169921875,164.4525604248047 4.755270481109619,164.09420776367188 4.358978271484375,163.7273712158203 3.983513116836548,163.35205078125 3.629101037979126,162.96826171875 3.2959675788879395,162.57601928710938 2.9843382835388184,162.17535400390625 2.6944386959075928,161.76626586914062 2.426494598388672,161.34878540039062 2.1807315349578857,160.9229278564453 1.9573748111724854,160.4886932373047 1.7566503286361694,160.04611206054688 1.5787835121154785,159.59521484375 1.4240000247955322,159.13600158691406 1.291727066040039,158.6652374267578 1.1843335628509521,158.1901092529297 1.1016316413879395,157.7107391357422 1.0434335470199585,157.22726440429688 1.0095512866973877,156.73980712890625 0.9997970461845398,156.24850463867188 1.0139830112457275,155.75347900390625 1.0519214868545532,155.25486755371094 1.113424301147461,154.75279235839844 1.1983039379119873,154.2473907470703 1.3063722848892212,153.73878479003906 1.4374417066574097,153.22711181640625 1.5913242101669312,152.7124786376953 1.7678319215774536,152.19505310058594 1.9667772054672241,151.6749267578125 2.187972068786621,151.1522674560547 2.4312286376953125,150.62716674804688 2.6963589191436768,150.09976196289062 2.98317551612854,149.57020568847656 3.291490316390991,149.03860473632812 3.621115207672119,148.50509643554688 3.97186279296875,147.96981811523438 4.343544960021973,147.43289184570312 4.735974311828613,146.89442443847656 5.148962020874023,146.35458374023438 5.5823211669921875,145.81349182128906 6.035863876342773,145.27125549316406 6.509401798248291,144.72801208496094 7.002747058868408,144.18389892578125 7.515712261199951,143.63905334472656 8.04810905456543,143.0935821533203 8.599750518798828,142.54762268066406 9.170448303222656,142.00132751464844 9.760013580322266,141.4547882080078 10.36825942993164,140.9081573486328 10.994998931884766,140.361572265625 11.640042304992676,139.8151397705078 12.303202629089355,139.2689971923828 12.984292984008789,138.7232666015625 13.683123588562012,138.1781005859375 14.399508476257324,137.63360595703125 15.133257865905762,137.08993530273438 15.884185791015625,136.5471954345703 16.652103424072266,136.00552368164062 17.43682289123535,135.4650421142578 18.238157272338867,134.9259033203125 19.055917739868164,134.38819885253906 19.889915466308594,133.8520965576172 20.739965438842773,133.3177032470703 21.605876922607422,132.78517150878906 22.487464904785156,132.2545928955078 23.384538650512695,131.7261199951172 24.296913146972656,131.19989013671875 25.224397659301758,130.67601013183594 26.166807174682617,130.15463256835938 27.123950958251953,129.6358642578125 28.09564208984375,129.11985778808594 29.081695556640625,128.6067352294922 30.081918716430664,128.0966033935547 31.096128463745117,127.5896224975586 32.1241340637207,127.08590698242188 33.165748596191406,126.5855941772461 34.22078323364258,126.08879852294922 35.2890510559082,125.59566497802734 36.370361328125,125.10631561279297 37.46453094482422,124.62088012695312 38.571372985839844,124.13948822021484 39.69069290161133,123.66227722167969 40.82230758666992,123.18936157226562 41.966026306152344,122.72087860107422 43.121665954589844,122.2569580078125 44.28903579711914,121.7977294921875 45.46794509887695,121.34332275390625 46.65821075439453,120.89386749267578 47.85964584350586,120.44949340820312 49.07205581665039,120.01032257080078 50.295257568359375,119.57649230957031 51.5290641784668,119.14812469482422 52.773284912109375,118.7253646850586 54.027732849121094,118.30831909179688 55.29221725463867,117.89714050292969 56.566558837890625,117.49193572998047 57.85055923461914,117.09285736083984 59.144039154052734,116.70001220703125 60.446807861328125,116.31354522705078 61.75867462158203,115.93357849121094 63.07945251464844,115.56024932861328 64.4089584350586,115.19367980957031 65.74700164794922,114.83399963378906 67.07279205322266,114.48667907714844 68.39535522460938,114.149169921875 69.7144546508789,113.82145690917969 71.02987670898438,113.5035171508789 72.34139251708984,113.19534301757812 73.64877319335938,112.89690399169922 74.95178985595703,112.60820007324219 76.25022888183594,112.3292007446289 77.54385375976562,112.05989837646484 78.83243560791016,111.8002700805664 80.11576843261719,111.55030059814453 81.39360046386719,111.30997467041016 82.66573333740234,111.07926940917969 83.93191528320312,110.85816955566406 85.19194030761719,110.64666748046875 86.44557189941406,110.44473266601562 87.69258880615234,110.25235748291016 88.93276977539062,110.06951904296875 90.16587829589844,109.89620208740234 91.39169311523438,109.73239135742188 92.61000061035156,109.57807159423828 93.820556640625,109.43321990966797 95.02313995361328,109.2978286743164 96.21753692626953,109.17186737060547 97.40351104736328,109.05532836914062 98.58084106445312,108.94818878173828 99.74929809570312,108.8504409790039 100.90866088867188,108.7620620727539 102.0586929321289,108.68302917480469 103.19918823242188,108.61333465576172 104.32990264892578,108.5529556274414 105.45061492919922,108.50187683105469 106.56111145019531,108.4600830078125 107.6611557006836,108.42755889892578 108.75051879882812,108.40428161621094 109.82898712158203,108.39024353027344 110.89632415771484,108.38541412353516 111.95230865478516,108.38977813720703 112.99671173095703,108.40333557128906 114.02931213378906,108.4260482788086 115.04988861083984,108.45791625976562 116.0582046508789,108.49890899658203 117.05404663085938,108.54901123046875 118.03717803955078,108.60821533203125 119.00737762451172,108.67649841308594 119.96441650390625,108.75384521484375 120.90807342529297,108.8402328491211 121.83812713623047,108.93565368652344 122.75434112548828,109.04008483886719 123.65650177001953,109.15350341796875 124.54437255859375,109.27590942382812 125.41773223876953,109.40726470947266 126.27635192871094,109.54756927490234 127.1200180053711,109.6968002319336 127.948486328125,109.85493469238281 128.7615509033203,110.02196502685547 129.55897521972656,110.1978759765625 130.3405303955078,110.38263702392578 131.1060028076172,110.57624053955078 131.8551483154297,110.7786636352539 132.58775329589844,110.98989868164062 133.30360412597656,111.20992279052734 134.00245666503906,111.438720703125 134.68408203125,111.67626953125 135.34828186035156,111.92256164550781 135.9947967529297,112.17757415771484 136.62342834472656,112.44129180908203 137.2339324951172,112.71369171142578 137.82608032226562,112.99476623535156 138.39967346191406,113.28449249267578 138.9544677734375,113.58285522460938 139.490234375,113.88983917236328 140.00674438476562,114.2054214477539 140.50379943847656,114.52959442138672 140.98114013671875,114.86233520507812 141.43856811523438,115.20362091064453 141.87583923339844,115.5534439086914 142.292724609375,115.91178894042969 142.68902587890625,116.27862548828125 143.06448364257812,116.6539535522461 143.4188995361328,117.0377426147461 143.7520294189453,117.42997741699219 144.06365966796875,117.83065032958984 144.3535614013672,118.23973083496094 144.6215057373047,118.65721893310547 144.8672637939453,119.08307647705078 145.0906219482422,119.51730346679688 145.29135131835938,119.95987701416016 145.46922302246094,120.41078186035156 145.62399291992188,120.87000274658203" stroke="red" stroke-width="2" /><polyline fill="none" points="100.12100219726562,37.63100051879883 99.91371154785156,36.58247756958008 99.67743682861328,35.544612884521484 99.41255187988281,34.5174446105957 99.11945343017578,33.501014709472656 98.79850769042969,32.4953727722168 98.45011138916016,31.50055503845215 98.07463836669922,30.51660919189453 97.67247009277344,29.543575286865234 97.24400329589844,28.581499099731445 96.78960418701172,27.63042449951172 96.30966186523438,26.690391540527344 95.80455780029297,25.761444091796875 95.27467346191406,24.8436279296875 94.72039794921875,23.936983108520508 94.1421127319336,23.041555404663086 93.54019165039062,22.157386779785156 92.91503143310547,21.284521102905273 92.26699829101562,20.42300033569336 91.61836242675781,19.5975341796875 90.95692443847656,18.78847312927246 90.2826919555664,17.995868682861328 89.5956802368164,17.219768524169922 88.89590454101562,16.460222244262695 88.1833724975586,15.717278480529785 87.45809936523438,14.990984916687012 86.72010040283203,14.281390190124512 85.9693832397461,13.588544845581055 85.20597076416016,12.912496566772461 84.42986297607422,12.253294944763184 83.64107513427734,11.61098861694336 82.8396224975586,10.985625267028809 82.02552032470703,10.377254486083984 81.19877624511719,9.785924911499023 80.35941314697266,9.211686134338379 79.5074234008789,8.654586791992188 78.64283752441406,8.11467456817627 77.76566314697266,7.591999053955078 76.87591552734375,7.086609363555908 75.97359466552734,6.5985541343688965 75.05873107910156,6.1278815269470215 74.1313247680664,5.674641132354736 73.19139099121094,5.238881587982178 72.23894500732422,4.820651531219482 71.27400207519531,4.420000076293945 70.25533294677734,4.021543502807617 69.23202514648438,3.646458864212036 68.20402526855469,3.295015811920166 67.17129516601562,2.9674832820892334 66.13378143310547,2.6641311645507812 65.09142303466797,2.385228395462036 64.04418182373047,2.131044864654541 62.99200439453125,1.9018498659133911 61.93484115600586,1.6979126930236816 60.872642517089844,1.519502878189087 59.80535888671875,1.3668898344039917 58.73293685913086,1.2403428554534912 57.655330657958984,1.1401315927505493 56.572486877441406,1.0665254592895508 55.48435974121094,1.0197937488555908 54.39089584350586,1.0002058744430542 53.292049407958984,1.0080313682556152 52.187767028808594,1.0435395240783691 51.077999114990234,1.1069999933242798 49.99195098876953,1.195110559463501 48.91510772705078,1.3074473142623901 47.8475456237793,1.4440175294876099 46.78935241699219,1.6048287153244019 45.7406005859375,1.7898881435394287 44.70137405395508,1.999203085899353 43.6717529296875,2.232781171798706 42.65181350708008,2.4906296730041504 41.641639709472656,2.7727558612823486 40.64131164550781,3.079167127609253 39.650901794433594,3.4098711013793945 38.670501708984375,3.7648749351501465 37.70018005371094,4.144186019897461 36.74002456665039,4.547811985015869 35.79010772705078,4.975759983062744 34.85051727294922,5.428037166595459 33.921329498291016,5.904651165008545 33.00262451171875,6.405609607696533 32.094482421875,6.930919170379639 31.19698143005371,7.480587959289551 30.310203552246094,8.054622650146484 29.434226989746094,8.653032302856445 28.56913185119629,9.275821685791016 27.71500015258789,9.92300033569336 26.899141311645508,10.57283878326416 26.103591918945312,11.238485336303711 25.328271865844727,11.919788360595703 24.573101043701172,12.616597175598145 23.838003158569336,13.32876205444336 23.122894287109375,14.056130409240723 22.427698135375977,14.798551559448242 21.752336502075195,15.555875778198242 21.09672737121582,16.327951431274414 20.46079444885254,17.114627838134766 19.84445571899414,17.915752410888672 19.247634887695312,18.731178283691406 18.670249938964844,19.560749053955078 18.11222267150879,20.404319763183594 17.573474884033203,21.261735916137695 17.05392837524414,22.13284683227539 16.553499221801758,23.017501831054688 16.072113037109375,23.915550231933594 15.609688758850098,24.826841354370117 15.166147232055664,25.751224517822266 14.741409301757812,26.688549041748047 14.335394859313965,27.638662338256836 13.948026657104492,28.601415634155273 13.5792236328125,29.576656341552734 13.22890853881836,30.56423568725586 12.897000312805176,31.56399917602539 12.58057975769043,32.59538269042969 12.291787147521973,33.62875747680664 12.029688835144043,34.6640625 11.79334831237793,35.70123291015625 11.581833839416504,36.740203857421875 11.394209861755371,37.78091049194336 11.229541778564453,38.82329177856445 11.086895942687988,39.867279052734375 10.965338706970215,40.912811279296875 10.863934516906738,41.95982360839844 10.781749725341797,43.00825119018555 10.717850685119629,44.05802917480469 10.67130184173584,45.109092712402344 10.641169548034668,46.161380767822266 10.626520156860352,47.21482849121094 10.626418113708496,48.269371032714844 10.639930725097656,49.3249397277832 10.666122436523438,50.38147735595703 10.704059600830078,51.43891906738281 10.7528076171875,52.4971923828125 10.811432838439941,53.556243896484375 10.878999710083008,54.61600112915039 10.95966625213623,55.70797348022461 11.053333282470703,56.79929733276367 11.159500122070312,57.88981246948242 11.277667045593262,58.9793701171875 11.407333374023438,60.06781768798828 11.54800033569336,61.154998779296875 11.699166297912598,62.24076461791992 11.860333442687988,63.3249626159668 12.031000137329102,64.40744018554688 12.21066665649414,65.488037109375 12.398833274841309,66.56661224365234 12.595000267028809,67.64299774169922 12.804884910583496,68.75823211669922 13.019524574279785,69.87271118164062 13.23932933807373,70.98632049560547 13.46470832824707,72.09895324707031 13.696069717407227,73.21049499511719 13.933822631835938,74.32083892822266 14.178375244140625,75.42987823486328 14.430136680603027,76.53748321533203 14.6895170211792,77.6435546875 14.956924438476562,78.74798583984375 15.232767105102539,79.85065460205078 15.517455101013184,80.95145416259766 15.811396598815918,82.0502700805664 16.114999771118164,83.14700317382812 16.40046501159668,84.14765167236328 16.69234848022461,85.1456069946289 16.990652084350586,86.14086151123047 17.295377731323242,87.13341522216797 17.606525421142578,88.12328338623047 17.924097061157227,89.1104507446289 18.248096466064453,90.09491729736328 18.578523635864258,91.07669830322266 18.915380477905273,92.0557861328125 19.2586669921875,93.03218078613281 19.608388900756836,94.0058822631836 19.96454429626465,94.97689056396484 20.327136993408203,95.9452133178711 20.696168899536133,96.91084289550781 21.071638107299805,97.873779296875 21.453550338745117,98.83403778076172 21.84190559387207,99.7916030883789 22.236705780029297,100.74647521972656 22.63795280456543,101.69866943359375 23.04564666748047,102.64817810058594 23.45979118347168,103.59500122070312 23.880388259887695,104.53913879394531 24.307437896728516,105.4805908203125 24.740942001342773,106.41936492919922 25.180904388427734,107.35545349121094 25.627323150634766,108.28886413574219 26.080202102661133,109.21958923339844 26.53954315185547,110.14763641357422 27.005348205566406,111.07300567626953 27.477617263793945,111.99569702148438 27.95635414123535,112.91571044921875 28.441558837890625,113.83304595947266 28.9332332611084,114.74771118164062 29.431379318237305,115.6596908569336 29.93600082397461,116.56900024414062 30.536054611206055,117.62449645996094 31.149778366088867,118.6726303100586 31.774999618530273,119.7143783569336 32.4095573425293,120.75070190429688 33.05127716064453,121.78258514404297 33.698001861572266,122.81099700927734 34.93600082397461,124.72699737548828 35.71937561035156,125.92078399658203 36.5260009765625,127.13424682617188 37.26587677001953,128.22434997558594 37.8489990234375,129.04800415039062 38.49109649658203,129.92283630371094 39.128868103027344,130.80105590820312 39.76519012451172,131.68032836914062 40.402931213378906,132.55831909179688 41.044960021972656,133.4326934814453 41.69415283203125,134.30111694335938 42.35337448120117,135.1612548828125 43.0255012512207,136.01075744628906 43.713401794433594,136.84732055664062 44.41994857788086,137.6685791015625 45.14801025390625,138.4722137451172 45.90045928955078,139.25588989257812 46.6801643371582,140.0172576904297 47.4900016784668,140.75399780273438 48.34622573852539,141.45484924316406 49.2191162109375,142.0722198486328 50.106689453125,142.6055145263672 51.006961822509766,143.05416870117188 51.91795349121094,143.41761779785156 52.837684631347656,143.69528198242188 53.76417541503906,143.88658142089844 54.69544219970703,143.990966796875 55.62950897216797,144.00784301757812 56.564388275146484,143.93663024902344 57.498104095458984,143.7767791748047 58.428672790527344,143.5277099609375 59.3541145324707,143.1888427734375 60.2724494934082,142.75961303710938 61.181697845458984,142.2394561767578 62.079872131347656,141.6277618408203 62.96500015258789,140.9239959716797 63.788360595703125,140.19020080566406 64.57740783691406,139.42807006835938 65.33442687988281,138.63970947265625 66.06171417236328,137.82717895507812 66.76155853271484,136.9925994873047 67.43627166748047,136.13804626464844 68.08812713623047,135.265625 68.71942901611328,134.37742614746094 69.33246612548828,133.47552490234375 69.92953491210938,132.56204223632812 70.51293182373047,131.63905334472656 71.0849380493164,130.7086639404297 71.64786529541016,129.77294921875 72.2040023803711,128.83399963378906 72.77545928955078,127.85147857666016 73.33309173583984,126.8693618774414 73.87820434570312,125.88723754882812 74.412109375,124.90467071533203 74.93611907958984,123.92122650146484 75.4515380859375,122.93648529052734 75.95968627929688,121.95001220703125 76.46187591552734,120.96137237548828 76.95941162109375,119.97014617919922 77.45359802246094,118.97590637207031 77.94576263427734,117.97821044921875 78.43720245361328,116.97663879394531 78.92923736572266,115.97076416015625 79.42317199707031,114.96015167236328 79.92032623291016,113.94437408447266 80.4219970703125,112.9229965209961 81.62999725341797,110.55500030517578 82.31015014648438,109.24649047851562 82.98355865478516,107.95659637451172 83.6261215209961,106.72374725341797 84.21377563476562,105.58641052246094 84.72242736816406,104.5830078125 85.12799835205078,103.75199890136719 85.57150268554688,102.80512237548828 86.00813293457031,101.85560607910156 86.43809509277344,100.90352630615234 86.86157989501953,99.94898223876953 87.2787857055664,98.9920425415039 87.68990325927734,98.03278350830078 88.09513854980469,97.07129669189453 88.49468231201172,96.10765838623047 88.88872528076172,95.1419448852539 89.27747344970703,94.17424011230469 89.66111755371094,93.20462799072266 90.03984832763672,92.2331771850586 90.41387176513672,91.2599868774414 90.78337860107422,90.28512573242188 91.1485595703125,89.30867767333984 91.5096206665039,88.33071899414062 91.86675262451172,87.35133361816406 92.22015380859375,86.37060546875 92.57001495361328,85.38860321044922 92.91654205322266,84.40542602539062 93.25991821289062,83.421142578125 93.60034942626953,82.43582916259766 93.93803405761719,81.44957733154297 94.27315521240234,80.46246337890625 94.60591888427734,79.47457122802734 94.93651580810547,78.48597717285156 95.26514434814453,77.49675750732422 95.59200286865234,76.50700378417969 95.92806243896484,75.47179412841797 96.25545501708984,74.43324279785156 96.57394409179688,73.39144897460938 96.8833236694336,72.34651184082031 97.18338012695312,71.29852294921875 97.47389221191406,70.24758911132812 97.754638671875,69.19381713867188 98.0254135131836,68.13729095458984 98.28600311279297,67.078125 98.53617858886719,66.01641082763672 98.7757339477539,64.9522476196289 99.00444793701172,63.8857421875 99.22209930419922,62.816986083984375 99.4284896850586,61.7460823059082 99.6233901977539,60.673133850097656 99.80658721923828,59.598236083984375 99.97785949707031,58.52149200439453 100.13700103759766,57.44300079345703 100.2858657836914,56.346031188964844 100.4212875366211,55.24729537963867 100.54247283935547,54.147037506103516 100.64863586425781,53.045509338378906 100.73899841308594,51.942955017089844 100.81277465820312,50.839630126953125 100.86918640136719,49.73577880859375 100.90743255615234,48.63165283203125 100.92675018310547,47.52750015258789 100.92633819580078,46.42356872558594 100.90542602539062,45.32011032104492 100.86322021484375,44.217369079589844 100.79894256591797,43.1156005859375 100.71180725097656,42.01504898071289 100.60102844238281,40.91596221923828 100.4658203125,39.8185920715332 100.30540466308594,38.72319030761719 100.11900329589844,37.630001068115234 100.121,37.631" stroke="green" stroke-width="2" /><polyline fill="none" points="46.374000549316406,25.110000610351562 47.32564926147461,24.53377342224121 48.29943084716797,24.01366424560547 49.29420471191406,23.548131942749023 50.308815002441406,23.135631561279297 51.342124938964844,22.774625778198242 52.392982482910156,22.46356773376465 53.46024703979492,22.200918197631836 54.54276657104492,21.985136032104492 55.639400482177734,21.81467628479004 56.749000549316406,21.687999725341797 56.938,21.688 58.954124450683594,21.649749755859375 60.88999938964844,21.937000274658203 62.019386291503906,22.252229690551758 63.09146499633789,22.620555877685547 64.10690307617188,23.039546966552734 65.06636047363281,23.50676918029785 65.97049713134766,24.019786834716797 66.81998443603516,24.576168060302734 67.61548614501953,25.173479080200195 68.35765075683594,25.809284210205078 69.04715728759766,26.48115348815918 69.6846694946289,27.186649322509766 70.27083587646484,27.923341751098633 70.80632781982422,28.68879508972168 71.29181671142578,29.480575561523438 71.72795104980469,30.296249389648438 72.11540222167969,31.133384704589844 72.454833984375,31.989545822143555 72.74691009521484,32.862300872802734 72.99229431152344,33.74921417236328 73.19164276123047,34.64785385131836 73.34562683105469,35.5557861328125 73.45490264892578,36.470577239990234 73.5201416015625,37.389793395996094 73.54199981689453,38.31100082397461 73.5204086303711,39.400970458984375 73.45478820800781,40.47403335571289 73.34530639648438,41.52988052368164 73.19214630126953,42.56818771362305 72.9954605102539,43.58864212036133 72.75543212890625,44.59092330932617 72.47221374511719,45.5747184753418 72.14598846435547,46.539710998535156 71.77692413330078,47.4855842590332 71.36518096923828,48.412017822265625 70.91093444824219,49.31869888305664 70.41434478759766,50.20530700683594 69.87559509277344,51.071529388427734 69.29483795166016,51.917049407958984 68.67225646972656,52.741546630859375 68.00801086425781,53.544708251953125 67.30227661132812,54.32621383666992 66.55521392822266,55.085750579833984 65.76699829101562,55.823001861572266 64.92878723144531,56.54475402832031 64.07098388671875,57.220062255859375 63.19304656982422,57.84600830078125 62.2944221496582,58.4196662902832 61.37455368041992,58.9381103515625 60.43290328979492,59.39842224121094 59.46891784667969,59.79767990112305 58.4820442199707,60.132957458496094 57.471736907958984,60.401336669921875 56.437442779541016,60.59988784790039 55.37862014770508,60.7256965637207 54.29471206665039,60.77583312988281 53.18517303466797,60.74737548828125 52.0494499206543,60.63740539550781 50.887001037597656,60.44300079345703 49.89919662475586,60.216285705566406 48.93773651123047,59.941158294677734 48.00370788574219,59.6190185546875 47.09819793701172,59.251277923583984 46.222286224365234,58.83933639526367 45.3770637512207,58.38460159301758 44.5636100769043,57.88847732543945 43.783016204833984,57.35236740112305 43.03636169433594,56.77768325805664 42.32473373413086,56.16582107543945 41.64922332763672,55.518192291259766 41.01090621948242,54.83620071411133 40.41087341308594,54.12125015258789 39.85021209716797,53.3747444152832 39.33000183105469,52.59809494018555 38.8513298034668,51.79269790649414 38.415283203125,50.959964752197266 38.022945404052734,50.10129928588867 37.67539978027344,49.21810531616211 37.37373733520508,48.311790466308594 37.11903762817383,47.38375473022461 36.91238784790039,46.43540954589844 36.75487518310547,45.46815490722656 36.6475830078125,44.4833984375 36.59159469604492,43.4825439453125 36.5880012512207,42.46699905395508 36.636775970458984,41.36616134643555 36.73289489746094,40.2883186340332 36.87619400024414,39.233726501464844 37.06651306152344,38.202640533447266 37.303688049316406,37.1953125 37.58755874633789,36.21200180053711 37.91796112060547,35.25295639038086 38.294734954833984,34.31843948364258 38.71772003173828,33.4087028503418 39.18674850463867,32.52399826049805 39.701663970947266,31.664587020874023 40.26230239868164,30.830720901489258 40.86850357055664,30.02265167236328 41.520103454589844,29.24064064025879 42.21693801879883,28.48493766784668 42.95884704589844,27.755800247192383 43.745670318603516,27.053482055664062 44.577247619628906,26.37824058532715 45.45341110229492,25.730327606201172 46.374000549316406,25.110000610351562 46.374,25.11" stroke="blue" stroke-width="2" /></svg>