<?xml version="1.0" encoding="utf-8" ?>
<svg baseProfile="full" height="181px" version="1.1" width="266px" xmlns="http://www.w3.org/2000/svg" xmlns:ev="http://www.w3.org/2001/xml-events" xmlns:xlink="http://www.w3.org/1999/xlink"><defs /><polyline fill="none" points="40.832000732421875,126.12999725341797 39.296810150146484,126.10030364990234 37.82154846191406,126.03954315185547 36.407474517822266,125.94754791259766 35.055850982666016,125.82416534423828 33.76793670654297,125.66924285888672 32.54499435424805,125.48261260986328 31.388277053833008,125.26412963867188 30.299047470092773,125.01362609863281 29.278566360473633,124.73094940185547 28.328092575073242,124.41594696044922 27.448884963989258,124.06845092773438 26.6422061920166,123.68830871582031 25.909311294555664,123.27536010742188 25.251462936401367,122.82946014404297 24.669921875,122.35043334960938 24.165943145751953,121.838134765625 23.74079132080078,121.29239654541016 23.395723342895508,120.71307373046875 23.131999969482422,120.0999984741211 22.950149536132812,119.44478607177734 22.855606079101562,118.76428985595703 22.84723472595215,118.0591812133789 22.923898696899414,117.33013916015625 23.084463119506836,116.57783508300781 23.327791213989258,115.80293273925781 23.652746200561523,115.00611114501953 24.058195114135742,114.18804168701172 24.543001174926758,113.34939575195312 25.106027603149414,112.49083709716797 25.746139526367188,111.61305236816406 26.462202072143555,110.7166976928711 27.253076553344727,109.80245208740234 28.117630004882812,108.8709945678711 29.054725646972656,107.92298126220703 30.0632266998291,106.95909118652344 31.142000198364258,105.9800033569336 31.471778869628906,107.00148010253906 31.815340042114258,108.01730346679688 32.172584533691406,109.02737426757812 32.54341125488281,110.0316162109375 32.927730560302734,111.02994537353516 33.325439453125,112.02227783203125 33.73644256591797,113.0085220336914 34.16064453125,113.98859405517578 34.59794616699219,114.96241760253906 35.04825210571289,115.9299087524414 35.5114631652832,116.89097595214844 35.98748016357422,117.84554290771484 36.47621154785156,118.79351043701172 36.97755432128906,119.73481750488281 37.491416931152344,120.66935729980469 38.017696380615234,121.59706115722656 38.55630111694336,122.51783752441406 39.10713195800781,123.43160247802734 39.67008972167969,124.33827209472656 40.245079040527344,125.2377700805664 40.832000732421875,126.12999725341797" stroke="red" stroke-width="2" /><polyline fill="none" points="204.66200256347656,68.7699966430664 204.46058654785156,67.73135375976562 204.24508666992188,66.69722747802734 204.01559448242188,65.66769409179688 203.77223205566406,64.64285278320312 203.5150909423828,63.62279510498047 203.2442626953125,62.607601165771484 202.95985412597656,61.59736251831055 202.6619415283203,60.592166900634766 202.3506622314453,59.59210968017578 202.0260772705078,58.59727096557617 201.6883087158203,57.60774230957031 201.33743286132812,56.62361526489258 200.97357177734375,55.64497756958008 200.59681701660156,54.67191696166992 200.207275390625,53.704524993896484 199.80502319335938,52.74288558959961 199.39016723632812,51.787086486816406 198.9628143310547,50.837223052978516 198.5230712890625,49.89338302612305 198.07101440429688,48.955650329589844 197.60675048828125,48.02411651611328 197.13037109375,47.09886932373047 196.64199829101562,46.18000030517578 198.13339233398438,46.18376159667969 199.57257080078125,46.21512985229492 200.95846557617188,46.274227142333984 202.29005432128906,46.361175537109375 203.56625366210938,46.47610092163086 204.78602600097656,46.61912536621094 205.94830322265625,46.79037094116211 207.05201721191406,46.989959716796875 208.0961456298828,47.218017578125 209.07960510253906,47.474666595458984 210.0013427734375,47.76002883911133 210.8603057861328,48.07422637939453 211.6554412841797,48.41738510131836 212.3856964111328,48.78963088989258 213.05001831054688,49.191078186035156 213.6473388671875,49.621856689453125 214.17660522460938,50.082088470458984 214.63674926757812,50.571895599365234 215.02674865722656,51.091400146484375 215.3455047607422,51.64072799682617 215.5919952392578,52.220001220703125 215.7628936767578,52.82535171508789 215.85903930664062,53.45246124267578 215.8813018798828,54.10078811645508 215.83058166503906,54.769771575927734 215.707763671875,55.458866119384766 215.5137481689453,56.16752243041992 215.24940490722656,56.89518356323242 214.91563415527344,57.64130783081055 214.5133056640625,58.40533447265625 214.0433349609375,59.18672180175781 213.506591796875,59.98491287231445 212.90394592285156,60.79935836791992 212.236328125,61.62950897216797 211.5045928955078,62.474815368652344 210.7096405029297,63.33472442626953 209.85235595703125,64.20868682861328 208.93362426757812,65.09614562988281 207.95433044433594,65.9965591430664 206.91537475585938,66.90937042236328 205.817626953125,67.83403778076172 204.66200256347656,68.7699966430664 204.662,68.77" stroke="green" stroke-width="2" /><polyline fill="none" points="204.66200256347656,68.7699966430664 204.1339111328125,69.18720245361328 203.59478759765625,69.6064453125 203.0447235107422,70.02769470214844 202.48379516601562,70.45088958740234 201.91207885742188,70.87599182128906 201.32965087890625,71.30294799804688 200.736572265625,71.7317123413086 200.13294982910156,72.16223907470703 199.51882934570312,72.594482421875 198.89430236816406,73.02838897705078 198.2594451904297,73.46391296386719 197.6143341064453,73.90101623535156 196.9590606689453,74.33963775634766 196.29367065429688,74.77973937988281 195.61825561523438,75.22126770019531 194.93289184570312,75.6641845703125 194.2376708984375,76.10843658447266 193.5326385498047,76.55397033691406 192.81790161132812,77.00074768066406 192.09352111816406,77.44872283935547 191.3595733642578,77.89784240722656 190.6161346435547,78.34805297851562 189.86328125,78.79932403564453 189.10110473632812,79.25159454345703 188.3296661376953,79.70481872558594 187.54905700683594,80.1589584350586 186.75933837890625,80.61396026611328 185.96058654785156,81.06977081298828 185.15289306640625,81.52635192871094 184.33631896972656,81.98365020751953 183.5109405517578,82.44161987304688 182.67684936523438,82.90022277832031 181.83412170410156,83.3593978881836 180.98281860351562,83.81909942626953 180.12303161621094,84.27928924560547 179.25482177734375,84.73991394042969 178.37828063964844,85.200927734375 177.4934844970703,85.66227722167969 176.60049438476562,86.1239242553711 175.69940185546875,86.5858154296875 174.790283203125,87.04791259765625 173.87319946289062,87.5101547241211 172.94825744628906,87.97250366210938 172.0155029296875,88.43490600585938 171.07501220703125,88.8973159790039 170.12689208984375,89.35969543457031 169.17120361328125,89.82198333740234 168.2080078125,90.28414154052734 167.23741149902344,90.7461166381836 166.25946044921875,91.20787048339844 165.27426147460938,91.66934967041016 164.2818603515625,92.13050079345703 163.28236389160156,92.5912857055664 162.27581787109375,93.05165100097656 161.2623291015625,93.51155853271484 160.24195861816406,93.970947265625 159.21478271484375,94.42977905273438 158.18087768554688,94.88800811767578 157.14031982421875,95.3455810546875 156.09320068359375,95.80245208740234 155.03958129882812,96.25857543945312 153.9795379638672,96.71390533447266 152.91314697265625,97.16839599609375 151.8404998779297,97.62198638916016 150.76165771484375,98.07464599609375 149.67669677734375,98.52632141113281 148.58570861816406,98.97695922851562 147.48875427246094,99.42652130126953 146.38592529296875,99.87495422363281 145.27728271484375,100.32221221923828 144.1629180908203,100.76824951171875 143.0428924560547,101.21302032470703 141.91729736328125,101.6564712524414 140.7862091064453,102.09855651855469 139.64968872070312,102.53923797607422 138.5078125,102.97845458984375 137.36068725585938,103.41616821289062 136.20835876464844,103.85232543945312 135.0509033203125,104.2868881225586 133.888427734375,104.71979522705078 132.72097778320312,105.15100860595703 131.54864501953125,105.58048248291016 130.3715057373047,106.00816345214844 129.18963623046875,106.43401336669922 128.00311279296875,106.85797119140625 126.81199645996094,107.27999877929688 125.60833740234375,107.70259857177734 124.4070816040039,108.1207275390625 123.20831298828125,108.53438568115234 122.01212310791016,108.94355010986328 120.81861877441406,109.34821319580078 119.62787628173828,109.74836730957031 118.43998718261719,110.14399719238281 117.25505828857422,110.53508758544922 116.07316589355469,110.92163848876953 114.89441680908203,111.30362701416016 113.7188949584961,111.68104553222656 112.54668426513672,112.05388641357422 111.37789154052734,112.4221420288086 110.21260833740234,112.7857894897461 109.05091857910156,113.14482116699219 107.89291381835938,113.49922180175781 106.73869323730469,113.84899139404297 105.58834075927734,114.1941146850586 104.44195556640625,114.53457641601562 103.29962921142578,114.870361328125 102.16144561767578,115.20146942138672 101.02751159667969,115.52787780761719 99.89791107177734,115.8495864868164 98.7727279663086,116.16658020019531 97.65206909179688,116.47883605957031 96.53601837158203,116.78636169433594 95.42466735839844,117.08912658691406 94.318115234375,117.38713836669922 93.21644592285156,117.68037414550781 92.1197509765625,117.96881866455078 91.02812957763672,118.25247192382812 89.9416732788086,118.53131103515625 88.8604736328125,118.80533599853516 87.78461456298828,119.07453155517578 86.71419525146484,119.33888244628906 85.64930725097656,119.59838104248047 84.59004211425781,119.85301208496094 83.5364990234375,120.10276794433594 82.48875427246094,120.3476333618164 81.44691467285156,120.58760833740234 80.41105651855469,120.82266235351562 79.38129425048828,121.05279541015625 78.35770416259766,121.27799987792969 77.34037780761719,121.49826049804688 76.32941436767578,121.71356201171875 75.32490539550781,121.92389678955078 74.32693481445312,122.1292495727539 73.33560180664062,122.32962036132812 72.35099792480469,122.52497863769531 71.37321472167969,122.71533203125 70.40235137939453,122.9006576538086 69.43848419189453,123.08094787597656 68.48171997070312,123.25618743896484 67.53213500976562,123.42637634277344 66.58984375,123.59149169921875 65.65491485595703,123.75151824951172 64.72745513916016,123.90646362304688 63.80755615234375,124.0562973022461 62.89530563354492,124.20101928710938 61.99079513549805,124.34060668945312 61.0941162109375,124.47506713867188 60.20536804199219,124.6043701171875 59.32463455200195,124.728515625 58.4520149230957,124.84748077392578 57.58759307861328,124.96127319335938 56.731468200683594,125.06986236572266 55.883731842041016,125.17324829101562 55.044471740722656,125.27141571044922 54.21377944946289,125.36434936523438 53.391754150390625,125.4520492553711 52.57848358154297,125.53449249267578 51.7740592956543,125.6116714477539 50.97857666015625,125.68357849121094 50.19212341308594,125.75019836425781 49.414791107177734,125.8115234375 48.64667892456055,125.8675308227539 47.88787078857422,125.91822052001953 47.138465881347656,125.96358489990234 46.39855194091797,126.00360107421875 45.66822052001953,126.03826141357422 44.947566986083984,126.06755828857422 44.23667907714844,126.09147644042969 43.5356559753418,126.11000061035156 42.844581604003906,126.12313079833984 42.16355514526367,126.13084411621094 41.49266052246094,126.13314056396484 40.832000732421875,126.12999725341797 40.245079040527344,125.2377700805664 39.67008972167969,124.33827209472656 39.10713195800781,123.43160247802734 38.55630111694336,122.51783752441406 38.017696380615234,121.59706115722656 37.491416931152344,120.66935729980469 36.97755432128906,119.73481750488281 36.47621154785156,118.79351043701172 35.98748016357422,117.84554290771484 35.5114631652832,116.89097595214844 35.04825210571289,115.9299087524414 34.59794616699219,114.96241760253906 34.16064453125,113.98859405517578 33.73644256591797,113.0085220336914 33.325439453125,112.02227783203125 32.927730560302734,111.02994537353516 32.54341125488281,110.0316162109375 32.172584533691406,109.02737426757812 31.815340042114258,108.01730346679688 31.471778869628906,107.00148010253906 31.142000198364258,105.9800033569336 30.80828857421875,104.88923645019531 30.48981285095215,103.79203033447266 30.186803817749023,102.6884994506836 29.899499893188477,101.57875061035156 29.628131866455078,100.4629135131836 29.37293815612793,99.34109497070312 29.13414764404297,98.21341705322266 28.91200065612793,97.08000183105469 28.720834732055664,96.01616668701172 28.544334411621094,94.94779968261719 28.382610321044922,93.87498474121094 28.235769271850586,92.79779815673828 28.103919982910156,91.71632385253906 27.98717498779297,90.6306381225586 27.88564109802246,89.54084014892578 27.799428939819336,88.44699096679688 27.72864532470703,87.34918212890625 27.673402786254883,86.24749755859375 27.633806228637695,85.14202117919922 27.609970092773438,84.03282928466797 27.601999282836914,82.91999816894531 27.607460021972656,81.99848937988281 27.62380027770996,81.07938385009766 27.650964736938477,80.16275024414062 27.68889808654785,79.2486343383789 27.73754119873047,78.33708953857422 27.79684066772461,77.42816925048828 27.866737365722656,76.52191925048828 27.947174072265625,75.61840057373047 28.038097381591797,74.71766662597656 28.139446258544922,73.81975555419922 28.251169204711914,72.92473602294922 28.373205184936523,72.03264617919922 28.50550079345703,71.1435546875 28.64799690246582,70.25749969482422 28.800636291503906,69.3745346069336 28.96336555480957,68.49472045898438 29.136127471923828,67.61811065673828 29.318862915039062,66.74474334716797 29.511516571044922,65.87467956542969 29.714031219482422,65.00798034667969 29.92635154724121,64.1446762084961 30.148422241210938,63.28484344482422 30.38018226623535,62.42851638793945 30.621578216552734,61.57575988769531 30.8725528717041,60.72661590576172 31.13304901123047,59.88114547729492 31.40300941467285,59.03939437866211 31.6823787689209,58.201419830322266 31.971101760864258,57.367271423339844 32.26911926269531,56.53700256347656 32.57637405395508,55.710662841796875 32.8928108215332,54.888309478759766 33.21837615966797,54.06998825073242 33.553009033203125,53.255760192871094 33.89665222167969,52.44567108154297 34.24925231933594,51.639774322509766 34.610748291015625,50.8381233215332 34.9810905456543,50.040771484375 35.3602180480957,49.24776840209961 35.74807357788086,48.459171295166016 36.14459991455078,47.675025939941406 36.54974365234375,46.895389556884766 36.963443756103516,46.12030792236328 37.385650634765625,45.3498420715332 37.81629943847656,44.584041595458984 38.255340576171875,43.82295608520508 38.70271301269531,43.0666389465332 39.15835952758789,42.31514358520508 39.62222671508789,41.56852340698242 40.09425735473633,40.82682800292969 40.57439422607422,40.090110778808594 41.06258010864258,39.358421325683594 41.55875778198242,38.63181686401367 42.062870025634766,37.91035079956055 42.57486343383789,37.194068908691406 43.09468078613281,36.483028411865234 43.62226104736328,35.777278900146484 44.157554626464844,35.07687759399414 44.700496673583984,34.38187026977539 45.25103759765625,33.69231033325195 45.809120178222656,33.00825500488281 46.37468338012695,32.32975387573242 46.94767379760742,31.656858444213867 47.52803039550781,30.989622116088867 48.11570358276367,30.328096389770508 48.71063232421875,29.672334671020508 49.31276321411133,29.022388458251953 49.922035217285156,28.37830924987793 50.53839111328125,27.740150451660156 51.161781311035156,27.10796546936035 51.79214096069336,26.4818058013916 52.429420471191406,25.861722946166992 53.07355880737305,25.247770309448242 53.7244987487793,24.639999389648438 54.38218688964844,24.038463592529297 55.046566009521484,23.443214416503906 55.71757888793945,22.85430335998535 56.39516830444336,22.271785736083984 57.07927703857422,21.695711135864258 57.76984786987305,21.126131057739258 58.466827392578125,20.563100814819336 59.17015838623047,20.006671905517578 59.87977981567383,19.45689582824707 60.595638275146484,18.91382598876953 61.31768035888672,18.377513885498047 62.04584503173828,17.848011016845703 62.78007507324219,17.32537078857422 63.52031707763672,16.809646606445312 64.26651000976562,16.300888061523438 65.01860809326172,15.799150466918945 65.77653503417969,15.304484367370605 66.54025268554688,14.81694221496582 67.30970001220703,14.336577415466309 68.0848159790039,13.86344051361084 68.86554718017578,13.39758586883545 69.6518325805664,12.939064979553223 70.44361877441406,12.487929344177246 71.24085235595703,12.044232368469238 72.04346466064453,11.608025550842285 72.8514175415039,11.179362297058105 73.66464233398438,10.758295059204102 74.48308563232422,10.344874382019043 75.30668640136719,9.939154624938965 76.13539123535156,9.541186332702637 76.96914672851562,9.151023864746094 77.80789184570312,8.768717765808105 78.65157318115234,8.394320487976074 79.50012969970703,8.027885437011719 80.35350799560547,7.669465065002441 81.2116470336914,7.31911039352417 82.07450103759766,6.976874828338623 82.94200134277344,6.642810344696045 83.81410217285156,6.316969394683838 84.69073486328125,5.999403953552246 85.57184600830078,5.69016695022583 86.45738983154297,5.389310359954834 87.34729766845703,5.09688663482666 88.24151611328125,4.812947750091553 89.1399917602539,4.537546634674072 90.04266357421875,4.270735263824463 90.94947814941406,4.012566089630127 91.8603744506836,3.763091564178467 92.77530670166016,3.5223639011383057 93.69420623779297,3.290435314178467 94.61701965332031,3.0673582553863525 95.54369354248047,2.8531851768493652 96.47416687011719,2.647968292236328 97.40838623046875,2.4517600536346436 98.3462905883789,2.2646126747131348 99.28782653808594,2.086578369140625 100.23294067382812,1.9177099466323853 101.18157958984375,1.7580593824386597 102.1336669921875,1.607679009437561 103.08917236328125,1.4666212797164917 104.04801940917969,1.334938645362854 105.01016235351562,1.2126832008361816 105.97553253173828,1.099907398223877 106.944091796875,0.9966635704040527 107.91576385498047,0.9030041098594666 108.89051055908203,0.8189812898635864 109.86825561523438,0.7446475028991699 110.84896087646484,0.6800550818443298 111.83255767822266,0.625256359577179 112.8189926147461,0.5803036093711853 113.80821228027344,0.5452492833137512 114.80016326904297,0.5201457142829895 115.7947769165039,0.5050451755523682 116.79199981689453,0.5 117.8476333618164,0.5056555867195129 118.90034484863281,0.5225811004638672 119.9500503540039,0.550714373588562 120.99668884277344,0.589993417263031 122.04019927978516,0.640356183052063 123.08051300048828,0.7017406225204468 124.1175537109375,0.7740846872329712 125.1512680053711,0.857326328754425 126.18157958984375,0.9514035582542419 127.20841979980469,1.056254267692566 128.23171997070312,1.171816349029541 129.2514190673828,1.2980279922485352 130.2674560546875,1.4348268508911133 131.27975463867188,1.5821510553359985 132.28823852539062,1.7399386167526245 133.29286193847656,1.9081273078918457 134.2935333251953,2.0866551399230957 135.2902069091797,2.2754602432250977 136.28280639648438,2.474480390548706 137.27127075195312,2.6836533546447754 138.25552368164062,2.9029176235198975 139.23548889160156,3.1322107315063477 140.21112060546875,3.3714706897735596 141.18235778808594,3.620635509490967 142.1490936279297,3.879643201828003 143.11129760742188,4.148431777954102 144.0688934326172,4.426939010620117 145.0218048095703,4.715102672576904 145.969970703125,5.012861251831055 146.91331481933594,5.320152282714844 147.85179138183594,5.636913776397705 148.7853240966797,5.9630842208862305 149.7138214111328,6.298600673675537 150.6372528076172,6.643401622772217 151.55552673339844,6.997425079345703 152.46859741210938,7.3606085777282715 153.37637329101562,7.732890605926514 154.27879333496094,8.114209175109863 155.17581176757812,8.504501342773438 156.0673370361328,8.903705596923828 156.95330810546875,9.311759948730469 157.83364868164062,9.72860336303711 158.70831298828125,10.15417194366455 159.5772247314453,10.588403701782227 160.4403076171875,11.031238555908203 161.29751586914062,11.482612609863281 162.1487579345703,11.942464828491211 162.9939727783203,12.410733222961426 163.83309936523438,12.887354850769043 164.6660614013672,13.372267723083496 165.49281311035156,13.865410804748535 166.31326293945312,14.366722106933594 167.1273651123047,14.876137733459473 167.93502807617188,15.393597602844238 168.73619079589844,15.919038772583008 169.5308074951172,16.4523983001709 170.31878662109375,16.993616104125977 171.10008239746094,17.542631149291992 171.87460327148438,18.099376678466797 172.6422882080078,18.663793563842773 173.40309143066406,19.235820770263672 174.15692138671875,19.81539535522461 174.90371704101562,20.402454376220703 175.64341735839844,20.996936798095703 176.37594604492188,21.598779678344727 177.10125732421875,22.207921981811523 177.81924438476562,22.82430076599121 178.52987670898438,23.44785499572754 179.2330780029297,24.078521728515625 179.92877197265625,24.71623992919922 180.61688232421875,25.360944747924805 181.29737854003906,26.0125789642334 181.97015380859375,26.67107582092285 182.63516235351562,27.336376190185547 183.29234313964844,28.0084171295166 183.9416046142578,28.687135696411133 184.5828857421875,29.372472763061523 185.2161407470703,30.064361572265625 185.84129333496094,30.762744903564453 186.458251953125,31.467557907104492 187.06698608398438,32.17873764038086 187.6674041748047,32.89622497558594 188.2594451904297,33.619956970214844 188.84303283691406,34.34987258911133 189.41812133789062,35.08590316772461 189.984619140625,35.82799530029297 190.54248046875,36.57608413696289 191.0916290283203,37.33010482788086 191.6320037841797,38.09000015258789 192.3107452392578,39.06966781616211 192.97450256347656,40.05859375 193.6232452392578,41.05665969848633 194.2570037841797,42.063751220703125 194.87574768066406,43.07974624633789 195.47950744628906,44.104530334472656 196.06825256347656,45.13798904418945 196.64199829101562,46.18000030517578 197.13037109375,47.09886932373047 197.60675048828125,48.02411651611328 198.07101440429688,48.955650329589844 198.5230712890625,49.89338302612305 198.9628143310547,50.837223052978516 199.39016723632812,51.787086486816406 199.80502319335938,52.74288558959961 200.207275390625,53.704524993896484 200.59681701660156,54.67191696166992 200.97357177734375,55.64497756958008 201.33743286132812,56.62361526489258 201.6883087158203,57.60774230957031 202.0260772705078,58.59727096557617 202.3506622314453,59.59210968017578 202.6619415283203,60.592166900634766 202.95985412597656,61.59736251831055 203.2442626953125,62.607601165771484 203.5150909423828,63.62279510498047 203.77223205566406,64.64285278320312 204.01559448242188,65.66769409179688 204.24508666992188,66.69722747802734 204.46058654785156,67.73135375976562 204.66200256347656,68.7699966430664 204.662,68.77" stroke="blue" stroke-width="2" /><polyline fill="none" points="205.9219970703125,85.76000213623047 205.8828125,86.67975616455078 205.83277893066406,87.5969009399414 205.77197265625,88.51139068603516 205.700439453125,89.42315673828125 205.6182403564453,90.33216094970703 205.5254364013672,91.23834228515625 205.4220733642578,92.14164733886719 205.30821228027344,93.04202270507812 205.18392944335938,93.93941497802734 205.0492706298828,94.83377838134766 204.90428161621094,95.72504425048828 204.74903869628906,96.61317443847656 204.5835723876953,97.49810791015625 204.40797424316406,98.37979888916016 204.2222900390625,99.2581787109375 204.0265655517578,100.13320922851562 203.8208770751953,101.00482940673828 203.60525512695312,101.87298583984375 203.37979125976562,102.73763275146484 203.14451599121094,103.59870910644531 202.89950561523438,104.45616149902344 202.64480590820312,105.3099365234375 202.38047790527344,106.15998077392578 202.10658264160156,107.0062484741211 201.82318115234375,107.84867858886719 201.53030395507812,108.68722534179688 201.22804260253906,109.52182006835938 200.91644287109375,110.35243225097656 200.59556579589844,111.17898559570312 200.2654571533203,112.0014419555664 199.92617797851562,112.81974029541016 199.5778045654297,113.63382720947266 199.22036743164062,114.44365692138672 198.85394287109375,115.2491683959961 198.47857666015625,116.05030822753906 198.09434509277344,116.84703063964844 197.70127868652344,117.63927459716797 197.29946899414062,118.42699432373047 196.88893127441406,119.21012878417969 196.46975708007812,119.9886245727539 196.0419921875,120.76243591308594 195.60569763183594,121.53150177001953 195.1609344482422,122.2957763671875 194.70774841308594,123.0551986694336 194.24620056152344,123.80972290039062 193.7763671875,124.55928039550781 193.29827880859375,125.30384063720703 192.81199645996094,126.0433349609375 192.31759643554688,126.7777099609375 191.81512451171875,127.50691986083984 191.3046417236328,128.2309112548828 190.7862091064453,128.94961547851562 190.25987243652344,129.66299438476562 189.72569274902344,130.37100219726562 189.18373107910156,131.0735626220703 188.63404846191406,131.7706298828125 188.0767059326172,132.462158203125 187.51174926757812,133.14810180664062 186.93923950195312,133.82838439941406 186.35923767089844,134.5029754638672 185.7718048095703,135.1717987060547 185.17698669433594,135.83480834960938 184.57485961914062,136.49197387695312 183.9654541015625,137.14320373535156 183.34886169433594,137.78848266601562 182.72511291503906,138.427734375 182.09426879882812,139.06089782714844 181.45639038085938,139.6879425048828 180.81155395507812,140.30880737304688 180.1597900390625,140.92343139648438 179.5011749267578,141.53175354003906 178.83575439453125,142.1337432861328 178.16358947753906,142.72933959960938 177.4847412109375,143.31849670410156 176.79925537109375,143.90113830566406 176.10720825195312,144.4772186279297 175.4086456298828,145.04669189453125 174.70362854003906,145.60951232910156 173.99221801757812,146.1656036376953 173.27447509765625,146.71493530273438 172.55043029785156,147.2574462890625 171.82017517089844,147.79307556152344 171.08375549316406,148.32177734375 170.34121704101562,148.84349060058594 169.59263610839844,149.35816955566406 168.8380584716797,149.86575317382812 168.07754516601562,150.3662109375 167.3111572265625,150.85946655273438 166.5389404296875,151.345458984375 165.76097106933594,151.82415771484375 164.97727966308594,152.29550170898438 164.18795776367188,152.75942993164062 163.39303588867188,153.2158966064453 162.59259033203125,153.66485595703125 161.7866668701172,154.1062469482422 160.97532653808594,154.5399932861328 160.15863037109375,154.96607971191406 159.33663940429688,155.38442993164062 158.5093994140625,155.79501342773438 157.67697143554688,156.19773864746094 156.83941650390625,156.59259033203125 155.9967803955078,156.9794921875 155.14913940429688,157.35838317871094 154.2965545654297,157.729248046875 153.43905639648438,158.0919952392578 152.5767364501953,158.44659423828125 151.70962524414062,158.79296875 150.83778381347656,159.13108825683594 149.96127319335938,159.4608917236328 149.08016967773438,159.78233337402344 148.1945037841797,160.0953369140625 147.30435180664062,160.39987182617188 146.40975952148438,160.6958770751953 145.5107879638672,160.98330688476562 144.6074981689453,161.2620849609375 143.69993591308594,161.5321807861328 142.78817749023438,161.7935333251953 141.8722686767578,162.04608154296875 140.9522705078125,162.28977966308594 140.0282440185547,162.5245819091797 139.10025024414062,162.75042724609375 138.1683349609375,162.96725463867188 137.23255920410156,163.17503356933594 136.29296875,163.37367248535156 135.3496551513672,163.5631561279297 134.40264892578125,163.74342346191406 133.45201110839844,163.91439819335938 132.497802734375,164.0760498046875 131.5400848388672,164.2283172607422 130.5789031982422,164.3711395263672 129.6143341064453,164.50448608398438 128.64642333984375,164.62828063964844 127.67523193359375,164.7424774169922 126.70081329345703,164.84703063964844 125.72323608398438,164.94187927246094 124.74253845214844,165.02696228027344 123.75879669189453,165.10223388671875 122.77205657958984,165.1676483154297 121.78238677978516,165.22314453125 120.78983306884766,165.2686767578125 119.79446411132812,165.30416870117188 118.79632568359375,165.32958984375 117.79548645019531,165.3448944091797 116.79199981689453,165.35000610351562 115.73387145996094,165.3443145751953 114.6786880493164,165.32730102539062 113.62652587890625,165.2990264892578 112.57744598388672,165.25955200195312 111.5315170288086,165.20895385742188 110.48880767822266,165.1472625732422 109.44939422607422,165.07456970214844 108.413330078125,164.9909210205078 107.38069152832031,164.89639282226562 106.3515396118164,164.79103088378906 105.3259506225586,164.67491149902344 104.30399322509766,164.548095703125 103.28572082519531,164.41065979003906 102.2712173461914,164.26263427734375 101.26053619384766,164.10411071777344 100.25375366210938,163.9351348876953 99.25093841552734,163.75576782226562 98.25215911865234,163.56610107421875 97.2574691772461,163.3661651611328 96.26696014404297,163.15602111816406 95.28067779541016,162.93576049804688 94.29869842529297,162.70542907714844 93.32109069824219,162.46510314941406 92.3479232788086,162.21481323242188 91.37926483154297,161.95465087890625 90.41517639160156,161.68467712402344 89.45573425292969,161.40493774414062 88.50099182128906,161.11550903320312 87.55103302001953,160.81646728515625 86.60591888427734,160.50784301757812 85.66571807861328,160.18971252441406 84.7304916381836,159.86215209960938 83.8003158569336,159.52520751953125 82.87525177001953,159.178955078125 81.95537567138672,158.8234405517578 81.0407485961914,158.45875549316406 80.13143920898438,158.08493041992188 79.2275161743164,157.70204162597656 78.32904815673828,157.31015014648438 77.43610382080078,156.90933227539062 76.54874420166016,156.4996337890625 75.66703796386719,156.08111572265625 74.79106140136719,155.6538543701172 73.9208755493164,155.21791076660156 73.05654907226562,154.77334594726562 72.19815063476562,154.32020568847656 71.34574890136719,153.85858154296875 70.49940490722656,153.38851928710938 69.65919494628906,152.9100799560547 68.82518768310547,152.42333984375 67.9974365234375,151.9283447265625 67.176025390625,151.4251708984375 66.36101531982422,150.91387939453125 65.5524673461914,150.39453125 64.7504653930664,149.8671875 63.95505905151367,149.3319091796875 63.16632843017578,148.78875732421875 62.384334564208984,148.23780822753906 61.609153747558594,147.67910766601562 60.840843200683594,147.11273193359375 60.07947540283203,146.5387420654297 59.32511901855469,145.95718383789062 58.57783889770508,145.36814880371094 57.83770751953125,144.77166748046875 57.10478591918945,144.16783142089844 56.379146575927734,143.55670166015625 55.660858154296875,142.9383087158203 54.949981689453125,142.31275939941406 54.24658966064453,141.68008422851562 53.550750732421875,141.0403594970703 52.86253356933594,140.39364624023438 52.18199920654297,139.74000549316406 53.0170783996582,139.63116455078125 53.857093811035156,139.51876831054688 54.70200729370117,139.40277099609375 55.5517692565918,139.28321838378906 56.40633773803711,139.1600799560547 57.26567077636719,139.03338623046875 58.12971878051758,138.90313720703125 58.998443603515625,138.76931762695312 59.871795654296875,138.63194274902344 60.74972915649414,138.49102783203125 61.632205963134766,138.3465576171875 62.51918029785156,138.19854736328125 63.410606384277344,138.04701232910156 64.30643463134766,137.8919219970703 65.20662689208984,137.73330688476562 66.11114501953125,137.5711669921875 67.01992797851562,137.40550231933594 67.93294525146484,137.236328125 68.85015106201172,137.06362915039062 69.77149200439453,136.88742065429688 70.69692993164062,136.7076873779297 71.62641906738281,136.52447509765625 72.55992126464844,136.33775329589844 73.49738311767578,136.14752197265625 74.43876647949219,135.9538116455078 75.38402557373047,135.75660705566406 76.33311462402344,135.55592346191406 77.2859878540039,135.3517608642578 78.24259948730469,135.1441192626953 79.20291137695312,134.93299865722656 80.16687774658203,134.71839904785156 81.13445281982422,134.50035095214844 82.1055908203125,134.27883911132812 83.08024597167969,134.05386352539062 84.05838012695312,133.825439453125 85.0399398803711,133.5935516357422 86.02489471435547,133.3582305908203 87.01318359375,133.1194610595703 88.00477600097656,132.87725830078125 88.99961853027344,132.63160705566406 89.99767303466797,132.38253784179688 90.99889373779297,132.13003540039062 92.00323486328125,131.87411499023438 93.01065063476562,131.61476135253906 94.0210952758789,131.3520050048828 95.03453063964844,131.08583068847656 96.0509033203125,130.81625366210938 97.07018280029297,130.5432586669922 98.0923080444336,130.26687622070312 99.11724853515625,129.98709106445312 100.14495849609375,129.70391845703125 101.17538452148438,129.4173583984375 102.20848846435547,129.12741088867188 103.24422454833984,128.83407592773438 104.28254699707031,128.53736877441406 105.32341003417969,128.23728942871094 106.36678314208984,127.93383026123047 107.41259765625,127.62701416015625 108.46083068847656,127.31683349609375 109.51142883300781,127.0032958984375 110.5643539428711,126.6864013671875 111.61955261230469,126.36615753173828 112.6769790649414,126.04256439208984 113.7365951538086,125.71562957763672 114.7983627319336,125.38536071777344 115.86222839355469,125.05175018310547 116.92814636230469,124.71481323242188 117.99607849121094,124.37454223632812 119.06597137451172,124.03095245361328 120.1377944946289,123.68404388427734 121.21148681640625,123.33381652832031 122.28701782226562,122.98027801513672 123.36434173583984,122.62342834472656 124.44340515136719,122.26327514648438 125.524169921875,121.89981842041016 126.60659790039062,121.53307342529297 127.69062805175781,121.16302490234375 128.77622985839844,120.7896957397461 129.8633575439453,120.41307830810547 130.95196533203125,120.0331802368164 132.04200744628906,119.6500015258789 133.127197265625,119.26592254638672 134.20924377441406,118.88021087646484 135.28811645507812,118.49288940429688 136.36378479003906,118.10398864746094 137.4362030029297,117.71351623535156 138.5053253173828,117.3215103149414 139.5711212158203,116.92798614501953 140.63357543945312,116.5329818725586 141.69261169433594,116.13650512695312 142.74822998046875,115.73859405517578 143.8003692626953,115.33926391601562 144.84901428222656,114.93854522705078 145.89410400390625,114.53646087646484 146.9356231689453,114.13302612304688 147.9735107421875,113.72827911376953 149.0077667236328,113.3222427368164 150.03831481933594,112.91493225097656 151.0651397705078,112.5063705444336 152.0882110595703,112.09659576416016 153.1074676513672,111.68562316894531 154.12289428710938,111.27348327636719 155.1344451904297,110.86019134521484 156.14208984375,110.44577026367188 157.14578247070312,110.03025817871094 158.1455078125,109.6136703491211 159.1411895751953,109.19603729248047 160.13282775878906,108.7773666381836 161.12037658691406,108.35770416259766 162.10379028320312,107.93706512451172 163.08303833007812,107.51547241210938 164.05807495117188,107.09294891357422 165.0288848876953,106.66951751708984 165.9954071044922,106.2452163696289 166.95761108398438,105.82005310058594 167.9154815673828,105.3940658569336 168.86895751953125,104.9672622680664 169.81800842285156,104.53968811035156 170.76258850097656,104.1113510131836 171.7026824951172,103.68228149414062 172.63824462890625,103.25250244140625 173.56924438476562,102.82203674316406 174.49562072753906,102.39091491699219 175.4173583984375,101.95915222167969 176.3344268798828,101.52678680419922 177.24676513671875,101.09382629394531 178.15435791015625,100.66030883789062 179.05714416503906,100.22624969482422 179.9551239013672,99.79167938232422 180.8482208251953,99.35662078857422 181.73643493652344,98.92109680175781 182.6197052001953,98.4851303100586 183.4980010986328,98.04874420166016 184.37127685546875,97.61196899414062 185.23951721191406,97.1748275756836 186.10267639160156,96.73734283447266 186.96070861816406,96.2995376586914 187.81358337402344,95.86144256591797 188.66127014160156,95.4230728149414 189.50372314453125,94.98445892333984 190.34091186523438,94.54562377929688 191.17279052734375,94.1065902709961 191.99932861328125,93.66738891601562 192.82049560546875,93.22803497314453 193.63624572753906,92.78855895996094 194.446533203125,92.34898376464844 195.2513427734375,91.90933227539062 196.05064392089844,91.46963500976562 196.8443603515625,91.0299072265625 197.6324920654297,90.59017181396484 198.4149932861328,90.15046691894531 199.1918182373047,89.71080780029297 199.9629364013672,89.2712173461914 200.72830200195312,88.83172607421875 201.48789978027344,88.3923568725586 202.24166870117188,87.953125 202.98959350585938,87.51406860351562 203.73162841796875,87.0751953125 204.4677276611328,86.63655090332031 205.19786071777344,86.1981430053711 205.9219970703125,85.76000213623047" stroke="orange" stroke-width="2" /><polyline fill="none" points="205.9219970703125,85.76000213623047 205.19786071777344,86.1981430053711 204.4677276611328,86.63655090332031 203.73162841796875,87.0751953125 202.98959350585938,87.51406860351562 202.24166870117188,87.953125 201.48789978027344,88.3923568725586 200.72830200195312,88.83172607421875 199.9629364013672,89.2712173461914 199.1918182373047,89.71080780029297 198.4149932861328,90.15046691894531 197.6324920654297,90.59017181396484 196.8443603515625,91.0299072265625 196.05064392089844,91.46963500976562 195.2513427734375,91.90933227539062 194.446533203125,92.34898376464844 193.63624572753906,92.78855895996094 192.82049560546875,93.22803497314453 191.99932861328125,93.66738891601562 191.17279052734375,94.1065902709961 190.34091186523438,94.54562377929688 189.50372314453125,94.98445892333984 188.66127014160156,95.4230728149414 187.81358337402344,95.86144256591797 186.96070861816406,96.2995376586914 186.10267639160156,96.73734283447266 185.23951721191406,97.1748275756836 184.37127685546875,97.61196899414062 183.4980010986328,98.04874420166016 182.6197052001953,98.4851303100586 181.73643493652344,98.92109680175781 180.8482208251953,99.35662078857422 179.9551239013672,99.79167938232422 179.05714416503906,100.22624969482422 178.15435791015625,100.66030883789062 177.24676513671875,101.09382629394531 176.3344268798828,101.52678680419922 175.4173583984375,101.95915222167969 174.49562072753906,102.39091491699219 173.56924438476562,102.82203674316406 172.63824462890625,103.25250244140625 171.7026824951172,103.68228149414062 170.76258850097656,104.1113510131836 169.81800842285156,104.53968811035156 168.86895751953125,104.9672622680664 167.9154815673828,105.3940658569336 166.95761108398438,105.82005310058594 165.9954071044922,106.2452163696289 165.0288848876953,106.66951751708984 164.05807495117188,107.09294891357422 163.08303833007812,107.51547241210938 162.10379028320312,107.93706512451172 161.12037658691406,108.35770416259766 160.13282775878906,108.7773666381836 159.1411895751953,109.19603729248047 158.1455078125,109.6136703491211 157.14578247070312,110.03025817871094 156.14208984375,110.44577026367188 155.1344451904297,110.86019134521484 154.12289428710938,111.27348327636719 153.1074676513672,111.68562316894531 152.0882110595703,112.09659576416016 151.0651397705078,112.5063705444336 150.03831481933594,112.91493225097656 149.0077667236328,113.3222427368164 147.9735107421875,113.72827911376953 146.9356231689453,114.13302612304688 145.89410400390625,114.53646087646484 144.84901428222656,114.93854522705078 143.8003692626953,115.33926391601562 142.74822998046875,115.73859405517578 141.69261169433594,116.13650512695312 140.63357543945312,116.5329818725586 139.5711212158203,116.92798614501953 138.5053253173828,117.3215103149414 137.4362030029297,117.71351623535156 136.36378479003906,118.10398864746094 135.28811645507812,118.49288940429688 134.20924377441406,118.88021087646484 133.127197265625,119.26592254638672 132.04200744628906,119.6500015258789 130.95196533203125,120.0331802368164 129.8633575439453,120.41307830810547 128.77622985839844,120.7896957397461 127.69062805175781,121.16302490234375 126.60659790039062,121.53307342529297 125.524169921875,121.89981842041016 124.44340515136719,122.26327514648438 123.36434173583984,122.62342834472656 122.28701782226562,122.98027801513672 121.21148681640625,123.33381652832031 120.1377944946289,123.68404388427734 119.06597137451172,124.03095245361328 117.99607849121094,124.37454223632812 116.92814636230469,124.71481323242188 115.86222839355469,125.05175018310547 114.7983627319336,125.38536071777344 113.7365951538086,125.71562957763672 112.6769790649414,126.04256439208984 111.61955261230469,126.36615753173828 110.5643539428711,126.6864013671875 109.51142883300781,127.0032958984375 108.46083068847656,127.31683349609375 107.41259765625,127.62701416015625 106.36678314208984,127.93383026123047 105.32341003417969,128.23728942871094 104.28254699707031,128.53736877441406 103.24422454833984,128.83407592773438 102.20848846435547,129.12741088867188 101.17538452148438,129.4173583984375 100.14495849609375,129.70391845703125 99.11724853515625,129.98709106445312 98.0923080444336,130.26687622070312 97.07018280029297,130.5432586669922 96.0509033203125,130.81625366210938 95.03453063964844,131.08583068847656 94.0210952758789,131.3520050048828 93.01065063476562,131.61476135253906 92.00323486328125,131.87411499023438 90.99889373779297,132.13003540039062 89.99767303466797,132.38253784179688 88.99961853027344,132.63160705566406 88.00477600097656,132.87725830078125 87.01318359375,133.1194610595703 86.02489471435547,133.3582305908203 85.0399398803711,133.5935516357422 84.05838012695312,133.825439453125 83.08024597167969,134.05386352539062 82.1055908203125,134.27883911132812 81.13445281982422,134.50035095214844 80.16687774658203,134.71839904785156 79.20291137695312,134.93299865722656 78.24259948730469,135.1441192626953 77.2859878540039,135.3517608642578 76.33311462402344,135.55592346191406 75.38402557373047,135.75660705566406 74.43876647949219,135.9538116455078 73.49738311767578,136.14752197265625 72.55992126464844,136.33775329589844 71.62641906738281,136.52447509765625 70.69692993164062,136.7076873779297 69.77149200439453,136.88742065429688 68.85015106201172,137.06362915039062 67.93294525146484,137.236328125 67.01992797851562,137.40550231933594 66.11114501953125,137.5711669921875 65.20662689208984,137.73330688476562 64.30643463134766,137.8919219970703 63.410606384277344,138.04701232910156 62.51918029785156,138.19854736328125 61.632205963134766,138.3465576171875 60.74972915649414,138.49102783203125 59.871795654296875,138.63194274902344 58.998443603515625,138.76931762695312 58.12971878051758,138.90313720703125 57.26567077636719,139.03338623046875 56.40633773803711,139.1600799560547 55.5517692565918,139.28321838378906 54.70200729370117,139.40277099609375 53.857093811035156,139.51876831054688 53.0170783996582,139.63116455078125 52.18199920654297,139.74000549316406 50.70469284057617,139.92535400390625 49.24346160888672,140.0992889404297 47.798561096191406,140.26177978515625 46.3702392578125,140.41281127929688 44.9587516784668,140.55235290527344 43.56434631347656,140.68038940429688 42.187278747558594,140.79689025878906 40.82779312133789,140.90184020996094 39.486148834228516,140.99520874023438 38.16259002685547,141.0769805908203 36.85737609863281,141.14712524414062 35.57075119018555,141.2056121826172 34.30297088623047,141.25244140625 33.054283142089844,141.28758239746094 31.82494354248047,141.3109893798828 30.615201950073242,141.3226776123047 29.425308227539062,141.3225860595703 28.25551414489746,141.3107147216797 27.1060733795166,141.2870330810547 25.977235794067383,141.25152587890625 24.869253158569336,141.20416259765625 23.78237533569336,141.14492797851562 22.716856002807617,141.0737762451172 21.67294692993164,140.99070739746094 20.650896072387695,140.8957061767578 19.650957107543945,140.78872680664062 18.673381805419922,140.66973876953125 17.718421936035156,140.53875732421875 16.786327362060547,140.39573669433594 15.877348899841309,140.2406463623047 14.991740226745605,140.07347106933594 14.129752159118652,139.89419555664062 13.291635513305664,139.70277404785156 12.477642059326172,139.49920654296875 11.68802261352539,139.28347778320312 10.923028945922852,139.05552673339844 10.182912826538086,138.81536865234375 9.467926025390625,138.56295776367188 8.778318405151367,138.2982940673828 8.11434268951416,138.0213165283203 7.476250171661377,137.73204040527344 6.864291667938232,137.430419921875 6.278719425201416,137.11643981933594 5.719783782958984,136.79006958007812 5.187736988067627,136.45130920410156 4.682830333709717,136.10011291503906 4.205314636230469,135.7364501953125 3.7554421424865723,135.36033630371094 3.3334639072418213,134.97171020507812 2.939631223678589,134.570556640625 2.574195623397827,134.1568603515625 2.2374086380004883,133.73060607910156 1.9295214414596558,133.29176330566406 1.6507855653762817,132.84030151367188 1.4014524221420288,132.37620544433594 1.1817734241485596,131.89944458007812 0.9919999837875366,131.41000366210938 0.8225557208061218,130.87234497070312 0.6890500783920288,130.32449340820312 0.5912236571311951,129.76663208007812 0.5288171172142029,129.19891357421875 0.5015712380409241,128.62152099609375 0.5092265605926514,128.0346221923828 0.5515238642692566,127.43840026855469 0.6282036900520325,126.8330078125 0.7390068173408508,126.2186279296875 0.883673906326294,125.5954360961914 1.0619455575942993,124.96359252929688 1.2735625505447388,124.32328033447266 1.5182653665542603,123.67466735839844 1.7957948446273804,123.0179214477539 2.105891704559326,122.35322570800781 2.448296308517456,121.68074035644531 2.822749614715576,121.00064086914062 3.228992223739624,120.31310272216797 3.666764736175537,119.61830139160156 4.135807991027832,118.91639709472656 4.635862350463867,118.20756530761719 5.166668891906738,117.49198150634766 5.727967739105225,116.76982116699219 6.319499969482422,116.04125213623047 6.941006183624268,115.30644226074219 7.592226982116699,114.56556701660156 8.272903442382812,113.81880187988281 8.982775688171387,113.06631469726562 9.72158432006836,112.30827331542969 10.489069938659668,111.54486083984375 11.284974098205566,110.7762451171875 12.109037399291992,110.00259399414062 12.960999488830566,109.22408294677734 13.840600967407227,108.44087982177734 14.747583389282227,107.65316009521484 15.681687355041504,106.86109161376953 16.64265251159668,106.06485748291016 17.63022232055664,105.26461791992188 18.644134521484375,104.4605484008789 19.68412971496582,103.65282440185547 20.749950408935547,102.84161376953125 21.84133529663086,102.02709197998047 22.958026885986328,101.20942687988281 24.09976577758789,100.3887939453125 25.266292572021484,99.56536102294922 26.457345962524414,98.73930358886719 27.67266845703125,97.9107894897461 28.91200065612793,97.08000183105469 29.13414764404297,98.21341705322266 29.37293815612793,99.34109497070312 29.628131866455078,100.4629135131836 29.899499893188477,101.57875061035156 30.186803817749023,102.6884994506836 30.48981285095215,103.79203033447266 30.80828857421875,104.88923645019531 31.142000198364258,105.9800033569336 30.0632266998291,106.95909118652344 29.054725646972656,107.92298126220703 28.117630004882812,108.8709945678711 27.253076553344727,109.80245208740234 26.462202072143555,110.7166976928711 25.746139526367188,111.61305236816406 25.106027603149414,112.49083709716797 24.543001174926758,113.34939575195312 24.058195114135742,114.18804168701172 23.652746200561523,115.00611114501953 23.327791213989258,115.80293273925781 23.084463119506836,116.57783508300781 22.923898696899414,117.33013916015625 22.84723472595215,118.0591812133789 22.855606079101562,118.76428985595703 22.950149536132812,119.44478607177734 23.131999969482422,120.0999984741211 23.395723342895508,120.71307373046875 23.74079132080078,121.29239654541016 24.165943145751953,121.838134765625 24.669921875,122.35043334960938 25.251462936401367,122.82946014404297 25.909311294555664,123.27536010742188 26.6422061920166,123.68830871582031 27.448884963989258,124.06845092773438 28.328092575073242,124.41594696044922 29.278566360473633,124.73094940185547 30.299047470092773,125.01362609863281 31.388277053833008,125.26412963867188 32.54499435424805,125.48261260986328 33.76793670654297,125.66924285888672 35.055850982666016,125.82416534423828 36.407474517822266,125.94754791259766 37.82154846191406,126.03954315185547 39.296810150146484,126.10030364990234 40.832000732421875,126.12999725341797 41.49266052246094,126.13314056396484 42.16355514526367,126.13084411621094 42.844581604003906,126.12313079833984 43.5356559753418,126.11000061035156 44.23667907714844,126.09147644042969 44.947566986083984,126.06755828857422 45.66822052001953,126.03826141357422 46.39855194091797,126.00360107421875 47.138465881347656,125.96358489990234 47.88787078857422,125.91822052001953 48.64667892456055,125.8675308227539 49.414791107177734,125.8115234375 50.19212341308594,125.75019836425781 50.97857666015625,125.68357849121094 51.7740592956543,125.6116714477539 52.57848358154297,125.53449249267578 53.391754150390625,125.4520492553711 54.21377944946289,125.36434936523438 55.044471740722656,125.27141571044922 55.883731842041016,125.17324829101562 56.731468200683594,125.06986236572266 57.58759307861328,124.96127319335938 58.4520149230957,124.84748077392578 59.32463455200195,124.728515625 60.20536804199219,124.6043701171875 61.0941162109375,124.47506713867188 61.99079513549805,124.34060668945312 62.89530563354492,124.20101928710938 63.80755615234375,124.0562973022461 64.72745513916016,123.90646362304688 65.65491485595703,123.75151824951172 66.58984375,123.59149169921875 67.53213500976562,123.42637634277344 68.48171997070312,123.25618743896484 69.43848419189453,123.08094787597656 70.40235137939453,122.9006576538086 71.37321472167969,122.71533203125 72.35099792480469,122.52497863769531 73.33560180664062,122.32962036132812 74.32693481445312,122.1292495727539 75.32490539550781,121.92389678955078 76.32941436767578,121.71356201171875 77.34037780761719,121.49826049804688 78.35770416259766,121.27799987792969 79.38129425048828,121.05279541015625 80.41105651855469,120.82266235351562 81.44691467285156,120.58760833740234 82.48875427246094,120.3476333618164 83.5364990234375,120.10276794433594 84.59004211425781,119.85301208496094 85.64930725097656,119.59838104248047 86.71419525146484,119.33888244628906 87.78461456298828,119.07453155517578 88.8604736328125,118.80533599853516 89.9416732788086,118.53131103515625 91.02812957763672,118.25247192382812 92.1197509765625,117.96881866455078 93.21644592285156,117.68037414550781 94.318115234375,117.38713836669922 95.42466735839844,117.08912658691406 96.53601837158203,116.78636169433594 97.65206909179688,116.47883605957031 98.7727279663086,116.16658020019531 99.89791107177734,115.8495864868164 101.02751159667969,115.52787780761719 102.16144561767578,115.20146942138672 103.29962921142578,114.870361328125 104.44195556640625,114.53457641601562 105.58834075927734,114.1941146850586 106.73869323730469,113.84899139404297 107.89291381835938,113.49922180175781 109.05091857910156,113.14482116699219 110.21260833740234,112.7857894897461 111.37789154052734,112.4221420288086 112.54668426513672,112.05388641357422 113.7188949584961,111.68104553222656 114.89441680908203,111.30362701416016 116.07316589355469,110.92163848876953 117.25505828857422,110.53508758544922 118.43998718261719,110.14399719238281 119.62787628173828,109.74836730957031 120.81861877441406,109.34821319580078 122.01212310791016,108.94355010986328 123.20831298828125,108.53438568115234 124.4070816040039,108.1207275390625 125.60833740234375,107.70259857177734 126.81199645996094,107.27999877929688 128.00311279296875,106.85797119140625 129.18963623046875,106.43401336669922 130.3715057373047,106.00816345214844 131.54864501953125,105.58048248291016 132.72097778320312,105.15100860595703 133.888427734375,104.71979522705078 135.0509033203125,104.2868881225586 136.20835876464844,103.85232543945312 137.36068725585938,103.41616821289062 138.5078125,102.97845458984375 139.64968872070312,102.53923797607422 140.7862091064453,102.09855651855469 141.91729736328125,101.6564712524414 143.0428924560547,101.21302032470703 144.1629180908203,100.76824951171875 145.27728271484375,100.32221221923828 146.38592529296875,99.87495422363281 147.48875427246094,99.42652130126953 148.58570861816406,98.97695922851562 149.67669677734375,98.52632141113281 150.76165771484375,98.07464599609375 151.8404998779297,97.62198638916016 152.91314697265625,97.16839599609375 153.9795379638672,96.71390533447266 155.03958129882812,96.25857543945312 156.09320068359375,95.80245208740234 157.14031982421875,95.3455810546875 158.18087768554688,94.88800811767578 159.21478271484375,94.42977905273438 160.24195861816406,93.970947265625 161.2623291015625,93.51155853271484 162.27581787109375,93.05165100097656 163.28236389160156,92.5912857055664 164.2818603515625,92.13050079345703 165.27426147460938,91.66934967041016 166.25946044921875,91.20787048339844 167.23741149902344,90.7461166381836 168.2080078125,90.28414154052734 169.17120361328125,89.82198333740234 170.12689208984375,89.35969543457031 171.07501220703125,88.8973159790039 172.0155029296875,88.43490600585938 172.94825744628906,87.97250366210938 173.87319946289062,87.5101547241211 174.790283203125,87.04791259765625 175.69940185546875,86.5858154296875 176.60049438476562,86.1239242553711 177.4934844970703,85.66227722167969 178.37828063964844,85.200927734375 179.25482177734375,84.73991394042969 180.12303161621094,84.27928924560547 180.98281860351562,83.81909942626953 181.83412170410156,83.3593978881836 182.67684936523438,82.90022277832031 183.5109405517578,82.44161987304688 184.33631896972656,81.98365020751953 185.15289306640625,81.52635192871094 185.96058654785156,81.06977081298828 186.75933837890625,80.61396026611328 187.54905700683594,80.1589584350586 188.3296661376953,79.70481872558594 189.10110473632812,79.25159454345703 189.86328125,78.79932403564453 190.6161346435547,78.34805297851562 191.3595733642578,77.89784240722656 192.09352111816406,77.44872283935547 192.81790161132812,77.00074768066406 193.5326385498047,76.55397033691406 194.2376708984375,76.10843658447266 194.93289184570312,75.6641845703125 195.61825561523438,75.22126770019531 196.29367065429688,74.77973937988281 196.9590606689453,74.33963775634766 197.6143341064453,73.90101623535156 198.2594451904297,73.46391296386719 198.89430236816406,73.02838897705078 199.51882934570312,72.594482421875 200.13294982910156,72.16223907470703 200.736572265625,71.7317123413086 201.32965087890625,71.30294799804688 201.91207885742188,70.87599182128906 202.48379516601562,70.45088958740234 203.0447235107422,70.02769470214844 203.59478759765625,69.6064453125 204.1339111328125,69.18720245361328 204.66200256347656,68.7699966430664 205.817626953125,67.83403778076172 206.91537475585938,66.90937042236328 207.95433044433594,65.9965591430664 208.93362426757812,65.09614562988281 209.85235595703125,64.20868682861328 210.7096405029297,63.33472442626953 211.5045928955078,62.474815368652344 212.236328125,61.62950897216797 212.90394592285156,60.79935836791992 213.506591796875,59.98491287231445 214.0433349609375,59.18672180175781 214.5133056640625,58.40533447265625 214.91563415527344,57.64130783081055 215.24940490722656,56.89518356323242 215.5137481689453,56.16752243041992 215.707763671875,55.458866119384766 215.83058166503906,54.769771575927734 215.8813018798828,54.10078811645508 215.85903930664062,53.45246124267578 215.7628936767578,52.82535171508789 215.5919952392578,52.220001220703125 215.3455047607422,51.64072799682617 215.02674865722656,51.091400146484375 214.63674926757812,50.571895599365234 214.17660522460938,50.082088470458984 213.6473388671875,49.621856689453125 213.05001831054688,49.191078186035156 212.3856964111328,48.78963088989258 211.6554412841797,48.41738510131836 210.8603057861328,48.07422637939453 210.0013427734375,47.76002883911133 209.07960510253906,47.474666595458984 208.0961456298828,47.218017578125 207.05201721191406,46.989959716796875 205.94830322265625,46.79037094116211 204.78602600097656,46.61912536621094 203.56625366210938,46.47610092163086 202.29005432128906,46.361175537109375 200.95846557617188,46.274227142333984 199.57257080078125,46.21512985229492 198.13339233398438,46.18376159667969 196.64199829101562,46.18000030517578 196.06825256347656,45.13798904418945 195.47950744628906,44.104530334472656 194.87574768066406,43.07974624633789 194.2570037841797,42.063751220703125 193.6232452392578,41.05665969848633 192.97450256347656,40.05859375 192.3107452392578,39.06966781616211 191.6320037841797,38.09000015258789 193.12359619140625,37.91157913208008 194.59820556640625,37.74506759643555 196.05555725097656,37.59048080444336 197.4954071044922,37.44784927368164 198.91744995117188,37.317195892333984 200.3214569091797,37.19854736328125 201.7071533203125,37.0919189453125 203.0742645263672,36.997344970703125 204.42251586914062,36.91484451293945 205.7516632080078,36.84444046020508 207.0614471435547,36.78615951538086 208.3515625,36.740028381347656 209.6217803955078,36.70606231689453 210.871826171875,36.684295654296875 212.10142517089844,36.674747467041016 213.31031799316406,36.67744445800781 214.49822998046875,36.692405700683594 215.6649169921875,36.719661712646484 216.81008911132812,36.75923156738281 217.93348693847656,36.81114196777344 219.03485107421875,36.87541580200195 220.11392211914062,36.95207977294922 221.17041015625,37.04115676879883 222.20408630371094,37.142669677734375 223.2146453857422,37.25664138793945 224.20184326171875,37.38309860229492 225.1654052734375,37.52206802368164 226.10508728027344,37.67356872558594 227.0205841064453,37.83762741088867 227.9116668701172,38.01426696777344 228.77806091308594,38.203514099121094 229.61947631835938,38.40538787841797 230.43568420410156,38.61991882324219 231.2263946533203,38.847129821777344 231.9913330078125,39.087039947509766 232.7302703857422,39.33967590332031 233.44290161132812,39.60506820678711 234.1289825439453,39.88322830200195 234.7882537841797,40.1741943359375 235.42042541503906,40.47797775268555 236.02525329589844,40.794612884521484 236.6024627685547,41.12411880493164 237.1517791748047,41.46651840209961 237.67295837402344,41.82183837890625 238.1657257080078,42.19010543823242 238.62979125976562,42.57133865356445 239.06492614746094,42.9655647277832 239.47084045410156,43.372806549072266 239.8472900390625,43.7930908203125 240.19398498535156,44.2264404296875 240.5106658935547,44.672874450683594 240.7970733642578,45.13242721557617 241.05294799804688,45.6051139831543 241.27801513671875,46.090965270996094 241.4720001220703,46.59000015258789 241.63076782226562,47.087894439697266 241.75857543945312,47.59458541870117 241.85565185546875,48.10993576049805 241.92218017578125,48.63380813598633 241.95838928222656,49.16606903076172 241.96446228027344,49.706573486328125 241.9406280517578,50.25518798828125 241.88710021972656,50.81177520751953 241.80406188964844,51.37619400024414 241.6917266845703,51.94831085205078 241.55032348632812,52.527984619140625 241.38003540039062,53.11507797241211 241.1810760498047,53.70945739746094 240.9536590576172,54.310977935791016 240.69798278808594,54.91950607299805 240.41427612304688,55.53490447998047 240.10272216796875,56.15703582763672 239.76353454589844,56.78575897216797 239.3969268798828,57.420936584472656 239.0030975341797,58.062435150146484 238.582275390625,58.710113525390625 238.1346435546875,59.363834381103516 237.66041564941406,60.02345657348633 237.15980529785156,60.68885040283203 236.63302612304688,61.3598747253418 236.08026123046875,62.0363883972168 235.50173950195312,62.71825408935547 234.89767456054688,63.405338287353516 234.26824951171875,64.09750366210938 233.6136932373047,64.79460144042969 232.93418884277344,65.49650573730469 232.22998046875,66.20307922363281 231.50123596191406,66.91417694091797 230.74819946289062,67.6296615600586 229.97105407714844,68.34940338134766 229.17001342773438,69.07325744628906 228.3452911376953,69.80108642578125 227.49708557128906,70.53275299072266 226.62559509277344,71.26811981201172 225.73106384277344,72.00704956054688 224.81365966796875,72.74940490722656 223.8736114501953,73.49504852294922 222.9111328125,74.24384307861328 221.92640686035156,74.99564361572266 220.91966247558594,75.75032043457031 219.89108276367188,76.50773620605469 218.84091186523438,77.26775360107422 217.7693328857422,78.03022766113281 216.6765594482422,78.7950210571289 215.5627899169922,79.56200408935547 214.42823791503906,80.3310317993164 213.2731170654297,81.10197448730469 212.09764099121094,81.87468719482422 210.90199279785156,82.64903259277344 209.6864013671875,83.42487335205078 208.45106506347656,84.20207214355469 207.19619750976562,84.98049926757812 205.9219970703125,85.76000213623047 205.922,85.76" stroke="purple" stroke-width="2" /></svg>